<?xml version="1.0" encoding="UTF-8"?>
<svg id="Layer_1" data-name="Layer 1" xmlns="http://www.w3.org/2000/svg" viewBox="0 0 2000 2000">
  <g>
    <path d="M1230.01,1284.42c-22.32-6.01-39.78-9.43-38.71-7.7s-5.77,1.65-15.27-.15c-9.44-1.83-27.72-5.31-40.65-7.62-12.91-2.4-25.03-6.89-26.96-10.01-3.75-6.07,105.35,10.59,126.4,19.31,6.88,2.86,18.19,4.09,25.02,2.74,12.13-2.47,24.31,7.02,15.28,11.8-2.44,1.35-22.77-2.46-45.11-8.37Z"/>
    <path d="M1263.7,1218.63c-9.33-3.98-15.7-5.23-14.12-2.69s-3.44,3.09-11.2,1.26c-18.7-4.41-20.03-7.98-4.75-12.72,14.63-4.49,17.25-20.17,3.37-20.13-5.92-.01-6.29,1.58-1.12,4.13,9.84,4.94,3.32,9.77-13.07,9.6-7.54-.05-11.88,2.87-11.84,8.12-.02,4.88-3.82,5.32-9.52,1.01-5.8-4.48-6.2-7.19-1.02-7.2,4.64,0,5.75-3.23,2.53-7.15-3.22-3.92-8.73-12.57-12.14-19.25-5.79-11.04-5.32-11.57,5.77-5.65,17.05,9.11,45.12,7.09,32.74-2.35-4.98-3.79-9.54-4.97-10.11-2.53-.55,2.34-13.64,.68-28.98-3.73-15.4-4.37-26.08-4.72-23.73-.66,2.41,4.02,6.84,5.76,9.9,3.87,3.06-1.89,6.57,1.45,7.66,7.48,1.83,9.41,.22,10.17-11.76,5.27-12.35-4.99-12.54-3.75-1.38,11.72,11.03,15.39,10.78,17.3-2.04,17.24-7.9,.01-15.62-2.01-17.12-4.43s-6.3-2.18-10.69,.54c-4.39,2.72-12.78,.39-18.66-5.24-5.84-5.57-8.4-9.58-5.63-8.98,5.18,1.27,9.6-67.28,6.74-104.73-.89-11.51,1.15-22.68,4.51-24.75,9.82-6.07,155.13-4.77,159.38,1.47,6.77,9.79,1.69,66.69-6.4,71.69-4.22,2.61-18.48,2.16-31.75-.98-13.28-3.13-28.15-3.93-32.99-1.81-4.88,2.06-18.81,3.56-31.01,3.2q-22.08-.57-7.01,8.17c8.24,4.81,35.56,12.68,60.67,17.52,29.56,5.69,45.62,12.29,45.62,18.76,.04,5.49-3.91,10.73-8.77,11.65-4.86,.93-6.64,5.15-3.96,9.48,2.68,4.33,6.36,4.86,8.2,1.24,1.8-3.67,3.75,.64,4.35,9.61,1.28,20.29,.24,20.94-20.64,11.96h0Z"/>
    <path d="M1056.51,1265.41c-6.97-11.27-2.11-19.94,11.13-19.98,8.24,.02,8.81,3.26,2.42,14.24-6.67,11.55-9.29,12.62-13.55,5.74Z"/>
    <path d="M1074.65,1191.01c-3.63-5.74-5.43-23-3.89-38.33,1.45-15.35,1.69-43.14,.44-61.69-2.24-33.6,7.66-50.66,20.96-36.12,3.89,4.22,4.81,18.76,2.1,32.33-2.65,13.54-3.69,26.72-2.23,29.34,1.48,2.52-.33,22.73-4.04,44.75-4.82,29.02-8.54,37.23-13.33,29.73h0Z"/>
    <path d="M995.15,1198.46c-13.21-1.74-14.64-3.01-5.87-5.24,6.47-1.68,10.63-7.61,9.48-13.61-1.14-5.85-3.45-7.77-5.27-4.25-4.54,9.2-25.81,12.12-25.82,3.58-.05-3.96-3.04-5.31-6.8-2.99-4.28,2.64-8.65-1.84-12.05-12.52-2.87-9.17-7.66-15.23-10.55-13.45-7.11,4.39-2.77,25.11,6.24,29.61,4.19,2.12,.33,4.03-9.1,4.67-8.95,.5-15.07,3.01-13.56,5.59,1.48,2.52-1.76,2.45-7.16-.21-6.03-2.9-10.51-12.35-11.34-23.9-.8-10.85-8.06-26.73-16.71-36.72-8.54-9.81-12.77-19.1-9.65-21.03s37.82,2.9,77.08,10.73q71.48,14.2,64.96,48.1c-6.16,32.16-7.38,33.8-23.9,31.63h0Z"/>
    <path d="M1204.86,1007.95c-81.96-3.24-85.8-4.55-81.53-27.48,3.28-18.08-15.58-136.06-23.94-149.58-7.79-12.6-1.97-14.68,81.86-28.96,71.38-12.18,75.73-12,81.27,3.67,10.72,30.52,22.49,81.86,19.94,87.04-1.45,2.82-19.31,5.07-39.82,4.97-45.62-.15-81.79,9.43-61.65,16.31,7.12,2.47,32.52,4.42,56.47,4.39,23.85-.05,44.86,2.14,46.63,4.88,6.41,9.85,7.23,80.43,.91,84.03-3.54,2.03-39.6,2.36-80.14,.74h0Z"/>
    <path d="M850,1228.54c-6.65-10.75-6.05-13.27,2.65-11.22,8.79,2.07,10.68,5.14,8.57,13.87-2.02,8.75-4.54,8.16-11.22-2.65Z"/>
    <path d="M957.81,1073.46c-71.11-11.15-84.43-19.13-58.66-35.06,9.59-5.93,17.4-14.35,17.4-18.75s5.15-11.17,11.39-15.03c6.59-4.07,10.02-14.02,8.1-23.86-1.76-9.3,.21-21.37,4.37-26.91,8.81-11.59,65.76-24.12,75.23-16.56,6.61,5.26,13.71,140.65,7.54,143.98-1.92,1.03-31.34-2.51-65.38-7.82h0Z"/>
    <path d="M836.22,1159.09c-3.13-1.58-9.55-19.58-14.26-39.99-10.13-43.9,2.07-43.29,16.06,.78,9.61,30.4,8.97,44.61-1.8,39.21Z"/>
    <path d="M1075.81,1004.51c-5.44-4.15-9.5-19.76-9.48-36.39,.16-39.15-4.88-74.3-16.21-112.91-10.31-35.4,.23-52.46,15.97-25.85,11.3,19.05,31.87,167.44,24.46,176.26-2.83,3.43-9.47,2.9-14.74-1.11h0Z"/>
    <path d="M666.56,1254.4c-6.5-.06-11.25-2.55-10.56-5.54,1.77-7.32,24.01-11.09,27.98-4.68,4.07,6.59-2.4,10.35-17.42,10.21Z"/>
    <path d="M772.87,1168.38q-19.56,.67-1.81-10.54c11.97-7.64,19.41-8.4,23.01-2.57,6.54,10.58,3.82,12.25-21.21,13.11Z"/>
    <path d="M778.05,1133.47c-1.07-5.73-5.37-10.5-9.61-10.51-4.21,.04-9.33-2.7-11.44-6.11-2.39-3.87,1.09-5.47,9.31-4.32,20.21,2.84,9.39-9.24-22.14-24.57-14.91-7.32-34.16-20.5-42.64-29.31-8.58-8.84-19.76-16.06-24.85-16.03-13.09,.02-31.12,10.21-27.69,15.76,1.57,2.54-2.6,5.68-9.29,6.94-7.61,1.43-10.08-.16-6.64-4.28,3.03-3.63,3.97-9.08,2.08-12.15-1.93-3.12-6.91,.6-11.62,8.7-6.41,11.07-10.38,13.12-17.99,9.45-7.66-3.73-8.48-2.59-3.76,5.2,4.12,6.8,2.35,10.69-5.44,12.15-12.04,2.33-34.66-38.43-26.66-48.03,2.08-2.48-3.06-13.14-11.41-23.67q-15.17-19.16,47.71-23.75t74.42,21.43c14.52,32.8,41.87,58.3,73.57,68.74,23.58,7.78,24.78,9.2,28.82,34.34,3.87,24.61-.34,42.86-4.72,20.01h0Z"/>
    <path d="M648.52,1183.6c-9.3,.96-19.9-3.11-23.61-9.12-5.57-9.01-4.59-10.5,5.94-8.47,6.98,1.36,12.34,4.11,11.9,6.14s5.87,4.36,13.95,5.11c17.66,1.7,14.78,3.96-8.18,6.34Z"/>
    <path d="M735.36,1107.71c-6.65-10.75-6.05-13.27,2.65-11.22,8.79,2.07,10.68,5.14,8.57,13.87-2.02,8.75-4.54,8.16-11.22-2.65Z"/>
    <path d="M815.36,1037.88c-54.61,11.16-102.07-30.35-107.86-94.48-3.7-40.74,8.75-63.49,48.11-87.82,50.68-31.33,110.78-5.96,135.03,56.92,21.58,55.83-12.42,112.47-75.29,125.38Z"/>
    <path d="M846.89,973.9c24.9-41.12,7.53-85.49-35.97-91.9-41.38-6.07-72.04,21.97-68.88,63,4.71,61.49,73.63,80.47,104.85,28.9Z"/>
    <path d="M802.09,964.61c-15.3-.85-27.78-14.7-26.59-29.57,2.26-29.28,50.17-26.22,49.89,3.18-.09,15.87-10.06,27.14-23.3,26.39Z"/>
    <path d="M607.48,1138.84c-6.96-23.25-6.54-23.83,17.46-23.17,24.29,.64,27.03,9.41,3.42,10.91-12.56,.74-15.65,3.77-15.72,15.07-.11,11.73-.94,11.28-5.16-2.8Z"/>
    <path d="M697.27,1091.32c-3.93-1.96-3.05-6.1,1.86-9.14,4.97-3.07,10.62-2.97,12.59,.21s1.15,7.28-1.86,9.14c-3,1.86-8.66,1.76-12.59-.21Z"/>
    <path d="M1214.31,752.18c-14.05-2.18-26-2.14-26.55,.2-.53,2.24-12.44,4.17-26.5,4.16-13.97,.01-26.02,2.35-26.71,5.25-2.32,9.82-48.44,8.86-54.47-1.15-3.39-5.49-11.14-26.68-17.27-47.06-6.07-20.41-16.36-45.71-22.86-56.23-6.44-10.55-9.06-19.18-5.79-19.18,3.33-.04,17.31-4.95,31.16-10.97,13.85-6.02,48.37-18.92,76.69-28.66q51.52-17.7,63.4,9.92c19.53,45.28,19.28,46.31-11.22,50.71-14.73,2.14-30.14,5.77-34.23,8.07-4.03,2.26-9.96,.05-13.13-4.95-4.61-7.33-5.81-6.94-5.87,1.87-.09,8.25-4.24,7.86-16.86-1.56q-16.76-12.51-3.46,1.9c7.8,8.48,10.13,14.44,5.65,14.44-4.16,0-10.75,4.19-14.68,9.33-9.56,12.57,30.75,9.94,78.69-5.15,31.09-9.79,35.97-9.38,39.08,3,1.92,7.76,7.3,24.08,11.88,36.27,10.7,28.29,4.82,34.8-26.96,29.77h0Z"/>
    <path d="M969.31,897.1c-29.35,.97-31.38-.25-51.17-30.19-11.37-17.09-30.1-36.81-41.71-43.69-30.14-17.88-30-18.42,12.52-38.8,78.62-37.69,79.92-37.91,88.28-14.96,18.77,51.16,34.83,119.26,29.08,122.74-3.5,2.09-20.21,4.27-36.99,4.9h0Z"/>
    <path d="M1032.44,774.28c-3.38-5.59-15.98-34.63-27.94-64.58-11.91-29.98-22.42-55.65-23.31-57.08s2.68-1.6,7.92-.37c15.63,3.7,66.11,121.93,55.02,128.79-3,1.86-8.25-1.21-11.68-6.75Z"/>
    <path d="M590.21,933.51q-61.16,6.88-67.06-14.05c-3.24-11.51-5.89-32.91-5.9-47.55,0-14.63-2.87-31.26-6.38-36.94-5.73-9.27-4.82-10.08,9.05-7.92,28.17,4.36,112.33,.95,121.81-4.91,24.5-15.15-26.53-27.02-94.32-21.95q-47.57,3.54-48.67-24.59c-.55-15.5,.88-39.92,3.2-54.26,3.94-24.25,5.58-26.12,22.78-26.07,10.23,0,50.69-.7,89.99-1.6,39.24-.87,73.61,2.01,76.33,6.41s6.55,37.86,8.45,74.39c2.96,56.34,.95,70.14-13.49,91.23-9.36,13.67-17.84,31.34-18.97,39.34-2.62,19.28-5.8,20.47-76.82,28.46Z"/>
    <path d="M879.43,751.08c-5.58-4.25-16.53-1.8-30.6,6.83-39.03,23.94-52.41,25.18-58.79,5.42-3.06-9.6-3.74-19.74-1.5-22.57,2.25-2.83,2.83-24.75,1.33-48.75-1.55-23.95-1.47-54.57,.14-67.98q2.96-24.42,52.74-27.61c55.46-3.58,47.59-9.97,88.62,72.81q20.5,41.43-10.26,55.24c-21.07,9.45-29.5,15.86-26.73,20.33,5.88,9.51-4.83,14.02-14.96,6.29h0Z"/>
    <path d="M730.06,809.47c-4.56-9.06-14.79-101.71-12.49-113.62,.41-2.18,7.09-2.48,14.85-.66,12.54,2.97,14.25,9.49,15.68,59.73,1.56,53.68-6.3,77.53-18.03,54.55Z"/>
    <path d="M1133.13,552.78c-12.42,3.81-22.36-4.64-12.59-10.68,3.18-1.96,4.17-6.17,2.21-9.35s-7.62-3.28-12.59-.21c-6.65,4.11-10.08,1.65-12.83-9.25-2.99-11.82-5.21-12.95-10.85-5.53-8.06,10.6-12.21,6.61-11.75-11.25,.27-10.81,1.54-11.6,11.38-7.04,9.44,4.42,10.18,3.68,4.89-5.02-3.38-5.6-8.79-8.54-11.97-6.58-3.18,1.96-7.39,.97-9.35-2.21-5.56-8.99,26.48-25.77,46.95-24.58,13.42,.77,21.96,6.85,31.53,22.44,27.49,44.86,24.9,56.94-15.03,69.23Z"/>
    <path d="M1105.02,492.46c-14.66-22.43-14.96-22.52-8.41-2.75,3.7,11.28,6.8,24.04,6.79,28.42-.01,4.38,3.79,5.61,8.41,2.75,6.07-3.75,4.23-11.63-6.79-28.42Z"/>
    <path d="M1052.49,578.67c-1.32-.32-16.02,5.75-32.65,13.46-49.79,23.09-56.16,21.44-79.85-20.63-18.71-33.23-19.64-38.49-10.39-59.69,9.28-21.3,21.88-28.82,43.11-25.74,1.58,.22,3.69,10.11,4.77,21.93,1.45,16.55,6.18,25.37,20.41,38.05,17.14,15.33,18.04,15.35,11.89,.63-3.64-8.73-5.33-22.97-3.8-31.6,2.5-14.17-1.61-16.55-12.45-7.22-2.14,1.84-6.32-.54-9.27-5.31-2.95-4.77-1.72-10.92,2.73-13.67,12.31-7.61,27.44,7.69,24.3,24.7-3.08,16.72,2.66,30.52,10.69,25.56,2.77-1.71,3.04-9.81,.56-17.96-2.55-8.12-1.97-14.17,1.21-13.42,3.24,.72,6.44,7.58,7.16,15.19,.72,7.62,7.97,20.52,16.12,28.66,10.27,10.29,12.92,11.08,8.77,2.56q-6.11-12.2,6.01-3.72c18.31,12.81,18.93,15.37,5.44,22.36-6.78,3.51-13.45,6.16-14.76,5.84Z"/>
    <path d="M973.38,534.7c-6.27-2.12-10.82-7.16-10.06-11.23s-.72-3.5-3.3,1.26c-3.51,6.47-1.26,10.62,8.83,16.48,7.45,4.29,14.08,5.46,14.77,2.57s-3.91-6.97-10.24-9.07Z"/>
    <path d="M1054.24,503.22c-5.55-5.36-7.78-11.16-4.89-12.95,2.89-1.79,8.42,1.99,12.35,8.34,3.93,6.36,6.16,12.16,4.95,12.92s-6.8-2.99-12.4-8.31h0Z"/>
    <path d="M1097.87,450.52c-9.24,.95-18.24-.43-19.9-3.13-5.02-8.12,6.1-11.45,27.93-8.32,22.57,3.17,18.75,8.62-8.02,11.44Z"/>
    <path d="M1054.47,457.85c-14.74,2.51-15.99-7.64-1.48-12.09,7.39-2.27,14.85-1.82,16.58,.99,3.4,5.51-.88,8.66-15.1,11.1Z"/>
    <path d="M683.38,641.45c-27.31-2.45-77.6-3.95-111.74-3.35-34.08,.56-63-.48-64.17-2.37-3.51-5.68-3.99-71.58-.53-73.72,10.4-6.43,77.74-21.8,83.29-19.02,3.68,1.82,11.43,.4,17.21-3.18,5.78-3.57,15.96-4.68,22.62-2.43,6.65,2.24,27.95-1.43,47.29-8.13,29.54-10.23,37.26-10.14,48.09,.66,7.09,7.07,16.67,16.24,21.3,20.37,8.84,7.97,2.3,85.63-7.79,91.92-3.23,2.01-28.21,1.66-55.58-.75h0Z"/>
    <path d="M1051.23,428.44c-18.5,1.21-37.16,2.94-41.53,3.88-4.31,.9-7.39-.85-6.86-3.86,.59-3.05,13.82-6.33,29.44-7.3s27.54-3.13,26.5-4.8,8.41-3.83,20.99-4.8c12.58-.97,23.64-.52,24.57,.99,3.84,6.21-21.58,13.81-53.11,15.9Z"/>
    <path d="M828.85,558.02c-16.67,2.37-26.28-.51-31.95-9.56-4.47-7.11-13.32-17.8-19.65-23.77-8.87-8.41-9.1-12.4-.81-17.71,9.95-6.38,9.77-6.81-3.12-6.46-7.55,.19-16.09-3.41-18.94-8.02-6.49-10.5-4.1-11.92,23.66-14.05,31.12-2.37,58.55-8.01,56.34-11.58-1.01-1.64-23.99-.05-51.02,3.52-37.2,4.95-48.62,3.92-46.71-4.23,2.83-11.83,158.23-30.62,164.82-19.96,4.45,7.19,3.76,7.51-27.01,12.39-30.97,4.94-35.53,7.13-25.37,12.19,4.17,2.09,15.82,2.2,25.89,.27,12.13-2.35,17.57-.39,16.16,5.72-1.47,6.15-9.74,9.83-24.55,10.94-33.32,2.44-37.75,8.83-6.46,9.32q27.34,.42,18.89,24.09c-9.57,26.9-16.65,32.11-50.19,36.91h0Z"/>
    <path d="M970.06,469.89c-6.45,1.97-13.24,1.2-15.06-1.75-4.8-7.76,3.67-11.38,22.51-9.59,16.52,1.53,14.5,4.59-7.45,11.34Z"/>
    <path d="M1042,402.16c-22.53,2.58-78.1,11.53-123.5,19.87-45.35,8.31-89.7,15.12-98.49,15.11-8.79-.01-30.5,2.61-48.29,5.87-72.22,13.15-249.81,35.33-248.79,31.04,2.27-9.77,193.98-42.18,294.13-49.69,31.98-2.4,72.07-7.33,89.07-10.96,74.52-15.89,180.38-29.68,183.92-23.96,3.23,5.23-7.27,8.01-48.05,12.72Z"/>
    <path d="M969.21,442.67c-18.56,3.82-32.16-2.79-20.48-10.01,9.59-5.93,43.08-8.35,46.19-3.32,3.66,5.92-.57,8.12-25.71,13.32Z"/>
    <path d="M1057.57,375.66c-5.83,1.17-29.25,3.98-52.05,6.24-22.74,2.24-42.85,4.6-44.68,5.24-8.87,3.1-34.24,7.92-60.76,11.54-16.21,2.21-57.42,8.16-91.64,13.27-34.16,5.07-67.57,9.56-74.26,9.98-6.63,.39-37.52,4.81-68.56,9.78-82.38,13.26-146.68,18.17-122.69,9.43,40.28-14.69,213.53-42.21,252.07-40.08,12.08,.67,23.73,.13,25.98-1.26s14.5-3.8,27.33-5.41c12.88-1.65,44.54-6.51,70.4-10.81,25.91-4.34,57.02-9.19,69.19-10.82,12.17-1.63,34.33-5.07,49.2-7.63,14.93-2.59,28.76-1.93,30.83,1.41,2.06,3.34,2.99,6.26,2.03,6.51-.9,.22-6.49,1.39-12.37,2.59Z"/>
    <path d="M1032.9,348.68c-6.64-.15-17.99,3.33-25.19,7.71-7.14,4.35-14.66,5.35-16.63,2.17s-6.98-3.67-11.14-1.1-33.68,6.89-65.57,9.57c-31.83,2.64-65.96,7.39-75.84,10.53-29.84,9.49-303.93,47.02-302.65,41.46,1.84-7.75,97.25-26.55,200.58-39.51,61.15-7.68,150.89-19.5,199.42-26.27,48.53-6.77,94.18-11.22,101.47-9.91,15.4,2.81,13.01,5.68-4.45,5.34h0Z"/>
    <path d="M985.52,330.17c-16.17,2.4-47.71,6.54-70.17,9.24-22.51,2.73-71.54,10.51-109.08,17.36-108.11,19.71-275.55,39.69-263.11,31.4,9.62-6.4,97.05-22.73,158.53-29.63,29.82-3.32,70.92-9.05,91.34-12.73,38.73-6.99,213.61-29.16,220.19-27.94,11.92,2.22-2.36,8.58-27.7,12.3Z"/>
    <path d="M630.85,519.27c-32.95,3.95-71.78,9.34-86.39,12.07s-27.73,3.08-29.14,.8c-3.67-5.94,24.88-14.28,40.59-11.87,7.32,1.11,22.17-.96,33.07-4.65,10.9-3.68,27.49-6.69,36.79-6.64,9.35,0,26.95-3.05,39.21-6.85,12.2-3.77,25.17-4.38,28.81-1.34,10.06,8.38,2.01,10.75-62.94,18.48h0Z"/>
    <path d="M699.08,487.52c-5.66-2.31-49.31,.99-97.04,7.38-47.73,6.39-86.48,10.37-86.13,8.87,.67-2.92,65.99-17.41,133.31-29.59,22.77-4.13,43.37-4.14,45.88-.09s8.33,6.5,12.93,5.42c5.22-1.25,7.06,.7,4.84,5.12-1.96,3.93-8.19,5.24-13.79,2.89Z"/>
    <path d="M936.87,307.81c-21.77,2.77-41.1,7.95-42.85,11.44-1.75,3.5-4.88,3.61-6.96,.24-2.08-3.36-7.02-4.11-11-1.64-7.09,4.42-109.06,19.33-247.2,36.19-95.9,11.68-75.13,2,31.62-14.75,47.62-7.47,87.96-14.44,89.75-15.55s23.85-4.58,49.18-7.8c25.26-3.19,76.28-10.46,113.34-16.15,37.06-5.69,68.6-8.41,70.14-6.06,4.14,6.44-2.58,8.49-46.01,14.08Z"/>
    <path d="M910.81,280.38c-23.16,1.55-45.94,5.02-50.65,7.73-10.44,5.99-243.23,41.32-270.05,40.96q-19.43-.29-8.38-18.98c16.72-28.25,120.03-81.3,169.75-87.18,39.45-4.67,149.49,15.7,157.83,29.2,2.72,4.4,14.61,11.49,26.38,15.79,11.76,4.3,20.43,8.25,19.36,8.7-1.13,.49-21.02,2.17-44.24,3.76h0Z"/>
  </g>
  <g>
    <path d="M286.47,1400.26c-.4-1.4-1.33-3.28-2.78-5.64-1.46-2.36-3.29-5.34-5.49-8.95-2.31-3.31-4.01-5.89-5.12-7.75-1.1-1.85-1.65-3.13-1.65-3.84,0-2.8,3.23-7.42,9.7-13.87,6.47-6.45,11.21-9.67,14.22-9.67,2.21,.9,3.81,1.81,4.81,2.71h4.51c2.71,1.4,5.49,2.71,8.35,3.91,2.86,1.2,5.64,2.46,8.35,3.76,8.12,3.71,13.19,6.69,15.2,8.95,2.01,2.26,5.21,4.79,9.63,7.59,.6,.8,1.81,2.13,3.61,3.99,1.81,1.85,4.26,4.18,7.37,6.99,.4,.3,.9,.85,1.5,1.66s1.25,1.65,1.96,2.56c4.31,5.11,7.95,9.82,10.91,14.13,2.96,4.31,5.19,8.32,6.7,12.03,1.9,4.51,3.33,9.32,4.29,14.43,.95,5.11,1.43,10.67,1.43,16.68,0,11.12-1.5,20.5-4.51,28.11s-7.67,13.28-13.99,16.99c-.6,.5-1.46,1.08-2.56,1.73-1.1,.65-2.21,1.38-3.31,2.18l-1.96,1.95c-1.71,1.9-4.54,3.94-8.5,6.09-3.96,2.16-9.15,4.49-15.57,6.99-8.53,3.31-17.51,6.92-26.93,10.83-2.61,1.3-4.84,2.36-6.7,3.16-1.86,.8-3.29,1.2-4.29,1.2-2.91,0-4.66,.2-5.27,.6-.6,.4-1.15,4.42-1.66,12.06-.3,4.93-.6,9.75-.9,14.47,0,1.71,.53,3.7,1.58,5.96s2.68,4.7,4.89,7.31c-.9,2.02-1.93,3.98-3.08,5.89-1.15,1.91-2.58,3.98-4.29,6.19-1.81,2.72-3.66,4.76-5.57,6.12-1.91,1.36-3.71,2.04-5.42,2.04-3.31,0-5.74-1.76-7.3-5.27-1.56-3.52-2.33-8.79-2.33-15.82,0-2.21,.35-5,1.05-8.36,.7-3.36,1.75-7.51,3.16-12.43l-.75-8.74c-1.3-.6-2.58-1.25-3.84-1.96-1.26-.7-2.48-1.46-3.69-2.26-1.81-.8-3.08-1.71-3.84-2.71-.75-1-1.13-2.01-1.13-3.01,0-1.2,2.43-2.98,7.3-5.34,4.86-2.36,7.3-5.49,7.3-9.4,0-1.1-.23-2.71-.68-4.82-.45-2.11-.68-3.66-.68-4.66,.9-5.82,1.9-11.68,3.01-17.6,.2-.6,.45-2.41,.75-5.42,.3-3.01,.7-7.32,1.2-12.94,.3-1.71,.75-3.86,1.35-6.47,.6-2.61,1.25-5.62,1.96-9.03l-1.05-5.42,8.73-47.85Zm12.34-17.91c-.6,0-1.03,.15-1.28,.45-.25,.3-.38,.75-.38,1.35,11.83,12.33,17.75,21.45,17.75,27.37,0,1.81-1.93,9.6-5.79,23.39-3.86,13.79-6.5,22.13-7.9,25.04l1.2,6.32c-2.71,10.12-4.74,18.82-6.09,26.09-1.35,7.27-2.03,13.06-2.03,17.37,0,1.1,.23,1.9,.68,2.4,.45,.5,1.08,.75,1.88,.75,1,0,2.81-.45,5.42-1.35,2.61-.9,5.97-2.46,10.08-4.66,2.61-1.4,5.21-2.7,7.82-3.91,2.61-1.2,5.27-2.46,7.97-3.76,1.1-.6,2.38-1.38,3.84-2.33,1.45-.95,3.03-2.08,4.74-3.38,2.41-1.81,4.31-3.28,5.72-4.44,1.4-1.15,2.31-1.88,2.71-2.18,4.31-3.01,7.57-6.77,9.78-11.28,2.21-4.51,3.31-9.88,3.31-16.09,0-3.71-.43-7.47-1.28-11.28-.85-3.81-2.13-7.72-3.84-11.73l-.3-3.61c-.2-.5-.55-1.08-1.05-1.73-.5-.65-1.05-1.38-1.66-2.18-.6-.6-1.26-1.4-1.96-2.41-.7-1-1.35-2.31-1.96-3.91-1.61-3.11-4.51-6.97-8.73-11.58-4.21-4.61-9.83-9.93-16.85-15.94-.8-.7-1.71-1.53-2.71-2.48-1-.95-2.11-1.98-3.31-3.08-1.91-.9-4.16-1.93-6.77-3.08-2.61-1.15-5.62-2.53-9.03-4.14Z"/>
    <path d="M387.89,1514.09c-.3-1.1-.47-2-.53-2.71-.05-.7-.08-1.3-.08-1.81,0-3.31,.4-6.14,1.2-8.5,.81-2.36,2.01-4.34,3.62-5.94,.4-.4,1.43-1,3.09-1.81,1.66-.8,3.84-1.75,6.55-2.86,1.91-.9,3.44-1.98,4.59-3.23,1.15-1.25,1.78-2.78,1.88-4.59,.3-1.4,.9-3.01,1.81-4.81s1.96-3.76,3.16-5.87c.4-.6,1.61-4.06,3.62-10.38,2.01-6.32,4.82-15.6,8.43-27.84,1-3.71,2.01-6.92,3.01-9.63,1-2.71,1.86-5.01,2.56-6.92,3.21-8.52,5.85-14.12,7.91-16.78,2.06-2.66,3.59-4.84,4.59-6.54v-.75l-4.67-7.37,5.87-6.77,7.53-1.5c1.5-.2,2.88-1.6,4.14-4.21,1.26-2.61,3.44-5.47,6.55-8.58,.7-.2,1.83-.83,3.39-1.88,1.56-1.05,3.54-2.53,5.95-4.44,2.11-1.71,3.91-2.96,5.42-3.76,1.5-.8,2.66-1.2,3.46-1.2,2.7,0,4.65,.55,5.85,1.66,1.2,1.1,1.8,2.56,1.8,4.36,0,2.21-1.15,5.42-3.45,9.62-2.3,4.21-3.45,7.42-3.45,9.62,0,1,.22,1.83,.67,2.48,.45,.65,.98,1.08,1.58,1.28l18.02,9.77c1,.4,1.9,1.98,2.7,4.74,.8,2.76,1.45,6.54,1.95,11.35,.6,4.01,1.08,7.34,1.43,10,.35,2.66,.53,4.79,.53,6.39-.7,4.31-1.4,8.67-2.1,13.08,1,5.61,2.1,11.53,3.3,17.74-.6,5.92-1.25,11.93-1.95,18.05,0,.6,.12,1.13,.38,1.58,.25,.45,.63,.73,1.13,.83,1.7,.1,2.98,.55,3.83,1.35,.85,.8,1.28,1.91,1.28,3.31,0,1.81-.28,3.24-.83,4.29-.55,1.05-1.33,1.88-2.33,2.48-1.3,.8-2.33,1.51-3.08,2.11s-1.27,1.11-1.58,1.5l1.95,9.34-2.7,21.38c0,1.81-.15,4.12-.45,6.93-.3,2.81-.75,6.07-1.35,9.79-1,2.71-1.75,4.97-2.25,6.78-.5,1.81-.75,3.01-.75,3.61,.5,1.71,.95,3.51,1.35,5.42-.6,2.71-1.23,5.42-1.88,8.13-.65,2.71-1.28,5.37-1.88,7.98-1.1,3.51-2.55,6.1-4.35,7.75-1.8,1.66-3.9,2.49-6.3,2.49-1.31,0-2.29-.58-2.94-1.73-.65-1.16-.98-2.89-.98-5.2,0-1,.17-2.46,.53-4.36,.35-1.91,.53-3.36,.53-4.37,0-.7-.1-1.65-.3-2.86-.2-1.2-.3-2.26-.3-3.16,0-2.81,.27-7.3,.83-13.47,.55-6.17,.83-10.81,.83-13.93-.5-1.7-1-3.46-1.5-5.27,.3-1.91,.5-3.84,.6-5.79,.1-1.96,.05-3.79-.15-5.5l2.26-4.06-1.96-14-1.05-.45c-.6,0-1.48,.23-2.64,.68-1.15,.45-2.58,1.18-4.29,2.18-1.2,.4-3.09,.83-5.65,1.28-2.56,.45-5.95,.73-10.16,.83-1.81,.9-3.51,1.71-5.12,2.41-2.31,.5-5.22,1.38-8.73,2.64-3.51,1.26-7.58,2.79-12.2,4.59-2.71,1.3-5.2,2.33-7.46,3.09-2.26,.75-4.14,1.13-5.65,1.13-1.2,0-2.21,.45-3.01,1.35-.8,.9-1.46,2.21-1.96,3.91-.3,1.61-1.03,3.82-2.18,6.63-1.16,2.81-2.69,6.32-4.59,10.54-.4,1.1-.95,2.81-1.66,5.12-.7,2.31-1.5,5.17-2.41,8.58-.6,1.3-1.3,2.94-2.11,4.89s-1.71,4.24-2.71,6.85c0,1.2-.13,2.68-.38,4.44-.25,1.76-.63,3.79-1.13,6.1-.5,1.41-1.18,3.19-2.03,5.35-.85,2.16-1.93,4.54-3.24,7.15-.8,1.61-1.96,2.79-3.46,3.54-1.5,.75-3.46,1.13-5.87,1.13-1.7,0-3.03-.58-3.99-1.73-.95-1.15-1.43-2.93-1.43-5.34,0-2.61,.3-5.59,.9-8.95,.6-3.36,1.56-7.05,2.86-11.06,1.41-5.32,2.61-9.63,3.61-12.94,1.01-3.31,1.56-5.77,1.66-7.37,.3-.7,.75-1.96,1.35-3.76,.6-1.81,1.31-4.01,2.11-6.62,.9-2.51,1.76-5.37,2.56-8.58l-.75-1.2-4.82,.75c-1.1-.1-1.91-.55-2.41-1.35-.5-.8-.75-1.86-.75-3.16,0-.7,.1-1.48,.3-2.33,.2-.85,.5-1.88,.9-3.08Zm54.68-27.73c2.31,0,5.72-.56,10.23-1.67,4.51-1.11,7.92-1.66,10.23-1.66,1.4,.3,2.81,.55,4.21,.76,2.51-.5,4.97-1.08,7.38-1.74,2.41-.65,4.87-1.23,7.38-1.74,1-.2,1.76-.58,2.26-1.13,.5-.55,.75-1.28,.75-2.18-.2-3.01-.3-5.06-.3-6.17,0-1.9,.12-4.04,.38-6.39,.25-2.36,.63-4.79,1.13-7.3l-1.81-6.77,.6-6.17c-.4-2.21-.73-4.29-.98-6.25-.25-1.96-.28-3.58-.08-4.89-.2-.4-.55-1.05-1.06-1.96-.5-.9-1.05-1.86-1.66-2.86-1-1.71-2.03-3.33-3.09-4.89-1.05-1.55-2.08-3.13-3.09-4.74-1.41-1.9-2.91-3.31-4.52-4.21-1.61-.9-3.26-1.35-4.97-1.35-2.01,0-4.06,1.61-6.17,4.81-2.11,3.21-4.06,8.08-5.87,14.6-.3,.8-1.13,2.46-2.48,4.96-1.35,2.51-3.29,5.77-5.79,9.78-.4,3.81-1.76,8.55-4.06,14.22-2.31,5.67-5.52,12.31-9.63,19.94-.5,.71-.78,1.31-.83,1.82-.05,.5-.08,1.06-.08,1.66,0,.71,.17,1.24,.53,1.59,.35,.35,.88,.53,1.58,.53,1,0,2.63-.1,4.89-.3s3.89-.3,4.89-.3Z"/>
    <path d="M580.33,1488.3c0,2.01,1.43,4.69,4.29,8.05,2.86,3.36,7.15,7.5,12.86,12.42,3.71,3.11,7.55,6.15,11.51,9.11,3.96,2.96,7.9,5.95,11.81,8.96,1.7,1.41,3.91,3.24,6.62,5.49,2.71,2.26,5.87,4.9,9.48,7.9,2.61,2.01,5.34,4.02,8.2,6.02s5.94,4.01,9.25,6.02c2.21,1.71,4.66,3.56,7.37,5.57s5.82,4.17,9.33,6.47c2.01,1.2,3.56,3.39,4.66,6.55,1.1,3.16,1.75,7.25,1.96,12.27l-1.35,3.91-1.5,.75c-1,0-2.33-.43-3.99-1.28-1.65-.86-3.74-2.08-6.24-3.69-.5-.3-2.78-1.41-6.85-3.31-4.06-1.91-9.91-4.62-17.53-8.13-4.21-1.81-8.08-3.84-11.59-6.1-3.51-2.26-6.72-4.64-9.63-7.15-1.71-1.5-3.89-3.16-6.55-4.97-2.66-1.81-5.79-3.76-9.4-5.87-3.71-2.11-6.92-4.11-9.63-6.02-2.71-1.91-4.87-3.51-6.47-4.82-5.42-4.42-9.83-7.78-13.24-10.09-3.41-2.31-5.77-3.46-7.07-3.46-1,1.41-1.56,2.86-1.66,4.36-1.2,4.72-2.48,10.67-3.84,17.85-1.35,7.18-2.83,15.54-4.44,25.08,0,1.71-.3,2.99-.9,3.84-.6,.85-1.5,1.28-2.71,1.28-3.91,0-6.87-.95-8.88-2.86-2.01-1.91-3.01-4.77-3.01-8.59,0-5.12,.32-10.49,.98-16.11,.65-5.62,1.73-11.55,3.24-17.77,.5-2.71,.88-5.14,1.13-7.3,.25-2.16,.38-4.14,.38-5.95,0-4.62-1.98-8.58-5.94-11.9-3.96-3.31-5.94-5.67-5.94-7.08,0-2.21,.32-4.13,.98-5.79,.65-1.66,1.63-2.98,2.93-3.99,3.31-2.1,6.37-4.11,9.18-6.01,.7-.4,1.18-1.08,1.43-2.03,.25-.95,.38-2.28,.38-3.99v-6.46c.3-8.92,.55-18.2,.75-27.82v-3.31c0-1.5-.1-3.46-.3-5.87-.2-1.8-.25-3.48-.15-5.04,.1-1.55,.15-2.98,.15-4.29-.6-2.01-1.13-3.74-1.58-5.19-.45-1.45-.68-2.83-.68-4.13,0-1.2,.1-3.08,.3-5.64,.2-2.56,.3-4.38,.3-5.49,0-1.4-.13-3.36-.38-5.86-.25-2.51-.38-4.41-.38-5.72,0-3.61,.83-7.07,2.48-10.38,1.65-3.31,4.19-6.57,7.6-9.78,3.31-2.81,6.7-4.94,10.16-6.39,3.46-1.45,7-2.18,10.61-2.18,1.7,0,4.24,.13,7.6,.38,3.36,.25,5.99,.38,7.9,.38,1.3,0,4.86,1.1,10.68,3.31,2.31,.2,4.36,.48,6.17,.83,1.81,.35,3.26,.73,4.36,1.13,2.51,1.2,4.46,2.13,5.87,2.78,1.4,.65,2.41,1.03,3.01,1.13,1.7,.6,3.18,1.1,4.44,1.5,1.25,.4,2.28,.9,3.08,1.5,1.3,.6,2.83,1.3,4.59,2.1,1.75,.8,3.74,1.71,5.94,2.71,3.61,1.81,7,3.91,10.16,6.32s6.14,5.01,8.95,7.82c3.21,3.61,5.62,7.15,7.22,10.6,1.6,3.46,2.41,6.89,2.41,10.3,0,1-.08,2.43-.23,4.29-.15,1.86-.43,3.94-.83,6.24-.3,2.91-1.81,6.04-4.51,9.4-2.71,3.36-6.62,7.04-11.74,11.05-4.51,3.51-8.73,6.44-12.64,8.8-3.91,2.36-7.52,4.04-10.83,5.04-1.3,.9-2.31,1.76-3.01,2.56-1,1-3.11,2.41-6.32,4.21-3.21,1.81-7.57,4.06-13.09,6.77-10.03,4.91-17.15,8.15-21.37,9.7-4.21,1.55-6.32,3.23-6.32,5.04Zm-15.8-72.48c1.9-1.4,3.71-2.78,5.42-4.14,1.7-1.35,3.91-2.03,6.62-2.03,1.2,0,2.68,1.33,4.44,3.99,1.75,2.66,2.63,4.64,2.63,5.94,0,.7-.25,2.31-.75,4.81-.5,2.51-1.3,5.91-2.41,10.22-2.31,9.72-3.61,15.82-3.91,18.27-.3,2.46-.95,6.29-1.96,11.5-.4,1.3-.8,3.01-1.2,5.11,0,.9,.17,1.55,.53,1.95,.35,.4,.83,.6,1.43,.6,19.96-10.02,30.29-15.23,31-15.64,.8-.2,1.66-.47,2.56-.83,.9-.35,1.75-.73,2.56-1.13l2.26-2.86c5.82-3.71,11.83-7.67,18.06-11.88,3.91-3.01,6.82-5.96,8.73-8.87,1.9-2.91,2.86-5.81,2.86-8.72,0-3.71-2.16-7.37-6.47-10.97-4.31-3.61-10.78-7.07-19.41-10.38-7.32-2.91-13.99-5.03-20.01-6.39-6.02-1.35-11.49-2.03-16.4-2.03-6.42,0-11.26,1.13-14.52,3.38-3.26,2.26-4.89,5.59-4.89,10,0,3.41,.25,5.99,.75,7.75,.5,1.76,1.2,2.54,2.11,2.33Z"/>
    <path d="M891.94,1527.78c2.21,4.92,4.11,9.53,5.72,13.84-2.01,2.01-4.66,3.85-7.97,5.5-3.31,1.66-7.17,3.14-11.59,4.45-1.2,.3-2.63,.71-4.29,1.21-1.66,.5-3.54,1-5.64,1.51-2.91,.2-6.39,.5-10.46,.91-4.06,.4-8.85,.95-14.37,1.66-7.82,6.13-14.77,10.96-20.84,14.48-6.07,3.51-11.16,5.78-15.27,6.78l-2.26,1.96c-3.41,1.5-7.55,2.73-12.41,3.69-4.87,.95-10.61,1.78-17.23,2.48-1.2-.3-2.43-1.03-3.69-2.18-1.26-1.15-2.68-2.78-4.29-4.89,1-1.11,2.26-2.55,3.76-4.31,1.5-1.77,3.16-3.86,4.97-6.28,1.5-2.22,3.28-4,5.34-5.36,2.06-1.35,4.69-2.33,7.9-2.94,3.31-.7,6.97-1.71,10.98-3.01,1-.8,2.23-1.63,3.69-2.48,1.45-.85,3.08-1.88,4.89-3.08,2.31-1.1,4.71-2.66,7.22-4.66,2.51-2.01,5.27-4.46,8.28-7.37,4.01-3.91,7.22-7.05,9.63-9.4,2.41-2.36,3.86-3.84,4.36-4.44,.8-1.4,1.66-2.68,2.56-3.84,.9-1.15,2.01-2.23,3.31-3.23,1.4-2.41,3.16-5.44,5.27-9.1,2.11-3.66,4.61-7.9,7.52-12.71,.5-.5,1.13-1.23,1.88-2.18,.75-.95,1.63-1.98,2.63-3.08,2.01-2.31,3.46-5.82,4.36-10.53,.9-4.71,1.35-10.43,1.35-17.15,0-4.61-1.18-9.43-3.53-14.44-2.36-5.01-5.99-10.33-10.9-15.95-4.11-4.61-8.47-8.75-13.08-12.41-4.61-3.66-9.27-6.64-13.98-8.95-3.61-1.81-6.99-3.59-10.15-5.34-3.16-1.75-6.04-3.33-8.65-4.74-1.4,5.02-3.18,11.94-5.34,20.76-2.16,8.83-4.59,19.56-7.29,32.2-3.01,14.25-5.26,25.73-6.77,34.46-1.5,8.73-2.25,14.59-2.25,17.6-.6,2.51-1.1,5.02-1.5,7.52l-6.02,29.64c-3.51,6.82-6.52,11.89-9.02,15.2-2.51,3.31-4.46,4.97-5.86,4.97-.71,0-1.37-.58-1.98-1.73-.61-1.15-1.22-2.99-1.83-5.49l1.83-8.58c-.31-.6-.61-1.45-.91-2.56,.61-6.52,1.17-13.12,1.67-19.79,.51-6.67,1.06-13.32,1.67-19.94,.5-7.42,1.25-14.4,2.26-20.92,1-6.52,2.11-12.54,3.31-18.07l-1.81-7.68c.7-1.9,1.33-4.26,1.88-7.07,.55-2.81,1.03-6.02,1.43-9.63,.4-4.62,.75-8.36,1.05-11.21,.3-2.86,.65-4.84,1.05-5.95,.4-1.3,.83-2.96,1.28-4.97,.45-2.01,.98-4.41,1.58-7.22,.3-1.1,2.05-3.24,5.27-6.4,3.21-3.16,5.27-5.54,6.17-7.15,2.11-.3,3.66-.73,4.66-1.28,1-.55,1.5-1.28,1.5-2.18,0-.7-.58-1.3-1.73-1.81-1.15-.5-2.88-.9-5.19-1.2-1.1,0-2.38-.12-3.84-.38-1.46-.25-2.93-.68-4.44-1.28l-12.34-6.02c-2.62-1.2-4.61-2.41-5.98-3.61-1.37-1.2-2.05-2.46-2.05-3.76,.61-2.01,1.11-4.01,1.52-6.02-.71-2-1.3-3.66-1.75-4.96s-.68-2.31-.68-3.01c0-.9,.23-1.6,.68-2.11,.45-.5,1.08-.75,1.88-.75,2.81,.5,5.27,.96,7.37,1.35,1-.3,2.01-.62,3.01-.98,1-.35,2.01-.73,3.01-1.13,2.41,0,4.56,.18,6.47,.53,1.9,.35,3.36,.73,4.36,1.13,1.4,.7,2.86,1.46,4.36,2.26,1.5,.8,2.96,1.51,4.36,2.11,1.2-.2,2.81-.45,4.81-.75,.6,0,1.15,.1,1.66,.3,1.2,.8,2.66,1.53,4.36,2.18,1.7,.65,3.66,1.23,5.87,1.73,2.41,.4,4.46,.83,6.17,1.28,1.7,.45,3.06,.93,4.06,1.43,10.63,5.52,19.94,10.72,27.91,15.58,7.97,4.87,14.57,9.61,19.79,14.23,8.22,7.13,14.29,14.76,18.21,22.89,3.91,8.13,5.87,16.61,5.87,25.45,0,14.05-4.16,28.96-12.49,44.72-8.33,15.76-20.71,32.32-37.16,49.69,1.4-.6,3.26-1.25,5.57-1.96,2.31-.71,4.97-1.56,7.97-2.57,6.32-1.41,12.84-2.92,19.56-4.53,4.21-1.21,7.77-2.51,10.68-3.92,2.91-1.41,5.27-3.07,7.07-4.98Z"/>
    <path d="M1022.54,1527.93l5.72,13.84c-1.11,1-2.43,2.08-3.99,3.24-1.56,1.15-3.39,2.38-5.49,3.69-2.11,.7-4.64,1.71-7.6,3.01-2.96,1.3-6.35,2.81-10.16,4.51-2.91,1.81-5.29,3.16-7.15,4.06-1.86,.9-3.14,1.35-3.84,1.35-1.3,0-3.69,.55-7.15,1.66-3.46,1.11-8,2.76-13.62,4.97-3.01,1.1-6.2,2.23-9.55,3.38-3.36,1.15-6.85,2.18-10.46,3.08l-9.33-1.96-5.72,2.56c-1.91,0-3.84-.03-5.79-.08-1.96-.05-3.84-.18-5.64-.38-2.91-.1-5.09-.5-6.55-1.2-1.46-.7-2.18-1.7-2.18-3.01l.9-5.72-.9-1.05c-3.41,0-5.69-.45-6.85-1.35-1.15-.9-1.73-3.01-1.73-6.32,0-1.5,.08-4.01,.23-7.52,.15-3.51,.38-8.07,.68-13.69,0-.5,.32-1.55,.98-3.16,.65-1.6,.98-2.76,.98-3.46-.5-1-.8-1.81-.9-2.41-.1-.6-.15-1.15-.15-1.66,.2-3.91,.63-8.73,1.28-14.44,.65-5.72,1.48-12.49,2.48-20.31,1.2-4.71,2.21-10.03,3.01-15.95-.2-4.41-.4-8.93-.6-13.54,3.71-16.65,7.52-33.4,11.44-50.25,.6-3.01,1.73-5.87,3.39-8.58,1.66-2.71,3.63-5.32,5.94-7.82,1-.7,1.66-1.25,1.96-1.66,.5-.9,1.15-2.03,1.96-3.38,.8-1.35,1.75-2.88,2.86-4.59,.6-.4,1.58-1,2.93-1.8,1.35-.8,3.18-1.91,5.49-3.31,1-.8,2.16-1.75,3.46-2.86,1.3-1.1,2.81-2.41,4.51-3.91,3.81-2.31,7.35-4.74,10.61-7.3,3.26-2.56,7.35-4.14,12.26-4.74,2.31-.1,4.61-.23,6.92-.38,2.31-.15,4.51-.32,6.62-.53,2.01-.4,3.76-.65,5.27-.75,1-.2,1.88-.4,2.63-.6,.75-.2,1.43-.3,2.03-.3s1.43,.08,2.48,.23c1.05,.15,2.48,.38,4.29,.68,1.4,.1,2.61,.15,3.61,.15s1.96-.05,2.86-.15c4.01,1.2,6.97,2.96,8.88,5.27,1.9,2.31,2.86,5.07,2.86,8.28,0,6.92-.68,12.06-2.03,15.42-1.35,3.36-3.49,5.04-6.39,5.04-2.21,0-4.72-1.13-7.52-3.39-2.81-2.26-10.38-3.39-22.72-3.39-5.12,1-10.18,2.01-15.2,3.01-.5,.8-1.08,1.41-1.73,1.81-.65,.4-1.23,.7-1.73,.9l-5.27-1.96c-1.61,.6-3.41,2.26-5.42,4.97-2.01,2.71-4.11,6.42-6.32,11.13-.5,1-.88,2.26-1.13,3.76-.25,1.5-.38,3.26-.38,5.27-1.81,7.22-3.61,14.2-5.42,20.91-1.71,7.22-3.08,12.69-4.14,16.4-1.05,3.71-1.68,5.97-1.88,6.77-.3,1-.55,1.96-.75,2.86-.2,.9-.3,1.81-.3,2.71,0,1.3,.25,2.31,.75,3.01,.5,.7,1.25,1.05,2.26,1.05,.9,0,3.08-1.66,6.54-4.96,3.46-3.31,6.04-5.17,7.75-5.57,2.11-.6,4.24-1.25,6.39-1.96,2.16-.7,4.39-1.55,6.7-2.56,.9-.3,3.28-.7,7.15-1.2,3.86-.5,9.25-1.1,16.17-1.81l4.21,1.2,7.97-1.5,4.21,1.96c1,1,1.93,2.23,2.78,3.69,.85,1.46,1.63,3.04,2.33,4.74,0,6.02-.65,10.58-1.96,13.69-1.3,3.11-3.26,4.66-5.87,4.66l-8.28-3.31c-6.82,.7-13.57,1.38-20.24,2.03-6.67,.65-13.47,1.28-20.39,1.88-8.43,1.71-14.9,4.46-19.41,8.28-4.51,3.81-7.02,8.83-7.52,15.05-.1,1.31-.45,3.31-1.05,6.02-.6,2.71-1.3,6.07-2.11,10.08l1.05,4.51c-.9,4.31-1.61,8.38-2.11,12.19-.5,3.81-.75,7.22-.75,10.23,0,1,.15,1.73,.45,2.18,.3,.45,.65,.58,1.05,.38,4.82-.4,8.68-.7,11.59-.9,2.91-.2,4.97-.25,6.17-.15,2.61,.2,5.27,.4,7.97,.6l9.48-.75c1-.2,3.18-1,6.54-2.41,3.36-1.4,6.4-2.11,9.1-2.11,2.91,0,5.84-.3,8.8-.9,2.96-.6,5.79-1.4,8.5-2.41,2.71-1,5.39-2.03,8.05-3.08,2.66-1.05,5.34-2.08,8.05-3.08,1-.3,2.33-.85,3.99-1.66,1.66-.8,3.58-1.86,5.79-3.16Z"/>
    <path d="M1205.36,1527.78l6.02,13.84c-1.41,1.1-4.49,2.05-9.25,2.85-4.77,.8-10.96,1.5-18.58,2.1-8.83,8.61-17.63,15.76-26.41,21.47-8.78,5.71-17.48,9.92-26.11,12.62-2.01,.6-4.31,1.25-6.92,1.96-1.61,0-3.36-.33-5.27-.98-1.91-.65-4.01-1.58-6.32-2.78-2.41-1.5-4.26-2.96-5.57-4.36-1.3-1.41-1.96-2.86-1.96-4.36,0-3.01,1.45-5.92,4.36-8.73,2.91-2.81,7.17-5.47,12.79-7.97,11.23-5.21,22.32-10.48,33.25-15.8,1.6,0,2.76,.33,3.46,.98,.7,.65,1.05,1.48,1.05,2.48,0,2.71-1.93,4.99-5.79,6.85-3.86,1.86-5.79,3.19-5.79,3.99,.7,1,1.3,1.5,1.81,1.5,1.3,0,4.19-1.96,8.65-5.87,4.46-3.91,6.64-6.37,6.54-7.37l-.75-3.46,.3-.6c2.61-2.31,4.54-4.36,5.79-6.17,1.25-1.81,1.88-3.26,1.88-4.36,0-2.51-1.26-5.87-3.76-10.08-2.51-4.21-6.27-9.28-11.29-15.2-3.81-4.61-7.62-8.75-11.44-12.41-3.81-3.66-7.47-6.9-10.98-9.71-1.41-1.2-2.61-2.38-3.61-3.54-1-1.15-1.81-2.23-2.41-3.23-1.11-2.01-1.98-3.66-2.63-4.97-.65-1.3-1.23-2.16-1.73-2.56-.5-.6-1.18-1.33-2.03-2.18-.85-.85-1.88-1.83-3.08-2.93-2.11-2.21-3.74-5.27-4.89-9.18-1.15-3.91-1.73-8.78-1.73-14.6,0-3.81,.53-7.5,1.58-11.06,1.05-3.56,2.58-6.75,4.59-9.55,.3-.6,.6-1.3,.9-2.11,.3-.8,.65-1.71,1.05-2.71,2.31-4.71,6.22-9.8,11.74-15.27,5.51-5.47,12.74-11.26,21.67-17.38,1.2-.6,2.66-1.4,4.36-2.41,1.7-1,3.61-2.31,5.72-3.91,1.2-1,2.53-1.9,3.99-2.71,1.45-.8,3.18-1.55,5.19-2.26,2.71-1.1,5.77-2.31,9.18-3.61,5.01-2.61,9.18-4.51,12.49-5.72,3.31-1.2,5.82-1.81,7.52-1.81,3.31,0,5.79,1,7.45,3.01,1.66,2.01,2.48,4.92,2.48,8.73,0,4.21-.33,7.65-.98,10.31-.65,2.66-1.53,4.44-2.63,5.34-11.84,9.43-21.37,16.53-28.59,21.29-7.22,4.77-12.29,7.15-15.2,7.15-1.41,0-2.51-.4-3.31-1.2-.8-.8-1.2-2-1.2-3.61,0-2.71,2.26-5.69,6.77-8.95,4.51-3.26,6.72-5.74,6.62-7.45l-1.35-.9c-.5,0-1.08,.15-1.73,.45-.65,.3-1.33,.7-2.03,1.2-8.83,7.12-15.47,13.52-19.94,19.18-4.46,5.67-6.7,10.61-6.7,14.82,0,3.31,.58,6.67,1.73,10.08,1.15,3.41,2.83,6.92,5.04,10.53,1.6,2.51,3.94,5.69,7,9.55,3.06,3.86,6.95,8.5,11.66,13.92,6.52,7.52,11.53,13.34,15.05,17.45,3.51,4.11,5.47,6.27,5.87,6.47,2,2.61,3.71,5.22,5.12,7.82,1.4,2.61,2.36,5.12,2.86,7.52,.5,1.91,.85,4.26,1.05,7.07,.2,2.81,.3,6.22,.3,10.23,0,2.36,.35,3.71,1.05,4.06,.7,.35,1.86,.53,3.46,.53,.6,0,1.08-.12,1.43-.38,.35-.25,.73-.58,1.13-.98Z"/>
    <path d="M1217.24,1473.46c0-1.3,.38-2.86,1.13-4.67,.75-1.8,1.88-3.86,3.39-6.17,2.11-3.01,3.69-5.36,4.74-7.07,1.05-1.71,1.63-2.81,1.73-3.31,.5-1.1,1.18-2.56,2.03-4.36,.85-1.81,1.83-3.86,2.93-6.17,1-1.1,2.16-3.48,3.46-7.15,1.3-3.66,2.81-8.5,4.51-14.52,.8-1.6,1.66-3.54,2.56-5.79,.9-2.26,2-4.94,3.31-8.05,.4-2.31,1.15-5.01,2.26-8.12,1.1-3.11,2.51-6.57,4.21-10.38,2.11-3.61,4.31-7.17,6.62-10.68,2.31-3.51,5.62-6.12,9.93-7.82,1.7,1.11,3.01,2.21,3.91,3.31,.9,1.1,1.35,2.16,1.35,3.16,0,2.51-1.13,5.84-3.39,10.01-2.26,4.16-3.39,7-3.39,8.5,0,.8,.45,1.56,1.35,2.26,.8-.4,2.26-1.6,4.36-3.61,2.11-2.01,4.86-4.71,8.28-8.12,2.81-2.61,5.34-4.74,7.6-6.39,2.26-1.66,4.39-2.68,6.39-3.08,1.3-.5,2.96-.95,4.97-1.35,2.01-.4,4.26-1.05,6.77-1.96,1.3-.7,2.36-1.4,3.16-2.11,.7-.6,1.81-1.2,3.31-1.81l2.26,.45c.9,.9,3.41,1.83,7.52,2.78,4.11,.95,6.72,1.43,7.82,1.43,.9,.5,1.96,1.3,3.16,2.41,1.2,1.11,2.76,2.31,4.67,3.61,4.01,2.41,7.75,5.94,11.21,10.61,3.46,4.67,6.59,10.46,9.4,17.38,2.61,6.32,4.59,12.34,5.94,18.06s2.03,11.24,2.03,16.55c0,16.75-2.11,31.3-6.32,43.63-4.21,12.34-10.58,22.47-19.11,30.39l-2.93,2.93c-1.15,1.15-2.58,2.54-4.29,4.14v1.65c-.2,1-.78,2.08-1.73,3.24-.96,1.15-2.28,2.48-3.99,3.99-3.71,3.41-7.47,6.85-11.29,10.31-3.81,3.46-7.73,6.85-11.74,10.16-5.02,4.31-9.78,7.73-14.29,10.23-4.51,2.51-8.88,4.26-13.09,5.27-1.81,1.61-4.04,2.84-6.7,3.69-2.66,.85-5.89,1.28-9.71,1.28-5.62,0-10.18-.38-13.69-1.13-3.51-.75-6.02-1.83-7.52-3.24-.9-.9-1.96-1.8-3.16-2.71-1.2-.9-2.61-2.05-4.21-3.46-1.71-1.3-3.31-3.69-4.81-7.15s-2.86-7.95-4.06-13.47c-.8-4.11-1.43-8.1-1.88-11.96-.45-3.86-.68-7.45-.68-10.76,0-1,.25-2.66,.75-4.96,.5-2.31,.7-4.06,.6-5.27,0-2.31-.1-4.31-.3-6.02,0-1.81,.55-4.66,1.66-8.58,1.1-3.91,1.66-7.02,1.66-9.33,0-.5-.3-1.25-.9-2.26-1.61,1.81-2.76,3.46-3.46,4.97-.6,1-1.31,1.76-2.11,2.26-.8,.5-1.56,.75-2.26,.75-1.1,0-1.98-.45-2.63-1.35-.65-.9-.98-2.26-.98-4.06,0-1.2,.27-3.01,.83-5.42,.55-2.41,.83-4.26,.83-5.57Zm90.28-73.58c-2.41,0-4.87,.3-7.37,.9-2.51,.6-5.07,1.46-7.67,2.56l-14.59,6.47c-1,.5-2.13,1.3-3.39,2.41-1.25,1.1-2.63,2.61-4.14,4.51l-6.92,8.58c-2.21,2.61-4.16,7.37-5.87,14.29-1.71,6.92-3.21,15.95-4.51,27.08-1,8.53-1.71,16.48-2.11,23.85-.4,7.37-.6,14.17-.6,20.39,0,12.74,1.96,22.25,5.87,28.51,3.91,6.27,9.83,9.4,17.75,9.4,3.71,0,7.87-.98,12.49-2.93,4.61-1.96,9.63-4.94,15.05-8.95,4.61-3.41,8.67-6.85,12.19-10.31,3.51-3.46,6.42-7,8.73-10.61,1-1.4,2.58-4.36,4.74-8.88,2.16-4.51,5.14-10.68,8.95-18.51,2.51-5.72,4.46-11.51,5.87-17.38,1.4-5.87,2.11-11.91,2.11-18.13-.6-3.01-1.26-5.97-1.96-8.88l1.05-6.47c-1-1.2-1.86-2.31-2.56-3.31-.3-.8-.55-1.45-.75-1.96-3.11-10.83-7.32-18.98-12.64-24.45-5.32-5.47-11.89-8.2-19.71-8.2Z"/>
    <path d="M1465.36,1527.93c4.01,8.73,6.02,13.34,6.02,13.84-1.3,1.81-2.51,3.71-3.61,5.72-1.1,2.01-2.31,4.06-3.61,6.17-1.2,1.81-2.76,3.36-4.67,4.67-1.91,1.3-4.11,2.41-6.62,3.31-3.61,1.41-7.02,2.78-10.23,4.14-3.21,1.35-6.12,2.69-8.73,3.99-2.91,1.41-6.04,2.33-9.4,2.78-3.36,.45-6.6,.88-9.71,1.28-2.21,.6-4.39,.98-6.55,1.13-2.16,.15-4.14,.23-5.94,.23-1.5,0-2.76-.08-3.76-.23-1-.15-1.86-.43-2.56-.83-.9-.6-1.78-1.21-2.63-1.81-.85-.6-1.68-1.15-2.48-1.65-1.71-1-3.01-1.76-3.91-2.26-1.2-.7-2.08-2.71-2.63-6.02-.55-3.31-.83-8.13-.83-14.45,0-4.42,1.25-11.44,3.76-21.08,2.51-9.63,3.76-16.06,3.76-19.27,0-.7-.1-1.68-.3-2.93-.2-1.25-.3-2.28-.3-3.09,0-2.81,.98-9.21,2.93-19.2,1.96-9.99,2.93-16.94,2.93-20.85,0-1.91-.73-3.29-2.18-4.14-1.46-.85-2.18-2.13-2.18-3.84,0-2.41,.2-5.11,.6-8.12,.4-3.01,1.1-6.32,2.11-9.92,.8-2.91,1.55-5.84,2.26-8.79,.7-2.96,1.4-5.84,2.11-8.64,.7-3.31,1.43-6.66,2.18-10.07,.75-3.41,1.38-6.72,1.88-9.92,.6-2.21,1.55-4.91,2.86-8.12,1.3-3.21,2.86-6.87,4.66-10.98,.9-2,1.71-3.88,2.41-5.64,.7-1.75,1.45-3.63,2.26-5.64,.8-1.6,1.96-3.03,3.46-4.28,1.5-1.25,3.36-2.38,5.57-3.39,1.81-.7,3.41-1.22,4.82-1.58,1.4-.35,2.36-.53,2.86-.53,2.71,0,4.69,.93,5.94,2.78,1.25,1.86,1.88,4.69,1.88,8.5,0,1.2-.08,2.58-.23,4.14-.15,1.56-.53,3.34-1.13,5.34-.4,2.11-.78,3.91-1.13,5.42-.35,1.5-.63,2.71-.83,3.61-.1,2.41-.25,4.62-.45,6.62-.2,2.01-.45,3.86-.75,5.57-.6,1.2-1.41,2.66-2.41,4.36-.7,4.72-1.28,8.65-1.73,11.81-.45,3.16-.68,5.39-.68,6.7,0,4.21-1.08,9.5-3.24,15.87-2.16,6.37-3.24,11.21-3.24,14.52,0,1.41-.25,3.23-.75,5.49-.5,2.26-1.26,4.94-2.26,8.05-1.11,4.21-1.98,7.47-2.63,9.78-.65,2.31-1.08,3.71-1.28,4.21-.2,1.5-.43,3.26-.68,5.27-.25,2.01-.63,4.36-1.13,7.07-2.31,10.93-4.04,19.99-5.19,27.16-1.15,7.17-1.73,12.56-1.73,16.18,0,3.31,.35,5.87,1.05,7.67,.7,1.81,1.75,2.71,3.16,2.71,6.32,0,12.71-.7,19.18-2.11,6.47-1.4,13.21-3.46,20.24-6.17,.8-.1,1.58-.3,2.33-.6,.75-.3,1.53-.6,2.33-.9,1.2-1.4,2.11-2.71,2.71-3.91,1.3-.8,2.46-1.63,3.46-2.48,1-.85,1.85-1.73,2.56-2.63Z"/>
    <path d="M1466.27,1514.09c-.3-1.1-.48-2-.53-2.71-.05-.7-.08-1.3-.08-1.81,0-3.31,.4-6.14,1.2-8.5,.81-2.36,2.01-4.34,3.62-5.94,.4-.4,1.43-1,3.09-1.81,1.65-.8,3.84-1.75,6.55-2.86,1.91-.9,3.44-1.98,4.59-3.23,1.15-1.25,1.78-2.78,1.88-4.59,.3-1.4,.9-3.01,1.81-4.81,.9-1.81,1.96-3.76,3.16-5.87,.4-.6,1.61-4.06,3.62-10.38s4.82-15.6,8.43-27.84c1-3.71,2.01-6.92,3.01-9.63,1-2.71,1.86-5.01,2.56-6.92,3.21-8.52,5.85-14.12,7.91-16.78,2.06-2.66,3.59-4.84,4.59-6.54v-.75l-4.67-7.37,5.87-6.77,7.53-1.5c1.5-.2,2.88-1.6,4.14-4.21,1.26-2.61,3.44-5.47,6.55-8.58,.7-.2,1.83-.83,3.39-1.88,1.56-1.05,3.54-2.53,5.95-4.44,2.11-1.71,3.92-2.96,5.42-3.76,1.5-.8,2.66-1.2,3.46-1.2,2.7,0,4.65,.55,5.85,1.66,1.2,1.1,1.8,2.56,1.8,4.36,0,2.21-1.15,5.42-3.45,9.62-2.3,4.21-3.45,7.42-3.45,9.62,0,1,.22,1.83,.67,2.48,.45,.65,.98,1.08,1.58,1.28l18.02,9.77c1,.4,1.9,1.98,2.7,4.74,.8,2.76,1.45,6.54,1.95,11.35,.6,4.01,1.08,7.34,1.43,10,.35,2.66,.53,4.79,.53,6.39-.7,4.31-1.4,8.67-2.1,13.08,1,5.61,2.1,11.53,3.3,17.74-.6,5.92-1.25,11.93-1.95,18.05,0,.6,.12,1.13,.38,1.58,.25,.45,.62,.73,1.13,.83,1.7,.1,2.98,.55,3.83,1.35,.85,.8,1.28,1.91,1.28,3.31,0,1.81-.28,3.24-.83,4.29-.55,1.05-1.33,1.88-2.33,2.48-1.3,.8-2.33,1.51-3.08,2.11-.75,.6-1.27,1.11-1.57,1.5l1.95,9.34-2.7,21.38c0,1.81-.15,4.12-.45,6.93s-.75,6.07-1.35,9.79c-1,2.71-1.75,4.97-2.25,6.78-.5,1.81-.75,3.01-.75,3.61,.5,1.71,.95,3.51,1.35,5.42-.6,2.71-1.23,5.42-1.88,8.13-.65,2.71-1.28,5.37-1.88,7.98-1.1,3.51-2.55,6.1-4.35,7.75-1.8,1.66-3.9,2.49-6.3,2.49-1.31,0-2.29-.58-2.94-1.73-.65-1.16-.98-2.89-.98-5.2,0-1,.17-2.46,.53-4.36,.35-1.91,.53-3.36,.53-4.37,0-.7-.1-1.65-.3-2.86-.2-1.2-.3-2.26-.3-3.16,0-2.81,.28-7.3,.83-13.47,.55-6.17,.83-10.81,.83-13.93-.5-1.7-1-3.46-1.5-5.27,.3-1.91,.5-3.84,.6-5.79,.1-1.96,.05-3.79-.15-5.5l2.26-4.06-1.96-14-1.05-.45c-.6,0-1.48,.23-2.64,.68-1.15,.45-2.58,1.18-4.29,2.18-1.2,.4-3.09,.83-5.65,1.28s-5.95,.73-10.16,.83c-1.81,.9-3.51,1.71-5.12,2.41-2.31,.5-5.22,1.38-8.73,2.64-3.51,1.26-7.58,2.79-12.2,4.59-2.71,1.3-5.2,2.33-7.46,3.09-2.26,.75-4.14,1.13-5.65,1.13-1.2,0-2.21,.45-3.01,1.35-.8,.9-1.46,2.21-1.96,3.91-.3,1.61-1.03,3.82-2.18,6.63-1.16,2.81-2.69,6.32-4.59,10.54-.4,1.1-.95,2.81-1.66,5.12s-1.5,5.17-2.41,8.58c-.6,1.3-1.3,2.94-2.11,4.89-.8,1.96-1.71,4.24-2.71,6.85,0,1.2-.13,2.68-.38,4.44-.25,1.76-.63,3.79-1.13,6.1-.5,1.41-1.18,3.19-2.03,5.35-.85,2.16-1.93,4.54-3.24,7.15-.8,1.61-1.96,2.79-3.46,3.54-1.5,.75-3.46,1.13-5.87,1.13-1.71,0-3.03-.58-3.99-1.73-.95-1.15-1.43-2.93-1.43-5.34,0-2.61,.3-5.59,.9-8.95,.6-3.36,1.56-7.05,2.86-11.06,1.41-5.32,2.61-9.63,3.61-12.94,1.01-3.31,1.56-5.77,1.66-7.37,.3-.7,.75-1.96,1.35-3.76,.6-1.81,1.31-4.01,2.11-6.62,.9-2.51,1.76-5.37,2.56-8.58l-.75-1.2-4.82,.75c-1.1-.1-1.91-.55-2.41-1.35-.5-.8-.75-1.86-.75-3.16,0-.7,.1-1.48,.3-2.33,.2-.85,.5-1.88,.9-3.08Zm54.67-27.73c2.31,0,5.72-.56,10.23-1.67s7.92-1.66,10.23-1.66c1.4,.3,2.81,.55,4.21,.76,2.51-.5,4.97-1.08,7.38-1.74,2.41-.65,4.87-1.23,7.38-1.74,1-.2,1.76-.58,2.26-1.13,.5-.55,.75-1.28,.75-2.18-.2-3.01-.3-5.06-.3-6.17,0-1.9,.12-4.04,.38-6.39,.25-2.36,.62-4.79,1.13-7.3l-1.81-6.77,.6-6.17c-.4-2.21-.73-4.29-.98-6.25-.25-1.96-.28-3.58-.08-4.89-.2-.4-.55-1.05-1.06-1.96-.5-.9-1.05-1.86-1.66-2.86-1-1.71-2.03-3.33-3.09-4.89-1.05-1.55-2.08-3.13-3.09-4.74-1.41-1.9-2.91-3.31-4.52-4.21-1.61-.9-3.26-1.35-4.97-1.35-2.01,0-4.06,1.61-6.17,4.81-2.11,3.21-4.06,8.08-5.87,14.6-.3,.8-1.13,2.46-2.48,4.96-1.35,2.51-3.29,5.77-5.79,9.78-.4,3.81-1.76,8.55-4.06,14.22-2.31,5.67-5.52,12.31-9.63,19.94-.5,.71-.78,1.31-.83,1.82-.05,.5-.08,1.06-.08,1.66,0,.71,.17,1.24,.53,1.59,.35,.35,.88,.53,1.58,.53,1,0,2.63-.1,4.89-.3,2.26-.2,3.89-.3,4.89-.3Z"/>
    <path d="M1707.76,1527.78l6.02,13.84c-1.41,1.1-4.49,2.05-9.25,2.85-4.77,.8-10.96,1.5-18.58,2.1-8.83,8.61-17.63,15.76-26.41,21.47-8.78,5.71-17.48,9.92-26.11,12.62-2.01,.6-4.31,1.25-6.92,1.96-1.61,0-3.36-.33-5.27-.98-1.91-.65-4.01-1.58-6.32-2.78-2.41-1.5-4.26-2.96-5.57-4.36-1.3-1.41-1.96-2.86-1.96-4.36,0-3.01,1.45-5.92,4.36-8.73,2.91-2.81,7.17-5.47,12.79-7.97,11.23-5.21,22.32-10.48,33.25-15.8,1.6,0,2.76,.33,3.46,.98,.7,.65,1.05,1.48,1.05,2.48,0,2.71-1.93,4.99-5.79,6.85-3.86,1.86-5.79,3.19-5.79,3.99,.7,1,1.3,1.5,1.81,1.5,1.3,0,4.19-1.96,8.65-5.87,4.46-3.91,6.64-6.37,6.54-7.37l-.75-3.46,.3-.6c2.61-2.31,4.54-4.36,5.79-6.17,1.25-1.81,1.88-3.26,1.88-4.36,0-2.51-1.26-5.87-3.76-10.08-2.51-4.21-6.27-9.28-11.29-15.2-3.81-4.61-7.62-8.75-11.44-12.41-3.81-3.66-7.47-6.9-10.98-9.71-1.41-1.2-2.61-2.38-3.61-3.54-1-1.15-1.81-2.23-2.41-3.23-1.11-2.01-1.98-3.66-2.63-4.97-.65-1.3-1.23-2.16-1.73-2.56-.5-.6-1.18-1.33-2.03-2.18-.85-.85-1.88-1.83-3.08-2.93-2.11-2.21-3.74-5.27-4.89-9.18-1.15-3.91-1.73-8.78-1.73-14.6,0-3.81,.53-7.5,1.58-11.06,1.05-3.56,2.58-6.75,4.59-9.55,.3-.6,.6-1.3,.9-2.11,.3-.8,.65-1.71,1.05-2.71,2.31-4.71,6.22-9.8,11.74-15.27,5.51-5.47,12.74-11.26,21.67-17.38,1.2-.6,2.66-1.4,4.36-2.41,1.7-1,3.61-2.31,5.72-3.91,1.2-1,2.53-1.9,3.99-2.71,1.45-.8,3.18-1.55,5.19-2.26,2.71-1.1,5.77-2.31,9.18-3.61,5.01-2.61,9.18-4.51,12.49-5.72,3.31-1.2,5.82-1.81,7.52-1.81,3.31,0,5.79,1,7.45,3.01,1.66,2.01,2.48,4.92,2.48,8.73,0,4.21-.33,7.65-.98,10.31-.65,2.66-1.53,4.44-2.63,5.34-11.84,9.43-21.37,16.53-28.59,21.29-7.22,4.77-12.29,7.15-15.2,7.15-1.41,0-2.51-.4-3.31-1.2-.8-.8-1.2-2-1.2-3.61,0-2.71,2.26-5.69,6.77-8.95,4.51-3.26,6.72-5.74,6.62-7.45l-1.35-.9c-.5,0-1.08,.15-1.73,.45-.65,.3-1.33,.7-2.03,1.2-8.83,7.12-15.47,13.52-19.94,19.18-4.46,5.67-6.7,10.61-6.7,14.82,0,3.31,.58,6.67,1.73,10.08,1.15,3.41,2.83,6.92,5.04,10.53,1.6,2.51,3.94,5.69,7,9.55,3.06,3.86,6.95,8.5,11.66,13.92,6.52,7.52,11.53,13.34,15.05,17.45,3.51,4.11,5.47,6.27,5.87,6.47,2,2.61,3.71,5.22,5.12,7.82,1.4,2.61,2.36,5.12,2.86,7.52,.5,1.91,.85,4.26,1.05,7.07,.2,2.81,.3,6.22,.3,10.23,0,2.36,.35,3.71,1.05,4.06,.7,.35,1.86,.53,3.46,.53,.6,0,1.08-.12,1.43-.38,.35-.25,.73-.58,1.13-.98Z"/>
  </g>
  <g>
    <path d="M1781.28,1287.95c.85-2.5,.38-8.15-2.01-7.06l-1.76,9.58,3.78-2.51Z"/>
    <path d="M1765.48,1269.93c-2.87,4.54-6.47,12.59-4.96,21.47,3.16-9.11,3.73-5.21,7.01-16.11,2.39-1.09,4.08,3.13,3.62,6.66,.88-2.45,3.71,2.16,5.05-3.85-3.04-7.49-6.82-7.77-11.09-1.78-.81-2.15,.11-4.62,.36-6.39Z"/>
    <path d="M1547.45,1199.17l1.29,1.41c-.29-.7-.74-1.14-1.29-1.41Z"/>
    <path d="M1401.06,1191.46c1.09-.38,1.43-1.38,1.37-2.25-.96,.75-1.74,1.46-1.37,2.25Z"/>
    <path d="M1373.63,1185.7c.62,.17,1.11,.2,1.66,.3-.77-.74-1.46-1.08-1.66-.3Z"/>
    <path d="M1547.45,1199.17l-3.35-3.71c-.81,3.03,1.59,2.67,3.35,3.71Z"/>
    <path d="M1731.59,1290.98c.88-.38,1.67-1.21,2.41-2.31-.72,.35-1.42,.63-2.13,.82-.09,.51-.16,.96-.28,1.49Z"/>
    <path d="M1612.47,1209.83l1.12,.41c.72-.89,1.5-2.01,2.32-3.29l-3.44,2.88Z"/>
    <path d="M1657.43,1225.76c-.84-.68-4,6.84-5.62,10.04,1.72-2.94,3-4.18,4.08-4.46,.55-1.45,1.05-3.24,1.54-5.58Z"/>
    <path d="M1724.42,1256.92l1.45-.94c-.38,.3-1,.55-1.45,.94Z"/>
    <path d="M1578.62,1196.67c.24-1.19,.36-2.27,.33-2.93-.27,.98-.36,1.97-.33,2.93Z"/>
    <path d="M261.73,1246.95c.1-.57,.1-.94,.17-1.44-.35,.78-.49,1.35-.17,1.44Z"/>
    <path d="M210.85,1203.73l.77-.43c.08-1.54,.17-3.06,.18-4.57l-.95,4.99Z"/>
    <path d="M1323.95,1189.34c.12,.06,.15,.04,.25,.07,.88-1.31,.26-.91-.25-.07Z"/>
    <path d="M953.67,1186.43c1.44,4.2-1.2,5.88-3.49,7.76-2.31,1.88-4.25,3.97-1.83,8.87,.1-1.63,2.56-4.23,4.47-7.19,1.9-2.96,3.25-6.29,.85-9.44Z"/>
    <path d="M1730.39,1289.79c-.69,.03-1.39,.03-2.08-.12,.92,.36,1.56,.4,2.08,.12Z"/>
    <path d="M948.35,1203.06l-.02,.06,.51,.94c-.21-.42-.32-.65-.5-1.01Z"/>
    <path d="M1233.48,1226.02c.49,1.36,1.08,2.35,1.69,3.28-.21-.81-.65-1.76-1.69-3.28Z"/>
    <path d="M1304.5,1214.48l-2.17-.31c.97,.41,1.64,.42,2.17,.31Z"/>
    <path d="M1199.64,1243.06c-1.02-.53-1.46-1.62-2.66-.4,.16,.4,.31,.68,.49,.95,.37-1.15,.94-1.73,2.16-.55Z"/>
    <path d="M1160.69,1245.27c.22,.62,.5,1.08,.75,1.63,.39-.17,.84-.3,1.24-.45l-2-1.18Z"/>
    <path d="M373.45,1276.33c-.07-2.48,.29-5.05,.76-7.55-1.45,5.64-8.15,5.3-.76,7.55Z"/>
    <path d="M1732.02,1286.42c-.45,2.02-.93,3-1.64,3.37,.51-.04,1-.16,1.48-.3,.25-1.19,.38-2.33,.15-3.07Z"/>
    <path d="M1204.45,1307.2l-7.27-.51c2.06,.6,4.71,.76,7.27,.51Z"/>
    <path d="M686.05,1271.34l-1.08,1.48c.62-.05,1.05-.47,1.08-1.48Z"/>
    <path d="M1176.2,1309.13c-1.38-2.82-2.76-4.44-4.17-5.48-.27,.65-.58,1.18-.75,2.13l4.91,3.34Z"/>
    <path d="M374.23,1268.71s-.02,.08-.02,.08c0,0,.02-.05,.02-.08Z"/>
    <path d="M327.85,1271.34c2.58,1.05,4.19-1.1,5.48-4.28,1.31-3.16,2.36-7.27,4.03-9.92,7.7-.32,.23,8.52,.48,14.49,5.14-1.03,11.96-8.92,15.01-7.25-.42,1.73-.04,2.58-1.58,4.34,1.92-1.53,3.7-1.99,5.5-1.92,1.81,.07,3.58,.65,5.41,1.17,3.65,1.05,7.63,1.91,12.28-2.02,.07,1.04-.04,1.96-.23,2.76,1.03-5.35,2.87-10.49,4.45-14.04,2.74,.85,7.32-4.46,5.85,2.48-1.56-.81-2.69,1.78-4.24,3.53l3.87-1.77c-1,10.38-5.06,1.8-7.72,8.75,3.35-.47,7.36-2.05,10.96-3.03,1.79-.49,3.47-.81,4.9-.75,1.44,.05,2.66,.47,3.5,1.51-1.14,4.81-3.97,4.74-6.13,4.7-2.14-.04-3.66,0-2.23,5.18l-5.43-5.97c-.23,16.45-3.74-2.52-4.76,14.8,4.06,2.98,7,2.76,10.02,2.44,3.02-.32,5.9-.56,10.18,2.26,3.75-4.56,1.77-7.93,5.48-12.5,1.98-.67,3.49-.75,4.67-.4,1.19,.32,2.04,1.08,2.67,2.12,1.26,2.08,1.62,5.3,1.94,8.4,.59,6.21,1.12,11.86,7.76,6.79,2.09-2.86,4.11-7.24,6.26-9.92,2.16-2.7,4.41-3.7,7.16,.29-1.57,3.45-3.17,6.9-4.8,10.34,4.56,1.59,6.71-2.04,8.71-4.93,2.01-2.88,3.83-4.98,7.93-.38-2.47,3.98-7.92,2.24-6.77,3.81,2.31,4.92,3.77,3.59,5.17,1.13,1.41-2.46,2.8-6.01,5.18-5.65l-.63,9.89c2.56,.02,5.23-.31,7.95-.8,2.72-.52,5.5-1.3,8.28-2.05,5.58-1.44,11.16-3.24,16.6-3.59-.84,2.86-2.99,5.76-.69,9.01,3.56-.9,7.12-1.27,10.71-1.04,1.79,.1,3.6,.37,5.39,.66,1.79,.29,3.58,.69,5.37,1.17,7.17,2.01,14.24,5.04,20.87,8.04,1.7-2.8,3.37-5.65,5.02-8.52,1.16,.08,2.19,3.82,.93,5.48,5.17,3.16,.22-5.41,2.64-8.78,2.86-.63,3.9,4.84,2.09,7.42,2.24-1.85,4.92-3.71,7.85-5.46,2.93-1.77,6.09-3.32,9.27-4.37,3.17-1.01,6.38-1.67,9.43-1.48,3.05,.17,5.94,1.2,8.52,3.27l-1.66,2.67c3.89,1.42,5.64-3.17,7.28-7.14,1.66-4,3.19-7.34,7.04-3.82l-1.14,1.66c4.1,.4,8.26,.1,12.36-.47,4.11-.68,8.18-1.5,12.17-2.16,1.99-.35,3.97-.62,5.93-.76,1.96-.14,3.91-.12,5.84,0,3.86,.28,7.71,1.46,11.57,3.77-.29-6.26,3.97-5.9,7.96-6.2,3.96-.34,7.65-1.24,5.68-9.56,5.61,2.7,8.09,4.92,10.93,6.69,2.85,1.76,6.01,2.98,13.26,3.49,3.58-.47,1.31-11.81,4.6-14.95l3.24,8.33c.7-3.61,1.37-7.21,2.01-10.79l6.67,8.88,2.79-3.56c-1.64,.07-4.53-2.53-5.25-5.01,2.09-2.99,6.07-2.89,9.71-1.51,3.68,1.37,7.06,4.02,7.96,6.12l9.87-12.04c1.02,3.46-.63,5.43-1.44,8.22,1.66-5.55,2.83-3.48,3.95-1.29,1.12,2.19,2.21,4.49,3.68-.54-1.53-1.59-1.47-5.14-1.97-6.88,2.46,1.96,5.41,2.27,8.19,1.71,1.4-.29,2.78-.84,4.07-1.55,1.29-.7,2.48-1.54,3.53-2.5l1.06,6.15c4.63-.78,8.94-2.93,13.4-5.2,4.44-2.28,9.06-4.62,14.02-5.76-2.11-1.01-3.6-4.07-4.23-7.19-.63-3.09-.36-6.22,1.06-7.04l3.35,8.94c.64-6.13-3.98-2.77-1.54-10.64,4.17,.18,4.88,9.92,3.43,13.39l3.87-4.23c.84,2.7,.08,4.4,.56,7.97,.3-3.1,2.77-1.15,5.15,.26,2.4,1.41,4.71,2.26,5.19-2.99l.74,2.73c5.01-.74,8.49-2.17,11.87-3.41,1.68-.65,3.3-1.31,5.02-1.9,1.72-.61,3.59-1.03,5.69-1.37-.63-8.13,2.88-6.65,4.94-13.48,3.36,1.08,6.93,3.1,10.59,4.7,3.66,1.61,7.46,2.96,11.32,2.44,2.66-2.14,3.03-3.88,3.01-5.7-.02-1.82-.44-3.74,.77-6.18,.61,7.42,8.45,6.63,4.45,12.02,4.69-.65,7.69-1.13,11.02-2.02,1.66-.47,3.41-1.08,5.5-1.95,2.09-.85,4.54-2.03,7.57-3.39-1.2-3.09-2.65-4.47-1.82-6.97,2.25-1.13,4.91,3.31,4.45,6.87l-.6,.75c1.73-1.33,3.51-1.96,5.31-2.09,.9-.07,1.81,0,2.72,.16,.9,.18,1.8,.49,2.71,.86,3.6,1.54,7.19,4.27,10.57,7.05,3.37,2.79,6.61,5.36,9.7,6.46,3.08,1.13,6.07,.64,9.17-2.87l-.68,.69c3.86-2.15,7.79-4.22,11.82-6.3,2.32,1.1,1.33,2.33,.14,3.94-1.2,1.61-2.59,3.61-1.24,6.21,3.3-2.52,6.1-3.45,8.54-3.54,2.43-.04,4.49,.81,6.45,1.73,1.97,.9,3.81,2.03,5.85,2.52,2.04,.51,4.3,.35,7.12-.95,.57,11.54,6.49,12.86,13.35,13.76,6.78,.8,14.57,1.26,16.82,9.6l1.31-5.02c4.33-3.75,1.98,3.94,3.39,5.76,1.21-3.83-1.05-5.39,1.55-7.39,11.88,1.3,22.7,7.83,33.97,15.5,11.27,7.67,23.26,16.46,36.33,22.26,4.84,1.94,7.84-4.14,10.75-8.94,2.95-4.78,5.68-8.18,10.47-.84-1.8,2.9-3.62,5.74-5.48,8.61,2.8-.82,5.52-1.39,8.18-1.69,2.66-.31,5.26-.3,7.83-.2,2.57,.08,5.1,.35,7.63,.71,2.51,.39,5.02,.78,7.52,1.17,2.5,.4,4.99,.81,7.49,1.14,2.49,.29,4.98,.46,7.47,.48,2.49,0,4.99-.08,7.45-.56,2.47-.46,4.94-1.18,7.38-2.24-1.27,2.13-1.5,4.99-3.37,4.83,1.78,3.6,5.58,3.97,8.9,2.64,3.32-1.36,6.17-4.33,6.31-7.16,2.92,.76,.48,5.16,2.21,8.11,1.95,2.11,4.6,.05,6.91-1.82,2.33-1.84,4.37-3.33,5.39,.15,.35,1.13-1.16,2.24-1.91,2.77,2.67-3.33,12.22,1.01,9.72-7.05,3.53,1.89,6.92,.94,10.1,.13,1.59-.41,3.13-.79,4.64-.77,1.51,0,2.99,.36,4.44,1.5,1.7-4.56,4.74-3.6,7.49-3.09,2.74,.53,5.18,.5,5.39-5.87,.2,13.12,13.31,9.78,17.22,3.08-1.15,4.09,4.35,3.71,3.12,9.34,5.25-.63,9.8-3.78,8.04-10.32,2.86,3.59,5.45,4.44,7.78,4.01,2.34-.47,4.42-2.28,6.36-3.9,1.94-1.64,3.74-3.08,5.62-2.99,1.88,.07,3.84,1.73,6.15,6.41,14.34-9.92,26.98-18.25,39.05-25.37,1.79,6.29-1.8,7.77-5.23,9.27-3.48,1.43-6.82,2.89-4.69,9.42,5.86-4.42,9.63-10.01,13.58-14.52,1.95-2.29,3.95-4.32,6.28-5.85,2.31-1.55,4.92-2.63,8.19-2.98,1.84,.27,1.91,1.76,1.47,3.5-.45,1.73-1.41,3.71-1.56,4.95,10.29-9.49,23.38-7.76,30.63-18.3,.42,1.14-.16,2.81-.8,4.14,.9-.59,2.22-.59,3-1.13,.77-.53,1.02-1.59-.18-4.32l-1.29,2.25c-6.31-6.79,1.09-19.81-.16-24.2,2.87,17.14,11.27,.29,13.69,22.41,.84-1.52,1.42-4.75-.25-8.37,2.26,.41,3.62,2.38,3.35,7.3,5.56-5.44,1.08-10.62,7.28-12.59,.91,2.74,.03,4.21,.52,7.62,.61-3.17,1.26-6.36,2.51-8.69,1.25-2.32,3.13-3.72,6.1-3.39,.2,1.76,1.46,3.73-.09,4.17,1.08-.45,2.05-1.09,2.96-1.86,.91-.74,1.76-1.6,2.57-2.54,1.63-1.86,3.12-4.08,4.75-6.01,1.62-1.94,3.36-3.7,5.41-4.82,2.05-1.12,4.44-1.46,7.27-.72-.28,12.9,4.31,3.23,7.01,13.78l4.67-4.18-3.13-4.75c2.39-.34,4.25-2.74,6.21-4.53,1.94-1.83,3.91-3.24,6.25-1.82l-2.89,4.98c2.87-1.16,5.77-2.33,8.72-3.35-1.89-1.13-3.82-2.31-5.73-3.36,2.06-3.16,1.48-6.49,1.21-8.84-.27-2.34-.17-3.63,3.4-2.57-1.23,1.29,5.11-.56,8.41,5.53,0,0-.02,0-.01,.03,2.09-3.67,4.35-7.53,8.34-5.22,1.25,3.36,.26,12,1.08,14.24,.79-4.66,3.67-5.45,6.61-6.36,2.95-.89,5.97-1.91,7.29-6.78-.93,2.3-.67,7.97-.28,9.13l1.68-7.43c2.45,2.26,2.83,3.38,2.65,7.92,7,1.07-2.78-13.64,5.78-8.05-.64,.62-.29,1.71-1.61,2.88,4.21,1.33,8.21,.18,12.17-.99,1.98-.57,3.94-1.14,5.89-1.33,1.95-.14,3.89,.07,5.81,1,2.14,10.92-6.7,2.58-4.17,11.81,2.72-.46,5.5-1.49,8.32-2.73,1.41-.61,2.84-1.31,4.26-1.96,1.42-.64,2.85-1.3,4.28-1.92,2.86-1.23,5.74-2.34,8.55-2.93,2.8-.52,5.56-.55,8.17,.27l-1.9-1.33c1.26-7.62,3.17-5.59,5.43-2.51,2.26,3.12,4.79,7.34,7.82,3.98-1.43,1-2.54,8.33-2.03,6.65,1.72,.79,3.51,1.02,5.41,.91,1.89-.07,3.89-.53,6.05-1.19,4.34-1.39,9.26-3.35,15.13-4.87l-2.01,3.68c1.81,2.03,4.41,3.12,7.11,3.91,1.35,.41,2.72,.75,4,1.19,1.27,.46,2.46,.97,3.46,1.66,2.16-3.56,4.59-2.36,4.32-8.3,.56,1.57,1.15,2.91,1.77,4.06,.62,1.18,1.26,2.16,1.94,2.98,1.36,1.63,2.84,2.6,4.43,3.12,3.16,1.08,6.74,.44,10.39-.32,7.22-1.41,14.81-3.08,17.6,7.92-1.44-.48-4.54,2.03-3.42,2.46,3.76,.08,7.54,.13,11.37,.32,1.57-6.58,.11-4.3-.23-10.01,2.69-3.23,6.73-4.98,9.33-4-6.28,2.37-3.81,10.04-3.2,14.32,.41-2.04,1.92-3.89,2.51-5.9,1.03,13.22,5.83-12.21,10.3-1.79l-1.69,3.11c3.43-.57,7.72-3.86,10.35-1.73-1.63,7.7-4.3,2.18-6.86,8.02,4.4,1.28,13.74-10.33,14.75-1.64-2.58,1.3-5.21,.32-7.79,1.6,.82,10.12,2.2,8.16,4.8,10.74l-.23-.31c1.92,2.23,3.92,4.44,5.9,6.67l-1.01-3.03c6.3-8.39,9.34-8.27,12.36-7.23,2.98,1.06,6.06,2.94,11.79-2.09-5.53,4.73-6.46,6.33-6.35,7.79,.1,1.45,1.2,2.75-.48,6.82,.58,1.49,1.39,3.13,1.87,4.66,.49,1.51,.63,2.92-.18,3.96,2.94-2.79,4.03-.98,5.47,.51,.72,.74,1.52,1.41,2.66,1.36,1.14-.07,2.62-.84,4.65-2.95-.55,2.79,3.89,1.4,1.14,8,5.48-.75,.15-5.07,1.55-8.36,1.25-.9,2.4-1.32,3.49-1.39,1.1-.09,2.14,.16,3.15,.65,2.03,.97,3.98,2.87,6.09,4.68,4.23,3.48,9.23,6.75,15.91,1.21,5.16-1.75,8.52-5.04,11.71-8.25,3.19-3.22,6.19-6.28,10.63-8.15,1.09,2.42,.2,4.9-1,6.77-1.2,1.87-2.7,3.14-2.7,3.14,2.02,2.36,3.95,3.46,5.96,3.64,2.01,.18,4.1-.54,6.44-1.97-1.14,2.37-.47,4.53,.56,7.83,3.64-.39,3.36-10.02,7.59-5.43-1.06,3.07-2.53,7.99-4.57,10.97,2.24-1.1,4.52-2.82,6.77-4.64,2.25-1.82,4.5-3.63,6.72-4.75,.83,4.99-3.09,7.29-4.89,10.39,2.55-.94,5.81-1.84,8.65-3.47,2.85-1.63,5.26-4.1,6.17-7.95l-2.94-2.9c1.75-.31,.58,6.73-.8,8.1-4.51,5.88-5.85-3.09-5.88-5.93l3.14-1.61c-1.08-8.38-4.05-7.92-7.63-5.53-.89,.6-1.82,1.31-2.76,2.04-.94,.7-1.89,1.42-2.83,2.03-1.87,1.24-3.69,2.09-5.2,1.7,1.25-3.92,2.48-7.84,3.68-11.76-2.34,3.13-4.74,6.25-7.18,9.36-.49-1.62-.77-4.15-.53-6.44,.24-2.29,.99-4.34,2.55-5.1-1.79-3.15-2.82-2.25-3.8-1.37-.97,.87-1.88,1.66-3.27-1.86-.26-1.08,0-1.63,.42-2.06l-4.57,3.04c1.15-2.41,.5-8.52,2.75-6.48-3.15-3.86-6.3-2.17-8.98-.55-2.65,1.58-4.79,3.03-5.33-1.76l.73-.62c-5.3,1.06-6,3.18-6.49,6.14-.52,2.96-.79,6.77-5.75,11.11-.3-7.48-.46-15.01-.52-22.48l-2.91,8.42c-.96-.54-2.85-1.64-1.66-5.01-5.22,5.01-.23,3.92-3.8,8.95-1.55-4.56-5.17-4.5-8.17-5.09-2.97-.66-5.28-1.91-3.83-8.83-3.67,5.94,3.25,6.33-3.33,9.31,1.39-7.48-.26-7.29-2.63-6.3-2.35,1.01-5.47,2.89-6.6-1.16,3.82-6.96,6.62-1.76,4.45-9.76-3.36,5.86-5.3,4.42-6.86,1.71-1.58-2.7-2.77-6.77-5.01-6.23-3.78,9.86-9.47,1.22-16.91,2.04,1.67-3.13-9.48-9.98-13.96-15.88l.83-1.58c-5.06,9.45-10.37,5.17-15.62,5.53,2.45-5.88,4.17-7.93,7.63-9.65l-4.27-1.58c-2.23,2.81-4.17,3.98-7.35,4.1l3.86-7.06c-2.97-.85-6.68,.28-10.32,.71-1.84,.23-3.66,.28-5.38-.21-1.72-.49-3.35-1.5-4.85-3.35-1.34,3.47-1.43,8.86-2.41,13.65-.97,4.79-2.79,8.99-7.27,10.18,.93-3.91,2.68-10.56,5.21-11.49-.83,.29-3.36,2.44-4.18,.38,1.69-1.83,3.39-3.65,5.12-5.47-2.5-3.9-3.45,4.83-5.93,3.39,1.72-5.48-.83-4.5,.86-8.74,.88-.34,1.71,2.98,3.41,1.16-2.75-1.98-5.62-6.24-5.72-10.81-.61,3.21-2.1,7.42-4.58,7.48-6.05-1.17-.25-7.19-3.07-10.96-2.45,3.49-5.36-1.53-7.45,6.81-1.75-.44-1.17-4.4-1.35-6.81-2.01,1.5-5.74,.88-8.78,1.25-3.05,.37-5.32,1.56-4.43,6.37l.68,.74c-.18,.15-.36,.12-.58,.27h.02s-.02,0-.02,0c-2.94,1.63-5.61,1.82-8.2,1.43-2.59-.41-5.08-1.57-7.57-2.89-2.49-1.32-4.99-2.65-7.53-3.6-2.54-.93-5.13-1.44-7.76-.74l.32-2.85c-3.22,1.33-6.63,1.49-9.86,2.03-3.22,.63-6.24,1.63-8.57,4.56-1.76-.13-3.89-5.5-2.94-8.86-4.79,1.9-5.38,5.14-11.91,.14,4.86-4.81-1.47-4.49,4.94-3.47-5.96-2.7-7.33-7.4-13.97,.38,2.36-7.3-4.48-9.3-7.41-7.14l4.24,5.3c-3.25,1.03-6.07,.32-8.96-.23l1.53-9.67c-3.17-2.9-6.21-3.08-9.08-2.03-1.44,.53-2.83,1.36-4.18,2.32-1.36,.99-2.69,2.11-3.98,3.16-5.21,4.22-9.8,7.36-15.26-2.07-2.9,6.96,7.16,4.28,4.61,12.36-2.89-.46-6.05-4.04-8.79-7.49-2.73-3.46-5.02-6.77-5.96-6.68-4.3-2.27-5.9,1.42-7.42,5.33-.77,1.95-1.53,3.95-2.63,5.29-1.11,1.37-2.56,2.09-4.75,1.45,1.51,3.27,3.5,12.28-2.01,16.25-2.86-.3-5.09-3.58-6.25-7.24-1.15-3.66-1.18-7.69,.46-9.34,1.35-.5,2.18,.53,2.28,1.68,1.69-1.47,3.99-3.26,1.17-6.66l-.3,3.51c-.84-.78-1.98-1.28-3.19-1.67-1.21-.36-2.51-.62-3.66-.97-2.31-.7-4.09-1.75-3.58-4.69-3.98,3.95-.98,5.87,2.56,7.11-4.15-1.86-7.13-1.46-10.07-.69-1.47,.37-2.94,.78-4.56,1-1.63,.21-3.41,.22-5.52-.15,1.64,1.58,3.58,5.29,2.36,5.52-6.05-.83-6.95,1.04-7.18,3.51-.24,2.46,.14,5.51-3.34,7.19-5.5-4.01-1.57-12.53-8.03-6.34-5.54-2.11-3.44-8.54-2.23-11.75-2.69,4.16-6.2,4.07-9.73,2.92-3.49-1.11-6.93-3.2-9.15-3.15l2.9-3.83c-1.75,2.28-3.59,2.81-5.46,3.39l4.24,5.88c-2.54-.48-4.34,.13-5.21-2.61-.74,5.02,5.24,10.31,2.99,17.59-1.93-1.18-3.73,.4-5.48,1.28-1.75,.88-3.52,1.02-5.55-3.09,4.8-.09,3.79-2.17,2.43-4.72-1.35-2.55-3.14-5.6,.38-7.6-1.12,1.52-2.83,2.12-5.34,1.74-.66-.85-.35-1.89,.05-2.59-11.24-4.6-.31,11.1-8.75,14.07-.79-5.21-5.47-8.36-6.41-6.81,3.37-1.21,4.68,7.39,3.11,12.24-6.72-1.67-4.54,5-7.41,5.64l3.76,.53c.87,5.2-1.95,5.6-4.89,8.52-1.8-3.6,2.2-3.85,.27-4.98-.3,4.99-3.37,3.69-6.77,2.13-3.42-1.55-7.06-3.44-8.65,.46-3.74-2.28-3.76-8.91-6.74-10.3-1.73,4.23-3.96,3.2-6.24,2.01-2.27-1.21-4.57-2.56-6.65,1.14,4.05,5.87,3.85,4.2,1.74,12.07,1.42-1.32,2.85-2.73,4.26-4.1l4.22-4.15c-1,3.98-2.01,7.88-3.09,11.85,3.16-1.03,5.05-6.46,7.32-6.09-1.16,6.48-1.47,4.76,2.07,9.56-3.99-4.02-5.55-1.87-7.12,.76-1.55,2.64-3.12,5.66-6.76,3.19l-5.36-16.27c-4.8-2.36-7.19,.64-9.89,4.25-1.34,1.79-2.75,3.62-4.49,4.98-.87,.67-1.83,1.22-2.89,1.55-1.07,.3-2.25,.38-3.57,.16l3.82,2.1c.25,3.45-1.2,4.06-2.98,4.24-1.8,.17-3.91-.04-5.17,1.64-1.03-5.64-3.45-7.23-5.53-10.42,.55,2.05-1.2,2.35-2.89,3.55-1.69,1.22-3.38,3.21-2.72,8.92-1.95-2.19-3.86-4.38-5.73-6.58-4.13-.8-5.69,3.5-7.29,8.05-.8,2.26-1.6,4.58-2.73,6.25-1.13,1.65-2.58,2.69-4.62,2.46,1.55-6.47-2.46-10.05,2.05-15.11-2.54,.26-4.94-.49-4.49,3.45-.97-1.68-2.49,.46-4.19,2.38-1.71,1.87-3.61,3.52-5.06,.93-.85,2.61-.65,8.61-3.67,8.43-.42-1.12-.23-2.82-.23-2.82,.12,1.4-.96,2.49-1.69,3.94-.73,1.45-1.11,3.32,.47,6.39-2.45-4.31-5.06-6.29-7.77-7.07-1.35-.39-2.73-.47-4.12-.4-1.39,.07-2.8,.24-4.2,.46-2.8,.43-5.57,.94-8.11,.4-2.54-.54-4.87-2.24-6.71-6.04-2.88,.99-6.08,2-9.23,2.75-3.15,.71-6.24,1.24-8.89,1.41,.37-1.71,.07-2.85,1.06-2.25-7.14-5.4-4.9,16.37-13.17,10.12-3.87-9.41,4.64-4.83,2.12-8.43-.22-9.44-2.67-8.89-5.76-7.38-3.06,1.47-6.82,3.79-9.14-1.87l1.39-1.02c-1.84-3.34-4.47-1.68-7.51,.42-3.04,2.12-6.57,4.88-9.89,3.83,0,0,.52-1.61,.36-2.82-2.83,4.48-6.61,7.22-10.59,9.06-3.96,1.75-8.09,2.57-11.67,3.34,3.34-6.91,3.65-3.36,3.68-10.94-1.54,.29-1.84,3.29-2.54,6.36-.69,3.06-1.77,6.18-4.96,6.64-1.22-4.35-4.77-8.59-3.64-16.55,1.81,.24,3.64,.41,5.45,.62-.4-5.34-2.1-5.57-4.06-4.78-1.94,.75-4.16,2.53-5.36,1.34l1.35-4.33c-4.16-.14-6.93,2.43-9.79,4.72-1.43,1.15-2.88,2.21-4.51,2.8-1.64,.59-3.45,.62-5.6-.2l-.03,3.56c-4,4.72-4.63,2.89-5.09,.73-.47-2.19-.77-4.71-4.46-1.47l2.03-11.36c-1.98,.85-5.58,2.53-9.55,4.02-3.97,1.52-8.3,2.66-11.56,2.64,3.11-3.38,6.68-5.5,10.16-7.19,3.48-1.73,6.87-3.06,9.66-4.77-1.51-.56-4.16-1.24-6.88-1.19-2.73,0-5.54,.73-7.32,3.09,1.64-.58,4.15-2.65,4.79-.54-3.41,3.54-6.79,5.9-10.11,7.02-3.32,1.09-6.57,1.01-9.71-.33,4.57-10.14,1.04-13-3.53-15.66-4.54-2.64-10.15-5.06-9.34-14-7.33,1.52-12.81-1.57-18.52-5.48-1.43-.98-2.85-2.02-4.31-3.05-1.48-1.02-3-2.03-4.58-2.98-3.12-1.93-6.57-3.5-10.39-4.36,.11,18.14-4.45-.9-8.64,16.41-3.65,.14-4.83-.5-4.82-1.7-2.4-4.41-4.98-8.63-7.64-12.97-1.28-5.65,4.27-2.94,4.95-6.88-3.72-1.65-4.1-3.69-4.06-6.05,.04-2.35,.52-5.03-1.63-7.92-.36,6.42-4.78,8.23-8.8,4.86,1.58,3.14,3.1,6.28,4.58,9.4-3.24,1.69-5.2,1.51-6.59,.37-1.39-1.1-2.2-3.15-3.04-5.21-.83-2.06-1.69-4.13-3.15-5.24-1.46-1.12-3.54-1.28-6.72,.6,1.48-1.64,2.98-3.3,4.5-4.92-3.19,1.15-8.54,.23-14.03,.79-2.74,.32-5.51,.99-8.04,2.42-1.26,.71-2.46,1.62-3.56,2.77-1.1,1.16-2.1,2.59-2.97,4.29-.76-2.13-1.6-7.08,1.04-8.12-3.34-.86-7.02-.53-10.74,.3-3.71,.92-7.47,2.37-11.09,3.61-3.63,1.2-7.07,2.42-10.26,2.62-3.18,.25-6.1-.49-8.61-2.7l1.11-4.32c-2.52,1.22-4.45,8.09-7.47,3.69,.18-1.79,1.05-4.31-.09-4.58-.67,.74-2.33,2.62-4.22,3.99-.94,.69-1.95,1.24-2.92,1.48-.97,.25-1.91,.17-2.72-.45l2.79-4.91c-6.51-2.75-11.5,.25-16.08,4.41-4.61,4.25-8.77,9.5-14.01,11.27-.34-6.37-3.11-10.43-6.53-13.09-3.42-2.67-7.44-3.97-10.17-4.71l.02-1.82c-3.94,0-7.51,.77-10.84,2.15-3.34,1.43-6.42,3.36-9.4,5.49-5.97,4.39-11.47,9.56-17.96,13.42-1.41-1.49-2.97-2.61-4.63-3.43-1.66-.8-3.43-1.26-5.29-1.53-1.86-.26-3.8-.3-5.79-.2-1.99,.12-4.02,.44-6.1,.78-4.16,.66-8.37,1.73-12.59,2.37-4.21,.65-8.34,1-12.43,.26,2.82,1.51,2.75,9.56,.82,11.58-1.98-.69-3.43,2.14-4.77,3.74-1.31,1.62-2.55,2-4.29-3.6l1.18-.19c-3.09-4.99-6.01-6.17-8.8-5.91-2.77,.26-5.3,1.98-7.82,2.76l4.72,14.59c-10.24-7.97-17.63-2.81-23.75,2.15-6.17,4.97-11.53,9.83-18.09,1.63-1.37,4.55-4.78,5.81-6.22,10.31l-2.54-7.81c-2.02,.13-3.78,.25-5.42,.43-1.63,.14-3.13,.33-4.65,.67-3.04,.72-6.12,1.78-10.39,4.04l.27-6.18c-2.55,.49-2.61,6.53-2.72,12.83-.1,6.24-.24,12.72-2.74,13.51l-4.26-11.61c-2.3,.54-4.72,.51-7.21,.14-2.48-.35-4.98-.87-7.39-1.06-2.43-.23-4.8-.18-7.02,.75-1.12,.45-2.19,1.15-3.25,2.06-1.06,.91-2.09,2.1-3.09,3.62-.08-1.8-.26-5.35,1.19-6.03-1.11,.06-2.8-.29-4.64-.59-1.84-.3-3.81-.53-5.59-.35-3.51,.4-6.1,2.88-4.54,11.18-.57-5.47-3.01-5.42-6.03-3.55-3.01,1.9-6.58,5.85-9.14,8.42l.39-8.11c-3.94,10.51-4.01,13.32-10.34,16.44-1.56-.99-1.52-6.41,.55-4.43-2.58-2.01-3.5-.07-4.59,1.84-1.08,1.92-2.33,3.83-5.46,1.72l2.22-5.19c-5.21-.56-4.75,2.21-7.64,8.26-3.34,3.26-10.04-2.15-10.64-9.45-.76,4.42-3.8,10.42-6.84,8.16-.33-2.78,.84-4.44,1.43-5.26-4.25-2.92-7.53-.7-10.54,1.23-2.99,1.92-5.68,3.43-8.39-.72,.06-2.68-.23-4.04-.66-4.88,3.39,.32,6.44,.71,8.6,1.03,2.16,.29,3.4,.6,3.13,.88,.3-7.44-5.01-8.96-.23-19.07-2.28,2.76-5.4,6.98-8.67,10.09-3.26,3.1-6.68,5.09-9.15,3.05-.19-.74-.37-1.47-.46-2.63l.61-.78c-1.13-.86-2.27-.27-3.41,.88-1.55-1.38-2.5-2.38-4.08-2.65,.06-6.18-5.59-4.06-8.17-4.68-.87,8.11-4.21,6.36-1.85,13.45-.35-.64,.64-.9,2.48-1.01,.44-.19,.93-.25,1.25-.69-.08,.22-.18,.46-.27,.69,1.8-.03,4.11,.15,6.76,.27-2.58,3.94-5.29,7.03-7.73,2.18-2.06,5.02-4.37,10.16-5.62,12.55-1.14-5.88-3.21-10.69-4.94-14.83-1.74-4.15-3.13-7.7-2.97-11.27-2.16,.75-4.44,1.08-6.78,1.39-2.35,.34-4.69,.46-7.07,1.03-4.76,1.15-9.46,3.38-14.02,10.15-2.85,1.31-1.51-4.98-1.7-7.52,1.72-1.1,3.2-.44,4.48-2.4-2.76,1.34-6.19,.69-9.47,1.05-3.27,.31-6.38,1.46-8.57,6.39-2.18-3.22-.58-5.29,.46-6.69,1.04-1.42,1.56-2.03-2.62-2.54l2.09-2.74c-2.46-5.35-5.67-6.89-9.47-6.79-3.76,.17-8.11,1.97-12.5,3.63-8.83,3.25-17.79,5.7-22.65-8.05,.74,1.74,1.12,2.57,.71,4.33-8.36-8.54-20.06-10.65-31.59-12.86-5.77-1.1-11.49-2.26-16.9-4.34-2.69-1.09-5.34-2.33-7.88-3.98-1.27-.83-2.52-1.76-3.74-2.8-1.23-1-2.44-2.12-3.63-3.37-2.84-2.21-4.82-1.72-6.66-.08-1.85,1.65-3.58,4.38-5.96,6.57l.27-8.86c-2.84,2.89-5.61,5.76-8.34,8.77-5.18,2.93-8.26-3.06-12.07-8.08-1.89-2.53-3.93-4.88-6.35-5.81-2.41-.88-5.21-.32-8.51,2.87l.97,6.02c-2.05-.73-5.47-.27-8.2-.25-2.73-.02-4.79-.71-4.21-4.07-.51,1.04-1.78,6.03-3.23,2.85l.15-4.58c-3.64,2.34-7.21,4.88-10.74,7.35-3.91-1.81-3.47-6.34-3.48-10.59,0-2.12-.13-4.18-1.01-5.78-.88-1.62-2.51-2.76-5.5-3.01-2.25,.85-5.46,4.15-7.85,7.62-2.4,3.47-3.98,7.11-3.17,8.65,1.75,.25,4.45,2.91,4.53,7.5l-3.91,2.34c-.36,6.74-1.27,13.57-.92,19.9,.35,6.32,1.93,12.16,6.34,16.93,2.11-2.73,4.24-5.45,6.41-8.18,.63,2.18,1.24,4.38,1.84,6.6-1.74,.06-3.5,.22-5.25,.32,2.85,6.18,4.81,.76,7.05-2.87,.39,3.5,1.17,5.97,2.34,7.31,2.16-4.22,4.39-8.43,6.66-12.64,.46,5.3-3.23,10.35,.66,13.44,1.55-2.89,1.06-5.9,.75-8.63-.3-2.73-.4-5.19,2.1-6.99,2.64,6.32,1.39,11.26,5.23,6.26,.24,3.5-.66,5.66-2.12,7.1,1.66-1.98,3.73-2.28,5.64-2.97,1.9-.65,3.64-1.67,4.77-5.17,1.18,3.92,3.79,3.68,5.94,4.04,2.13,.39,3.75,1.44,2.83,7.76,1.26-2.91,6.54-9.31,9.44-9.42-3.61,7.18-1.06,7.8,1.85,8.64,2.93,.84,6.28,1.86,4.19,9.85,2.94-6.44,6.5-7.31,10.27-7.37,1.86,.03,3.78,.27,5.74,.12,.98-.07,1.97-.24,2.97-.58,1-.33,2.01-.79,3.04-1.52-.62,.97-1.85,2.94-2.24,2.11,3.3,2.03,3.29,6.3,4.84,9.38,3.37-10.88,9.66-11.78,14.81-17.56,.66,5.95-1.05,8.91-3.04,11.73-2,2.79-4.29,5.51-5.13,10.74,2.38-8.94,10.14-6.45,11.02-14.22,1.27,7.5,1.9,4.09,.6,13.59,2.56-6.63,3.54-6.94,4.56-6.5,1.03,.45,2.08,1.59,4.95-1.99,2.54,8.38-3.29,12.96,3.52,10.86,.51,2.52-.87,4.5-2.37,5.86-1.5,1.36-3.08,2.13-3.08,2.13Zm153.43,17.26c0,.08-.01,.13-.01,.16-1.33,.07-2.47,.12-3.19,.16,.67-.05,1.59-.12,3.21-.32Zm12.8,.78c-1.54-.42-3.47-.61-5.52-.69-.25-2.83,.44-5.7,1.69-5.46-.82,1.83,2.06,3.65,3.83,6.15Zm-20.3-58.48c1.87-.92,2.26,.74,2.32,2.43-.84,.03-1.84,.18-3.17,.58-.09,.3-.24,.63-.33,.96,.36-1.52,.73-2.95,1.19-3.97Z"/>
    <path d="M469.28,1241.11c-.28,.15-.47,.47-.82,.5,.27,.76,.54,1.41,.83,1.95,.33-.83,.66-1.65,.96-2.45-.33,0-.67-.02-.98,0Z"/>
    <path d="M1548.97,1200.81l-.23-.23c.16,.36,.3,.71,.33,1.24-.1-.42-.05-.67-.1-1.01Z"/>
    <polygon points="674.24 1280.22 673.49 1278.29 673.07 1280.39 674.24 1280.22"/>
    <path d="M1605.25,1246.78c-.14,.71-.18,1.5,.05,2.26,.16-.51,.08-1.33-.05-2.26Z"/>
    <path d="M1631.61,1259.19c.94,1.42,1.93,2.81,2.9,4.22-1.13-2.2-2.09-3.4-2.9-4.22Z"/>
    <path d="M1652.03,1270.96c.74-1.26,1.16-2.25,1.55-3.16-.01-.03-.02-.03-.03-.06l-1.53,3.23Z"/>
    <path d="M1326.11,1264.58c-.26,.15-.49,.36-.66,.66-1.27,2.21-.24,1.13,.66-.66Z"/>
    <path d="M1417.65,1220.6c-.93,1.56-1.81,3.15-2.82,4.2,1.85,.37,3.26,.41,2.82-4.2Z"/>
    <path d="M1205.25,1307.26c0-.05,0-.07,0-.14-.27,.06-.52,.05-.8,.08l.8,.07Z"/>
    <path d="M1410.15,1225.26c2,1.39,3.43,.85,4.68-.45-1.52-.35-3.36-.96-4.68,.45Z"/>
    <path d="M1752.56,1293.35l1.11,.38c0-.54,.1-.97,.2-1.3l-1.31,.93Z"/>
    <path d="M1753.88,1292.43l1.3-.91c-.58-.02-1.08,.02-1.3,.91Z"/>
    <path d="M1757.9,1289.57l-2.72,1.95c.91,.06,2.03,.36,2.72-1.95Z"/>
    <path d="M1721.75,1286.84l-.73,2.89c.27-.58,.52-1.52,.73-2.89Z"/>
    <path d="M1712.18,1286.41c2.13,1.06,4.81,7.05,8.25,5.62l.59-2.3c-1.02,2.09-2.56,.1-4.15-1.81-1.6-1.9-3.25-3.81-4.69-1.52Z"/>
    <path d="M1682.52,1242.94l6.4,4.08c-.48-3.37-1-7.88,2.29-7.82-3.15-5.66-3.11-3.83-3.42-1.04-.29,2.79-.86,6.57-5.27,4.77Z"/>
    <path d="M1662.62,1231.97c4.11-.14,1.44-4.34,2.22-5.95-3.21,1.94-4.04,2.42-2.22,5.95Z"/>
    <path d="M1495.35,1187.92l.81-7.39c-3.33,.94-.18,2.87-.81,7.39Z"/>
    <polygon points="1462.31 1225.61 1465.26 1230.19 1466.63 1223.37 1462.31 1225.61"/>
    <polygon points="1441.57 1173.31 1442.97 1172.19 1437.56 1175.11 1441.57 1173.31"/>
    <path d="M1167.49,1237.96l1.15,9.09c1.97-1.71,2.02-11.99-1.15-9.09Z"/>
    <path d="M1052.94,1235.1c.04-4.76-2.12-8.37-5.3-4.7,2.24,1.39,3.72,5.45,5.3,4.7Z"/>
    <polygon points="678.12 1199.96 679.37 1196.18 675.83 1200.31 678.12 1199.96"/>
  </g>
  <g>
    <path d="M1781.28,1781.95c.85-2.5,.38-8.15-2.01-7.06l-1.76,9.58,3.78-2.51Z"/>
    <path d="M1765.48,1763.93c-2.87,4.54-6.47,12.59-4.96,21.47,3.16-9.11,3.73-5.21,7.01-16.11,2.39-1.09,4.08,3.13,3.62,6.66,.88-2.45,3.71,2.16,5.05-3.85-3.04-7.49-6.82-7.77-11.09-1.78-.81-2.15,.11-4.62,.36-6.39Z"/>
    <path d="M1547.45,1693.16l1.29,1.41c-.29-.7-.74-1.14-1.29-1.41Z"/>
    <path d="M1401.06,1685.45c1.09-.38,1.43-1.38,1.37-2.25-.96,.75-1.74,1.46-1.37,2.25Z"/>
    <path d="M1373.63,1679.7c.62,.17,1.11,.2,1.66,.3-.77-.74-1.46-1.08-1.66-.3Z"/>
    <path d="M1547.45,1693.16l-3.35-3.71c-.81,3.03,1.59,2.67,3.35,3.71Z"/>
    <path d="M1731.59,1784.97c.88-.38,1.67-1.21,2.41-2.31-.72,.35-1.42,.63-2.13,.82-.09,.51-.16,.96-.28,1.49Z"/>
    <path d="M1612.47,1703.82l1.12,.41c.72-.89,1.5-2.01,2.32-3.29l-3.44,2.88Z"/>
    <path d="M1657.43,1719.76c-.84-.68-4,6.84-5.62,10.04,1.72-2.94,3-4.18,4.08-4.46,.55-1.45,1.05-3.24,1.54-5.58Z"/>
    <path d="M1724.42,1750.91l1.45-.94c-.38,.3-1,.55-1.45,.94Z"/>
    <path d="M1578.62,1690.66c.24-1.19,.36-2.27,.33-2.93-.27,.98-.36,1.97-.33,2.93Z"/>
    <path d="M261.73,1740.94c.1-.57,.1-.94,.17-1.44-.35,.78-.49,1.35-.17,1.44Z"/>
    <path d="M210.85,1697.72l.77-.43c.08-1.54,.17-3.06,.18-4.57l-.95,4.99Z"/>
    <path d="M1323.95,1683.33c.12,.06,.15,.04,.25,.07,.88-1.31,.26-.91-.25-.07Z"/>
    <path d="M953.67,1680.42c1.44,4.2-1.2,5.88-3.49,7.76-2.31,1.88-4.25,3.97-1.83,8.87,.1-1.63,2.56-4.23,4.47-7.19,1.9-2.96,3.25-6.29,.85-9.44Z"/>
    <path d="M1730.39,1783.78c-.69,.03-1.39,.03-2.08-.12,.92,.36,1.56,.4,2.08,.12Z"/>
    <path d="M948.35,1697.05l-.02,.06,.51,.94c-.21-.42-.32-.65-.5-1.01Z"/>
    <path d="M1233.48,1720.01c.49,1.36,1.08,2.35,1.69,3.28-.21-.81-.65-1.76-1.69-3.28Z"/>
    <path d="M1304.5,1708.47l-2.17-.31c.97,.41,1.64,.42,2.17,.31Z"/>
    <path d="M1199.64,1737.05c-1.02-.53-1.46-1.62-2.66-.4,.16,.4,.31,.68,.49,.95,.37-1.15,.94-1.73,2.16-.55Z"/>
    <path d="M1160.69,1739.27c.22,.62,.5,1.08,.75,1.63,.39-.17,.84-.3,1.24-.45l-2-1.18Z"/>
    <path d="M373.45,1770.33c-.07-2.48,.29-5.05,.76-7.55-1.45,5.64-8.15,5.3-.76,7.55Z"/>
    <path d="M1732.02,1780.41c-.45,2.02-.93,3-1.64,3.37,.51-.04,1-.16,1.48-.3,.25-1.19,.38-2.33,.15-3.07Z"/>
    <path d="M1204.45,1801.19l-7.27-.51c2.06,.6,4.71,.76,7.27,.51Z"/>
    <path d="M686.05,1765.33l-1.08,1.48c.62-.05,1.05-.47,1.08-1.48Z"/>
    <path d="M1176.2,1803.13c-1.38-2.82-2.76-4.44-4.17-5.48-.27,.65-.58,1.18-.75,2.13l4.91,3.34Z"/>
    <path d="M374.23,1762.7s-.02,.08-.02,.08c0,0,.02-.05,.02-.08Z"/>
    <path d="M327.85,1765.33c2.58,1.05,4.19-1.1,5.48-4.28,1.31-3.16,2.36-7.27,4.03-9.92,7.7-.32,.23,8.51,.48,14.49,5.14-1.03,11.96-8.92,15.01-7.25-.42,1.73-.04,2.58-1.58,4.34,1.92-1.53,3.7-1.99,5.5-1.92,1.81,.07,3.58,.65,5.41,1.17,3.65,1.05,7.63,1.91,12.28-2.02,.07,1.04-.04,1.96-.23,2.76,1.03-5.35,2.87-10.49,4.45-14.04,2.74,.85,7.32-4.46,5.85,2.48-1.56-.81-2.69,1.78-4.24,3.53l3.87-1.77c-1,10.38-5.06,1.8-7.72,8.75,3.35-.47,7.36-2.05,10.96-3.03,1.79-.49,3.47-.81,4.9-.75,1.44,.05,2.66,.47,3.5,1.51-1.14,4.81-3.97,4.74-6.13,4.7-2.14-.04-3.66,0-2.23,5.18l-5.43-5.97c-.23,16.45-3.74-2.52-4.76,14.8,4.06,2.98,7,2.76,10.02,2.44,3.02-.32,5.9-.56,10.18,2.26,3.75-4.56,1.77-7.93,5.48-12.5,1.98-.67,3.49-.75,4.67-.4,1.19,.32,2.04,1.08,2.67,2.12,1.26,2.08,1.62,5.3,1.94,8.4,.59,6.21,1.12,11.86,7.76,6.79,2.09-2.86,4.11-7.24,6.26-9.92,2.16-2.7,4.41-3.7,7.16,.29-1.57,3.45-3.17,6.9-4.8,10.34,4.56,1.59,6.71-2.04,8.71-4.93,2.01-2.88,3.83-4.98,7.93-.38-2.47,3.98-7.92,2.24-6.77,3.81,2.31,4.92,3.77,3.59,5.17,1.13,1.41-2.46,2.8-6.01,5.18-5.65l-.63,9.89c2.56,.02,5.23-.31,7.95-.8,2.72-.52,5.5-1.3,8.28-2.05,5.58-1.44,11.16-3.24,16.6-3.59-.84,2.86-2.99,5.76-.69,9.01,3.56-.91,7.12-1.27,10.71-1.04,1.79,.1,3.6,.37,5.39,.66,1.79,.29,3.58,.69,5.37,1.17,7.17,2.01,14.24,5.04,20.87,8.04,1.7-2.8,3.37-5.65,5.02-8.52,1.16,.08,2.19,3.82,.93,5.48,5.17,3.16,.22-5.41,2.64-8.78,2.86-.63,3.9,4.84,2.09,7.42,2.24-1.85,4.92-3.71,7.85-5.46,2.93-1.77,6.09-3.32,9.27-4.37,3.17-1.01,6.38-1.67,9.43-1.48,3.05,.17,5.94,1.2,8.52,3.27l-1.66,2.67c3.89,1.42,5.64-3.17,7.28-7.14,1.66-4,3.19-7.34,7.04-3.82l-1.14,1.66c4.1,.4,8.26,.1,12.36-.47,4.11-.68,8.18-1.5,12.17-2.16,1.99-.35,3.97-.62,5.93-.76,1.96-.14,3.91-.12,5.84,0,3.86,.28,7.71,1.46,11.57,3.77-.29-6.26,3.97-5.9,7.96-6.2,3.96-.34,7.65-1.24,5.68-9.56,5.61,2.7,8.09,4.92,10.93,6.69,2.85,1.76,6.01,2.98,13.26,3.49,3.58-.47,1.31-11.81,4.6-14.95l3.24,8.33c.7-3.61,1.37-7.21,2.01-10.79l6.67,8.88,2.79-3.56c-1.64,.07-4.53-2.53-5.25-5.01,2.09-2.99,6.07-2.89,9.71-1.51,3.68,1.37,7.06,4.02,7.96,6.12l9.87-12.04c1.02,3.46-.63,5.43-1.44,8.22,1.66-5.55,2.83-3.48,3.95-1.29,1.12,2.19,2.21,4.49,3.68-.54-1.53-1.59-1.47-5.14-1.97-6.88,2.46,1.96,5.41,2.27,8.19,1.71,1.4-.29,2.78-.84,4.07-1.55,1.29-.7,2.48-1.54,3.53-2.5l1.06,6.15c4.63-.78,8.94-2.93,13.4-5.2,4.44-2.28,9.06-4.62,14.02-5.76-2.11-1.01-3.6-4.07-4.23-7.19-.63-3.09-.36-6.22,1.06-7.04l3.35,8.94c.64-6.13-3.98-2.77-1.54-10.64,4.17,.18,4.88,9.92,3.43,13.39l3.87-4.23c.84,2.7,.08,4.4,.56,7.97,.3-3.1,2.77-1.15,5.15,.26,2.4,1.41,4.71,2.26,5.19-2.99l.74,2.73c5.01-.74,8.49-2.17,11.87-3.41,1.68-.65,3.3-1.31,5.02-1.9,1.72-.61,3.59-1.03,5.69-1.37-.63-8.13,2.88-6.65,4.94-13.48,3.36,1.08,6.93,3.1,10.59,4.7,3.66,1.61,7.46,2.96,11.32,2.44,2.66-2.14,3.03-3.88,3.01-5.7-.02-1.82-.44-3.74,.77-6.18,.61,7.42,8.45,6.63,4.45,12.02,4.69-.65,7.69-1.13,11.02-2.02,1.66-.47,3.41-1.08,5.5-1.95,2.09-.85,4.54-2.03,7.57-3.39-1.2-3.09-2.65-4.47-1.82-6.97,2.25-1.13,4.91,3.31,4.45,6.87l-.6,.75c1.73-1.33,3.51-1.96,5.31-2.09,.9-.07,1.81,0,2.72,.16,.9,.18,1.8,.49,2.71,.86,3.6,1.54,7.19,4.27,10.57,7.05,3.37,2.79,6.61,5.36,9.7,6.46,3.08,1.13,6.07,.64,9.17-2.87l-.68,.69c3.86-2.15,7.79-4.22,11.82-6.3,2.32,1.1,1.33,2.33,.14,3.94-1.2,1.61-2.59,3.61-1.24,6.21,3.3-2.52,6.1-3.45,8.54-3.54,2.43-.04,4.49,.81,6.45,1.73,1.97,.9,3.81,2.03,5.85,2.53,2.04,.51,4.3,.35,7.12-.95,.57,11.54,6.49,12.86,13.35,13.76,6.78,.8,14.57,1.26,16.82,9.6l1.31-5.02c4.33-3.75,1.98,3.94,3.39,5.76,1.21-3.83-1.05-5.39,1.55-7.39,11.88,1.3,22.7,7.83,33.97,15.5,11.27,7.67,23.26,16.46,36.33,22.26,4.84,1.94,7.84-4.14,10.75-8.94,2.95-4.78,5.68-8.18,10.47-.84-1.8,2.9-3.62,5.74-5.48,8.61,2.8-.82,5.52-1.39,8.18-1.69,2.66-.31,5.26-.3,7.83-.2,2.57,.08,5.1,.35,7.63,.71,2.51,.39,5.02,.78,7.52,1.17,2.5,.4,4.99,.81,7.49,1.14,2.49,.29,4.98,.46,7.47,.48,2.49,0,4.99-.08,7.45-.56,2.47-.46,4.94-1.18,7.38-2.24-1.27,2.13-1.5,4.99-3.37,4.83,1.78,3.6,5.58,3.97,8.9,2.64,3.32-1.36,6.17-4.33,6.31-7.16,2.92,.76,.48,5.16,2.21,8.11,1.95,2.11,4.6,.05,6.91-1.82,2.33-1.84,4.37-3.33,5.39,.15,.35,1.13-1.16,2.24-1.91,2.77,2.67-3.33,12.22,1.01,9.72-7.05,3.53,1.89,6.92,.94,10.1,.13,1.59-.41,3.13-.79,4.64-.77,1.51,0,2.99,.36,4.44,1.5,1.7-4.56,4.74-3.6,7.49-3.09,2.74,.53,5.18,.5,5.39-5.87,.2,13.12,13.31,9.78,17.22,3.08-1.15,4.09,4.35,3.71,3.12,9.34,5.25-.63,9.8-3.78,8.04-10.32,2.86,3.59,5.45,4.44,7.78,4.01,2.34-.47,4.42-2.28,6.36-3.9,1.94-1.64,3.74-3.08,5.62-2.99,1.88,.07,3.84,1.73,6.15,6.41,14.34-9.92,26.98-18.25,39.05-25.37,1.79,6.29-1.8,7.77-5.23,9.27-3.48,1.43-6.82,2.89-4.69,9.42,5.86-4.42,9.63-10.01,13.58-14.52,1.95-2.29,3.95-4.32,6.28-5.85,2.31-1.55,4.92-2.63,8.19-2.98,1.84,.27,1.91,1.76,1.47,3.5-.45,1.73-1.41,3.71-1.56,4.95,10.29-9.49,23.38-7.76,30.63-18.3,.42,1.14-.16,2.81-.8,4.14,.9-.59,2.22-.59,3-1.13,.77-.53,1.02-1.6-.18-4.32l-1.29,2.25c-6.31-6.79,1.09-19.81-.16-24.2,2.87,17.14,11.27,.29,13.69,22.41,.84-1.52,1.42-4.75-.25-8.37,2.26,.41,3.62,2.38,3.35,7.3,5.56-5.44,1.08-10.62,7.28-12.59,.91,2.74,.03,4.21,.52,7.62,.61-3.17,1.26-6.36,2.51-8.69,1.25-2.32,3.13-3.72,6.1-3.39,.2,1.76,1.46,3.73-.09,4.17,1.08-.45,2.05-1.09,2.96-1.86,.91-.74,1.76-1.6,2.57-2.54,1.63-1.86,3.12-4.08,4.75-6.01,1.62-1.94,3.36-3.7,5.41-4.82,2.05-1.12,4.44-1.46,7.27-.72-.28,12.9,4.31,3.23,7.01,13.78l4.67-4.18-3.13-4.75c2.39-.34,4.25-2.74,6.21-4.53,1.94-1.83,3.91-3.24,6.25-1.82l-2.89,4.98c2.87-1.16,5.77-2.33,8.72-3.35-1.89-1.13-3.82-2.31-5.73-3.36,2.06-3.16,1.48-6.49,1.21-8.84-.27-2.34-.17-3.63,3.4-2.57-1.23,1.29,5.11-.56,8.41,5.53,0,0-.02,0-.01,.03,2.09-3.67,4.35-7.53,8.34-5.22,1.25,3.36,.26,12,1.08,14.24,.79-4.66,3.67-5.45,6.61-6.36,2.95-.89,5.97-1.91,7.29-6.78-.93,2.3-.67,7.97-.28,9.13l1.68-7.43c2.45,2.26,2.83,3.38,2.65,7.92,7,1.07-2.78-13.64,5.78-8.05-.64,.62-.29,1.71-1.61,2.88,4.21,1.33,8.21,.18,12.17-.99,1.98-.57,3.94-1.14,5.89-1.33,1.95-.14,3.89,.07,5.81,1,2.14,10.92-6.7,2.58-4.17,11.81,2.72-.46,5.5-1.49,8.32-2.73,1.41-.61,2.84-1.31,4.26-1.96,1.42-.64,2.85-1.3,4.28-1.92,2.86-1.23,5.74-2.34,8.55-2.93,2.8-.52,5.56-.55,8.17,.27l-1.9-1.33c1.26-7.62,3.17-5.59,5.43-2.51,2.26,3.12,4.79,7.34,7.82,3.98-1.43,1-2.54,8.33-2.03,6.65,1.72,.79,3.51,1.02,5.41,.91,1.89-.07,3.89-.53,6.05-1.19,4.34-1.39,9.26-3.35,15.13-4.87l-2.01,3.68c1.81,2.03,4.41,3.12,7.11,3.91,1.35,.41,2.72,.75,4,1.19,1.27,.46,2.46,.97,3.46,1.66,2.16-3.56,4.59-2.36,4.32-8.3,.56,1.57,1.15,2.91,1.77,4.06,.62,1.18,1.26,2.16,1.94,2.98,1.36,1.63,2.84,2.6,4.43,3.12,3.16,1.08,6.74,.44,10.39-.32,7.22-1.41,14.81-3.08,17.6,7.92-1.44-.48-4.54,2.03-3.42,2.46,3.76,.08,7.54,.13,11.37,.32,1.57-6.58,.11-4.3-.23-10.01,2.69-3.23,6.73-4.98,9.33-4-6.28,2.37-3.81,10.04-3.2,14.32,.41-2.04,1.92-3.89,2.51-5.9,1.03,13.22,5.83-12.21,10.3-1.79l-1.69,3.11c3.43-.57,7.72-3.86,10.35-1.73-1.63,7.7-4.3,2.18-6.86,8.02,4.4,1.28,13.74-10.33,14.75-1.64-2.58,1.3-5.21,.32-7.79,1.6,.82,10.12,2.2,8.16,4.8,10.74l-.23-.31c1.92,2.23,3.92,4.44,5.9,6.67l-1.01-3.03c6.3-8.39,9.34-8.27,12.36-7.23,2.98,1.06,6.06,2.94,11.79-2.09-5.53,4.73-6.46,6.33-6.35,7.79,.1,1.45,1.2,2.75-.48,6.82,.58,1.49,1.39,3.13,1.87,4.66,.49,1.51,.63,2.92-.18,3.96,2.94-2.79,4.03-.98,5.47,.51,.72,.74,1.52,1.41,2.66,1.36,1.14-.07,2.62-.84,4.65-2.95-.55,2.79,3.89,1.4,1.14,8,5.48-.75,.15-5.07,1.55-8.36,1.25-.9,2.4-1.32,3.49-1.39,1.1-.09,2.14,.16,3.15,.65,2.03,.97,3.98,2.87,6.09,4.68,4.23,3.48,9.23,6.75,15.91,1.21,5.16-1.75,8.52-5.04,11.71-8.25,3.19-3.22,6.19-6.28,10.63-8.15,1.09,2.42,.2,4.9-1,6.77-1.2,1.87-2.7,3.14-2.7,3.14,2.02,2.36,3.95,3.46,5.96,3.64,2.01,.18,4.1-.54,6.44-1.97-1.14,2.37-.47,4.53,.56,7.83,3.64-.39,3.36-10.02,7.59-5.43-1.06,3.07-2.53,7.99-4.57,10.97,2.24-1.1,4.52-2.82,6.77-4.64,2.25-1.82,4.5-3.63,6.72-4.75,.83,4.99-3.09,7.29-4.89,10.39,2.55-.94,5.81-1.84,8.65-3.47,2.85-1.63,5.26-4.1,6.17-7.95l-2.94-2.9c1.75-.31,.58,6.73-.8,8.1-4.51,5.88-5.85-3.09-5.88-5.93l3.14-1.61c-1.08-8.38-4.05-7.92-7.63-5.53-.89,.6-1.82,1.31-2.76,2.04-.94,.7-1.89,1.42-2.83,2.03-1.87,1.24-3.69,2.09-5.2,1.7,1.25-3.92,2.48-7.84,3.68-11.76-2.34,3.13-4.74,6.25-7.18,9.36-.49-1.62-.77-4.15-.53-6.44,.24-2.29,.99-4.34,2.55-5.1-1.79-3.15-2.82-2.25-3.8-1.37-.97,.87-1.88,1.66-3.27-1.86-.26-1.08,0-1.63,.42-2.06l-4.57,3.04c1.15-2.41,.5-8.52,2.75-6.48-3.15-3.86-6.3-2.17-8.98-.55-2.65,1.58-4.79,3.03-5.33-1.76l.73-.62c-5.3,1.06-6,3.18-6.49,6.14-.52,2.96-.79,6.77-5.75,11.11-.3-7.48-.46-15.01-.52-22.48l-2.91,8.42c-.96-.54-2.85-1.64-1.66-5.01-5.22,5.01-.23,3.92-3.8,8.95-1.55-4.56-5.17-4.5-8.17-5.09-2.97-.66-5.28-1.91-3.83-8.83-3.67,5.94,3.25,6.33-3.33,9.31,1.39-7.48-.26-7.29-2.63-6.3-2.35,1.01-5.47,2.89-6.6-1.16,3.82-6.96,6.62-1.76,4.45-9.76-3.36,5.86-5.3,4.42-6.86,1.71-1.58-2.7-2.77-6.77-5.01-6.23-3.78,9.86-9.47,1.22-16.91,2.04,1.67-3.13-9.48-9.98-13.96-15.88l.83-1.58c-5.06,9.45-10.37,5.17-15.62,5.53,2.45-5.88,4.17-7.93,7.63-9.65l-4.27-1.58c-2.23,2.81-4.17,3.98-7.35,4.1l3.86-7.06c-2.97-.85-6.68,.28-10.32,.71-1.84,.23-3.66,.28-5.38-.21-1.72-.49-3.35-1.5-4.85-3.35-1.34,3.47-1.43,8.86-2.41,13.65-.97,4.79-2.79,8.99-7.27,10.18,.93-3.91,2.68-10.56,5.21-11.49-.83,.29-3.36,2.44-4.18,.38,1.69-1.83,3.39-3.65,5.12-5.47-2.5-3.9-3.45,4.83-5.93,3.39,1.72-5.48-.83-4.5,.86-8.74,.88-.34,1.71,2.98,3.41,1.16-2.75-1.98-5.62-6.24-5.72-10.81-.61,3.21-2.1,7.42-4.58,7.48-6.05-1.17-.25-7.19-3.07-10.96-2.45,3.49-5.36-1.53-7.45,6.81-1.75-.44-1.17-4.4-1.35-6.81-2.01,1.5-5.74,.88-8.78,1.25-3.05,.37-5.32,1.56-4.43,6.37l.68,.74c-.18,.15-.36,.12-.58,.27h.02s-.02,0-.02,0c-2.94,1.63-5.61,1.82-8.2,1.43-2.59-.41-5.08-1.57-7.57-2.89-2.49-1.32-4.99-2.65-7.53-3.6-2.54-.93-5.13-1.44-7.76-.74l.32-2.85c-3.22,1.33-6.63,1.49-9.86,2.03-3.22,.63-6.24,1.63-8.57,4.56-1.76-.13-3.89-5.5-2.94-8.86-4.79,1.9-5.38,5.14-11.91,.14,4.86-4.81-1.47-4.49,4.94-3.47-5.96-2.7-7.33-7.4-13.97,.38,2.36-7.3-4.48-9.3-7.41-7.14l4.24,5.3c-3.25,1.03-6.07,.32-8.96-.23l1.53-9.67c-3.17-2.9-6.21-3.08-9.08-2.03-1.44,.53-2.83,1.36-4.18,2.32-1.36,.99-2.69,2.11-3.98,3.16-5.21,4.22-9.8,7.36-15.26-2.07-2.9,6.96,7.16,4.28,4.61,12.36-2.89-.46-6.05-4.04-8.79-7.49-2.73-3.46-5.02-6.77-5.96-6.68-4.3-2.27-5.9,1.42-7.42,5.33-.77,1.95-1.53,3.95-2.63,5.29-1.11,1.37-2.56,2.09-4.75,1.45,1.51,3.27,3.5,12.28-2.01,16.25-2.86-.3-5.09-3.58-6.25-7.24-1.15-3.66-1.18-7.69,.46-9.34,1.35-.5,2.18,.53,2.28,1.68,1.69-1.47,3.99-3.26,1.17-6.66l-.3,3.51c-.84-.78-1.98-1.28-3.19-1.67-1.21-.36-2.51-.62-3.66-.97-2.31-.7-4.09-1.75-3.58-4.69-3.98,3.95-.98,5.87,2.56,7.11-4.15-1.86-7.13-1.46-10.07-.69-1.47,.37-2.94,.78-4.56,1-1.63,.21-3.41,.22-5.52-.15,1.64,1.58,3.58,5.29,2.36,5.52-6.05-.83-6.95,1.04-7.18,3.51-.24,2.46,.14,5.51-3.34,7.19-5.5-4.01-1.57-12.53-8.03-6.34-5.54-2.11-3.44-8.54-2.23-11.75-2.69,4.16-6.2,4.07-9.73,2.92-3.49-1.11-6.93-3.2-9.15-3.15l2.9-3.83c-1.75,2.28-3.59,2.81-5.46,3.39l4.24,5.88c-2.54-.48-4.34,.13-5.21-2.61-.74,5.02,5.24,10.31,2.99,17.59-1.93-1.18-3.73,.4-5.48,1.28-1.75,.88-3.52,1.02-5.55-3.09,4.8-.09,3.79-2.17,2.43-4.72-1.35-2.55-3.14-5.6,.38-7.6-1.12,1.52-2.83,2.12-5.34,1.74-.66-.85-.35-1.89,.05-2.59-11.24-4.6-.31,11.1-8.75,14.07-.79-5.21-5.47-8.36-6.41-6.81,3.37-1.21,4.68,7.39,3.11,12.24-6.72-1.67-4.54,5-7.41,5.64l3.76,.53c.87,5.2-1.95,5.6-4.89,8.52-1.8-3.6,2.2-3.85,.27-4.98-.3,4.99-3.37,3.69-6.77,2.13-3.42-1.55-7.06-3.44-8.65,.46-3.74-2.28-3.76-8.91-6.74-10.3-1.73,4.23-3.96,3.2-6.24,2.01-2.27-1.21-4.57-2.56-6.65,1.14,4.05,5.87,3.85,4.2,1.74,12.07,1.42-1.32,2.85-2.73,4.26-4.1l4.22-4.15c-1,3.98-2.01,7.88-3.09,11.85,3.16-1.03,5.05-6.46,7.32-6.09-1.16,6.48-1.47,4.76,2.07,9.56-3.99-4.02-5.55-1.87-7.12,.76-1.55,2.64-3.12,5.66-6.76,3.19l-5.36-16.27c-4.8-2.36-7.19,.64-9.89,4.25-1.34,1.79-2.75,3.62-4.49,4.98-.87,.67-1.83,1.22-2.89,1.55-1.07,.3-2.25,.38-3.57,.16l3.82,2.1c.25,3.45-1.2,4.06-2.98,4.24-1.8,.17-3.91-.04-5.17,1.64-1.03-5.64-3.45-7.23-5.53-10.42,.55,2.05-1.2,2.35-2.89,3.55-1.69,1.22-3.38,3.21-2.72,8.92-1.95-2.19-3.86-4.38-5.73-6.58-4.13-.8-5.69,3.5-7.29,8.05-.8,2.26-1.6,4.58-2.73,6.25-1.13,1.65-2.58,2.69-4.62,2.46,1.55-6.47-2.46-10.05,2.05-15.11-2.54,.26-4.94-.49-4.49,3.45-.97-1.68-2.49,.46-4.19,2.38-1.71,1.87-3.61,3.52-5.06,.93-.85,2.61-.65,8.61-3.67,8.43-.42-1.12-.23-2.82-.23-2.82,.12,1.4-.96,2.49-1.69,3.94-.73,1.45-1.11,3.32,.47,6.39-2.45-4.31-5.06-6.29-7.77-7.07-1.35-.39-2.73-.47-4.12-.4-1.39,.07-2.8,.24-4.2,.46-2.8,.43-5.57,.94-8.11,.4-2.54-.54-4.87-2.24-6.71-6.04-2.88,.99-6.08,2-9.23,2.75-3.15,.71-6.24,1.24-8.89,1.41,.37-1.71,.07-2.85,1.06-2.25-7.14-5.4-4.9,16.37-13.17,10.12-3.87-9.41,4.64-4.83,2.12-8.43-.22-9.44-2.67-8.89-5.76-7.38-3.06,1.47-6.82,3.79-9.14-1.87l1.39-1.02c-1.84-3.34-4.47-1.68-7.51,.42-3.04,2.12-6.57,4.88-9.89,3.83,0,0,.52-1.61,.36-2.82-2.83,4.48-6.61,7.22-10.59,9.06-3.96,1.75-8.09,2.57-11.67,3.34,3.34-6.91,3.65-3.36,3.68-10.94-1.54,.29-1.84,3.29-2.54,6.36-.69,3.06-1.77,6.18-4.96,6.64-1.22-4.35-4.77-8.59-3.64-16.55,1.81,.24,3.64,.41,5.45,.62-.4-5.34-2.1-5.57-4.06-4.78-1.94,.75-4.16,2.53-5.36,1.34l1.35-4.33c-4.16-.14-6.93,2.43-9.79,4.72-1.43,1.15-2.88,2.21-4.51,2.8-1.64,.59-3.45,.62-5.6-.2l-.03,3.56c-4,4.72-4.63,2.89-5.09,.73-.47-2.19-.77-4.71-4.46-1.47l2.03-11.36c-1.98,.85-5.58,2.53-9.55,4.02-3.97,1.52-8.3,2.66-11.56,2.64,3.11-3.38,6.68-5.5,10.16-7.19,3.48-1.73,6.87-3.06,9.66-4.77-1.51-.56-4.16-1.24-6.88-1.19-2.73,0-5.54,.73-7.32,3.09,1.64-.58,4.15-2.65,4.79-.54-3.41,3.54-6.79,5.9-10.11,7.02-3.32,1.09-6.57,1.01-9.71-.33,4.57-10.14,1.04-13-3.53-15.66-4.54-2.64-10.15-5.06-9.34-14-7.33,1.52-12.81-1.57-18.52-5.48-1.43-.98-2.85-2.02-4.31-3.05-1.48-1.02-3-2.03-4.58-2.98-3.12-1.93-6.57-3.5-10.39-4.36,.11,18.14-4.45-.9-8.64,16.41-3.65,.14-4.83-.5-4.82-1.7-2.4-4.41-4.98-8.63-7.64-12.97-1.28-5.65,4.27-2.94,4.95-6.88-3.72-1.65-4.1-3.69-4.06-6.05,.04-2.35,.52-5.03-1.63-7.92-.36,6.42-4.78,8.23-8.8,4.86,1.58,3.14,3.1,6.28,4.58,9.4-3.24,1.69-5.2,1.51-6.59,.37-1.39-1.1-2.2-3.15-3.04-5.21-.83-2.06-1.69-4.13-3.15-5.24-1.46-1.12-3.54-1.28-6.72,.6,1.48-1.64,2.98-3.3,4.5-4.92-3.19,1.15-8.54,.23-14.03,.79-2.74,.32-5.51,.99-8.04,2.42-1.26,.71-2.46,1.62-3.56,2.77-1.1,1.16-2.1,2.59-2.97,4.29-.76-2.13-1.6-7.08,1.04-8.12-3.34-.86-7.02-.53-10.74,.3-3.71,.92-7.47,2.37-11.09,3.61-3.63,1.2-7.07,2.42-10.26,2.62-3.18,.25-6.1-.49-8.61-2.7l1.11-4.32c-2.52,1.22-4.45,8.09-7.47,3.68,.18-1.79,1.05-4.31-.09-4.58-.67,.74-2.33,2.62-4.22,3.99-.94,.69-1.95,1.24-2.92,1.48-.97,.25-1.91,.17-2.72-.45l2.79-4.91c-6.51-2.75-11.5,.25-16.08,4.41-4.61,4.25-8.77,9.5-14.01,11.27-.34-6.37-3.11-10.43-6.53-13.09-3.42-2.67-7.44-3.97-10.17-4.71l.02-1.82c-3.94,0-7.51,.77-10.84,2.15-3.34,1.43-6.42,3.36-9.4,5.49-5.97,4.39-11.47,9.56-17.96,13.42-1.41-1.49-2.97-2.61-4.63-3.43-1.66-.8-3.43-1.26-5.29-1.53-1.86-.26-3.8-.3-5.79-.2-1.99,.12-4.02,.44-6.1,.78-4.16,.66-8.37,1.73-12.59,2.37-4.21,.65-8.34,1-12.43,.26,2.82,1.51,2.75,9.56,.82,11.58-1.98-.69-3.43,2.14-4.77,3.74-1.31,1.62-2.55,2-4.29-3.6l1.18-.19c-3.09-4.99-6.01-6.17-8.8-5.91-2.77,.26-5.3,1.98-7.82,2.76l4.72,14.59c-10.24-7.97-17.63-2.81-23.75,2.15-6.17,4.97-11.53,9.83-18.09,1.63-1.37,4.55-4.78,5.81-6.22,10.31l-2.54-7.81c-2.02,.13-3.78,.25-5.42,.43-1.63,.14-3.13,.33-4.65,.67-3.04,.72-6.12,1.78-10.39,4.04l.27-6.18c-2.55,.49-2.61,6.53-2.72,12.83-.1,6.24-.24,12.72-2.74,13.51l-4.26-11.61c-2.3,.54-4.72,.51-7.21,.14-2.48-.35-4.98-.87-7.39-1.06-2.43-.23-4.8-.18-7.02,.75-1.12,.45-2.19,1.15-3.25,2.06-1.06,.91-2.09,2.1-3.09,3.62-.08-1.8-.26-5.35,1.19-6.03-1.11,.06-2.8-.29-4.64-.59-1.84-.3-3.81-.53-5.59-.35-3.51,.4-6.1,2.88-4.54,11.18-.57-5.47-3.01-5.42-6.03-3.55-3.01,1.9-6.58,5.85-9.14,8.42l.39-8.11c-3.94,10.51-4.01,13.32-10.34,16.44-1.56-.99-1.52-6.41,.55-4.43-2.58-2.01-3.5-.07-4.59,1.84-1.08,1.92-2.33,3.83-5.46,1.72l2.22-5.19c-5.21-.56-4.75,2.21-7.64,8.26-3.34,3.26-10.04-2.15-10.64-9.45-.76,4.42-3.8,10.42-6.84,8.16-.33-2.78,.84-4.44,1.43-5.26-4.25-2.92-7.53-.7-10.54,1.23-2.99,1.92-5.68,3.43-8.39-.72,.06-2.68-.23-4.04-.66-4.88,3.39,.32,6.44,.71,8.6,1.03,2.16,.29,3.4,.6,3.13,.88,.3-7.44-5.01-8.96-.23-19.07-2.28,2.76-5.4,6.98-8.67,10.09-3.26,3.1-6.68,5.09-9.15,3.05-.19-.74-.37-1.47-.46-2.63l.61-.78c-1.13-.86-2.27-.27-3.41,.88-1.55-1.38-2.5-2.38-4.08-2.65,.06-6.18-5.59-4.06-8.17-4.68-.87,8.11-4.21,6.36-1.85,13.45-.35-.64,.64-.9,2.48-1.01,.44-.19,.93-.25,1.25-.69-.08,.22-.18,.46-.27,.69,1.8-.03,4.11,.15,6.76,.27-2.58,3.94-5.29,7.03-7.73,2.18-2.06,5.02-4.37,10.16-5.62,12.55-1.14-5.88-3.21-10.69-4.94-14.83-1.74-4.15-3.13-7.7-2.97-11.27-2.16,.75-4.44,1.08-6.78,1.39-2.35,.34-4.69,.46-7.07,1.03-4.76,1.15-9.46,3.38-14.02,10.15-2.85,1.31-1.51-4.98-1.7-7.52,1.72-1.1,3.2-.44,4.48-2.4-2.76,1.34-6.19,.69-9.47,1.05-3.27,.31-6.38,1.46-8.57,6.39-2.18-3.22-.58-5.29,.46-6.69,1.04-1.42,1.56-2.03-2.62-2.54l2.09-2.74c-2.46-5.35-5.67-6.89-9.47-6.79-3.76,.17-8.11,1.97-12.5,3.63-8.83,3.25-17.79,5.7-22.65-8.05,.74,1.74,1.12,2.57,.71,4.33-8.36-8.54-20.06-10.65-31.59-12.86-5.77-1.1-11.49-2.26-16.9-4.34-2.69-1.09-5.34-2.33-7.88-3.98-1.27-.83-2.52-1.76-3.74-2.8-1.23-1-2.44-2.12-3.63-3.37-2.84-2.21-4.82-1.72-6.66-.08-1.85,1.65-3.58,4.38-5.96,6.57l.27-8.86c-2.84,2.89-5.61,5.76-8.34,8.77-5.18,2.93-8.26-3.06-12.07-8.08-1.89-2.53-3.93-4.88-6.35-5.81-2.41-.88-5.21-.32-8.51,2.87l.97,6.02c-2.05-.73-5.47-.27-8.2-.25-2.73-.02-4.79-.71-4.21-4.07-.51,1.04-1.78,6.03-3.23,2.85l.15-4.58c-3.64,2.34-7.21,4.88-10.74,7.35-3.91-1.81-3.47-6.34-3.48-10.59,0-2.12-.13-4.18-1.01-5.78-.88-1.62-2.51-2.76-5.5-3.01-2.25,.85-5.46,4.15-7.85,7.62-2.4,3.47-3.98,7.11-3.17,8.65,1.75,.25,4.45,2.91,4.53,7.5l-3.91,2.34c-.36,6.74-1.27,13.57-.92,19.9,.35,6.32,1.93,12.16,6.34,16.93,2.11-2.73,4.24-5.45,6.41-8.18,.63,2.18,1.24,4.38,1.84,6.6-1.74,.06-3.5,.22-5.25,.32,2.85,6.18,4.81,.76,7.05-2.87,.39,3.5,1.17,5.97,2.34,7.31,2.16-4.22,4.39-8.43,6.66-12.64,.46,5.3-3.23,10.35,.66,13.44,1.55-2.89,1.06-5.9,.75-8.63-.3-2.73-.4-5.19,2.1-6.99,2.64,6.32,1.39,11.26,5.23,6.26,.24,3.5-.66,5.66-2.12,7.1,1.66-1.98,3.73-2.28,5.64-2.97,1.9-.65,3.64-1.67,4.77-5.17,1.18,3.92,3.79,3.68,5.94,4.04,2.13,.39,3.75,1.45,2.83,7.76,1.26-2.91,6.54-9.31,9.44-9.42-3.61,7.18-1.06,7.8,1.85,8.64,2.93,.84,6.28,1.86,4.19,9.85,2.94-6.44,6.5-7.31,10.27-7.37,1.86,.03,3.78,.27,5.74,.12,.98-.07,1.97-.24,2.97-.58,1-.33,2.01-.79,3.04-1.52-.62,.97-1.85,2.94-2.24,2.11,3.3,2.03,3.29,6.3,4.84,9.38,3.37-10.88,9.66-11.78,14.81-17.56,.66,5.95-1.05,8.91-3.04,11.73-2,2.79-4.29,5.51-5.13,10.74,2.38-8.94,10.14-6.45,11.02-14.22,1.27,7.5,1.9,4.09,.6,13.59,2.56-6.63,3.54-6.94,4.56-6.5,1.03,.45,2.08,1.59,4.95-1.99,2.54,8.38-3.29,12.96,3.52,10.86,.51,2.52-.87,4.5-2.37,5.86-1.5,1.36-3.08,2.13-3.08,2.13Zm153.43,17.26c0,.08-.01,.13-.01,.16-1.33,.06-2.47,.12-3.19,.16,.67-.05,1.59-.12,3.21-.32Zm12.8,.78c-1.54-.42-3.47-.61-5.52-.69-.25-2.83,.44-5.7,1.69-5.46-.82,1.83,2.06,3.65,3.83,6.15Zm-20.3-58.48c1.87-.92,2.26,.74,2.32,2.43-.84,.04-1.84,.18-3.17,.58-.09,.3-.24,.63-.33,.96,.36-1.52,.73-2.95,1.19-3.97Z"/>
    <path d="M469.28,1735.1c-.28,.15-.47,.47-.82,.5,.27,.76,.54,1.41,.83,1.95,.33-.83,.66-1.65,.96-2.45-.33,0-.67-.02-.98,0Z"/>
    <path d="M1548.97,1694.8l-.23-.23c.16,.36,.3,.71,.33,1.24-.1-.42-.05-.67-.1-1.01Z"/>
    <polygon points="674.24 1774.22 673.49 1772.29 673.07 1774.38 674.24 1774.22"/>
    <path d="M1605.25,1740.77c-.14,.71-.18,1.5,.05,2.26,.16-.51,.08-1.33-.05-2.26Z"/>
    <path d="M1631.61,1753.18c.94,1.42,1.93,2.81,2.9,4.22-1.13-2.2-2.09-3.4-2.9-4.22Z"/>
    <path d="M1652.03,1764.95c.74-1.26,1.16-2.25,1.55-3.16-.01-.03-.02-.03-.03-.06l-1.53,3.23Z"/>
    <path d="M1326.11,1758.57c-.26,.15-.49,.36-.66,.66-1.27,2.21-.24,1.13,.66-.66Z"/>
    <path d="M1417.65,1714.59c-.93,1.56-1.81,3.15-2.82,4.2,1.85,.37,3.26,.41,2.82-4.2Z"/>
    <path d="M1205.25,1801.26c0-.05,0-.07,0-.14-.27,.06-.52,.05-.8,.08l.8,.07Z"/>
    <path d="M1410.15,1719.25c2,1.39,3.43,.85,4.68-.45-1.52-.35-3.36-.96-4.68,.45Z"/>
    <path d="M1752.56,1787.35l1.11,.38c0-.54,.1-.97,.2-1.3l-1.31,.93Z"/>
    <path d="M1753.88,1786.42l1.3-.91c-.58-.02-1.08,.02-1.3,.91Z"/>
    <path d="M1757.9,1783.56l-2.72,1.95c.91,.06,2.03,.36,2.72-1.95Z"/>
    <path d="M1721.75,1780.84l-.73,2.89c.27-.58,.52-1.52,.73-2.89Z"/>
    <path d="M1712.18,1780.4c2.13,1.06,4.81,7.05,8.25,5.62l.59-2.3c-1.02,2.09-2.56,.1-4.15-1.81-1.6-1.9-3.25-3.81-4.69-1.52Z"/>
    <path d="M1682.52,1736.94l6.4,4.08c-.48-3.37-1-7.88,2.29-7.82-3.15-5.66-3.11-3.83-3.42-1.04-.29,2.79-.86,6.57-5.27,4.77Z"/>
    <path d="M1662.62,1725.96c4.11-.14,1.44-4.34,2.22-5.95-3.21,1.94-4.04,2.42-2.22,5.95Z"/>
    <path d="M1495.35,1681.92l.81-7.39c-3.33,.94-.18,2.87-.81,7.39Z"/>
    <polygon points="1462.31 1719.61 1465.26 1724.18 1466.63 1717.36 1462.31 1719.61"/>
    <polygon points="1441.57 1667.31 1442.97 1666.19 1437.56 1669.1 1441.57 1667.31"/>
    <path d="M1167.49,1731.95l1.15,9.09c1.97-1.71,2.02-11.99-1.15-9.09Z"/>
    <path d="M1052.94,1729.09c.04-4.76-2.12-8.37-5.3-4.7,2.24,1.39,3.72,5.45,5.3,4.7Z"/>
    <polygon points="678.12 1693.96 679.37 1690.18 675.83 1694.31 678.12 1693.96"/>
  </g>
</svg>