<?xml version="1.0" encoding="UTF-8"?>
<svg id="Layer_1" data-name="Layer 1" xmlns="http://www.w3.org/2000/svg" viewBox="0 0 2876.84 522.2">
  <path d="M250.57,275.71c2.5-.6,4.87-.69,7.24-.74,2.56-.05,5.12,0,7.68,0,84.8,0,169.59,0,254.39,0,3.02,0,6.03,.2,9.33,.32,.26,1.65,.54,3.01,.69,4.38,.14,1.27,.22,2.55,.22,3.83-.02,36.48-.05,72.96-.07,109.44,0,5.76,.05,11.52,.05,17.28,0,1.41-.13,2.83-.21,4.44-1.06,.29-1.93,.67-2.83,.73-2.39,.17-4.79,.29-7.19,.29-138.72,.01-277.43,0-416.15,.01-3.18,0-6.35-.02-9.75-.69-.15-1.04-.39-1.95-.4-2.85-.02-4,.03-8,.03-12,0-36.64,0-73.28,0-109.92,0-4.16,.09-8.31,.17-12.47,.01-.62,.17-1.23,.31-2.11,.96-.17,1.85-.4,2.76-.46,1.91-.13,3.83-.22,5.75-.22,26.4-.01,52.8-.02,79.2,.01,2.67,0,5.4-.22,8.24,.66,.42,2.77,.5,5.45,.5,8.15-.03,31.52-.05,63.04-.08,94.56,0,2.87,.19,5.7,1.01,8.7,.97,.12,1.89,.31,2.81,.33,3.36,.07,6.72,.12,10.08,.12,80.64,0,161.27,0,241.91,0,2.55,0,5.09-.07,7.76-.11,.6-1.27,.87-2.66,1.72-3.43,.86-.77,2.28-.92,3.74-1.44,.15-.77,.44-1.67,.47-2.58,.64-18.74,.28-34.99-.9-39.86-2.9-.66-5.93-.65-8.95-.65-28.32,0-56.64,0-84.96,0-35.36,0-70.72,.02-106.08,0-2.7,0-5.39-.21-8.36-.33-.2-1.09-.49-1.98-.52-2.87-.09-3.52-.13-7.03-.14-10.55-.04-13.92-.06-27.84-.09-41.76,0-2.7,.15-5.38,.61-8.21Z"/>
  <path d="M250.52,178.93c3.16-.71,5.83-1.01,8.55-1.01,63.04,.02,126.07,.04,189.11,.04,2.05,0,4.16,.35,6.44-.69,.11-1.12,.33-2.35,.34-3.58,.04-10.08,.09-20.16,.02-30.24-.02-2.52-.47-5.04-.75-7.8-1.25-.2-2.3-.5-3.36-.52-3.84-.08-7.68-.1-11.52-.1-77.76,0-155.51,0-233.27,0-4.79,0-9.58,.11-14.42,.16-1.19,2.8-1.16,5.5-1.17,8.18-.03,7.68-.01,15.36,0,23.04,.02,18.88,.04,37.76,.07,56.64,0,2.55-.23,5.06-.58,7.62-3.1,.81-5.98,.63-8.82,.63-15.04,.03-30.08,0-45.12,0-11.04,0-22.08,0-33.12,.01-2.85,0-5.7-.06-8.63-.58-.65-3.04-.77-5.87-.77-8.73,.01-36.64,0-73.27,.03-109.91,0-2.87,.23-5.74,.36-8.83,1-.23,1.88-.56,2.78-.61,2.23-.13,4.48-.18,6.71-.18,139.03,0,278.07,0,417.1-.01,2.86,0,5.72-.04,8.66,.51,.77,2.92,.99,5.75,.99,8.62-.04,35.68-.08,71.36-.08,107.03,0,3.98,.27,7.96-.99,11.96-2.33,.73-4.73,.67-7.1,.71-3.2,.05-6.4,0-9.6,0-84.16,0-168.31,0-252.47,.01-3.02,0-6.03-.09-9.09-.73-.75-2.94-.88-5.78-.87-8.64,.02-11.52-.03-23.04,.03-34.55,.01-2.7,.34-5.39,.55-8.47Z"/>
  <path d="M1123.8,248.71c1.32-.87,2.24-1.48,3.05-2.02,1.74-4.87,1.12-9.91,1.93-14.92,1.31-.33,2.51-.64,4-1.02,.27-1.23,.57-2.59,.93-4.22,1.14-.52,2.42-1.09,3.93-1.78,.5-1.12,1.08-2.41,1.66-3.71,3.13-.36,6.12-.71,9.31-1.08,.5-1.15,.99-2.29,1.54-3.55,.34-.13,.77-.43,1.21-.45,5.59-.19,11.19-.48,16.78-.48,53.76-.03,107.51-.02,161.27,.03,6.22,0,12.44,.33,18.74,.51,.61,1.57,1.11,2.86,1.62,4.17,3.22,.46,6.35,.91,9.65,1.38,.27,1.52,.5,2.9,.78,4.5,1.59,.32,3.09,.62,4.78,.95,.39,3.28,.77,6.42,1.15,9.58,1.28,.44,2.47,.84,3.69,1.26,.95,4.04,.96,8.03,1.03,12,.12,7.04,.18,14.08,.18,21.12,.02,32,.05,64-.02,95.99-.02,7.83-.42,15.66-.67,23.49-.02,.62-.19,1.24-.31,2.02-1.2,.43-2.37,.85-3.84,1.37-.32,3-.65,6.14-1.01,9.63-1.46,.29-2.95,.59-4.7,.93-.28,1.52-.57,3.03-.87,4.69-3.08,.38-6.06,.75-9.26,1.15-.43,1.17-.85,2.34-1.35,3.72-.43,.14-1.01,.46-1.61,.49-8.3,.42-16.6,1.12-24.9,1.14-49.12,.11-98.23,.08-147.35,.04-9.75,0-19.5-.11-29.46-1.58-.47-1.19-.97-2.47-1.45-3.69-2.96-.74-5.85-1.47-8.84-2.22-1.02-2.81-1.98-5.46-3.05-8.4-.95-.24-2.16-.55-3.45-.87-.15-.65-.37-1.25-.43-1.87-.37-3.81-.72-7.62-1.06-11.43-.1-1.17-.39-2.24-1.58-2.75-1.56-.66-1.97-1.94-2.07-3.47-.14-2.07-.5-4.13-.51-6.2-.02-38.56-.02-77.12,.03-115.67,0-2.86,.36-5.72,.56-8.8Zm47.93,4.14c-.09,2.06-.21,3.63-.21,5.2,0,34.37,0,68.75,.01,103.12,0,4.32-.03,8.63,0,12.95,0,.91,.22,1.82,.38,3.03,2.92,.06,5.61,.16,8.29,.16,44.13,0,88.25,0,132.38,0,2.24,0,4.48,.05,6.71-.01,1.07-.03,2.14-.28,2.99-.4,1.17-1.7,1.08-3.28,.92-4.89-.15-1.59-.27-3.19-.27-4.78-.02-34.53-.02-69.07,0-103.6,0-1.41,.14-2.83,.21-4.31,.77-.3,1.33-.58,1.92-.73,1.03-.26,1.73-.74,1.76-1.92,.02-1.06-.34-1.91-1.35-2.3-2.82-1.1-5.6-2.02-8.77-2.01-44.77,.09-89.53,.07-134.3,.1-3.34,0-6.69,.25-10.68,.41Z"/>
  <path d="M2002.12,414.14c-.47-1.27-.96-2.58-1.45-3.89-3.13-.42-6.11-.81-9.3-1.24-.3-1.65-.58-3.15-.89-4.85-1.5-.25-2.87-.49-4.38-.74-.4-3.35-.78-6.49-1.15-9.58-.23-.3-.37-.68-.62-.78-3.2-1.25-3.94-3.93-4.05-6.94-.12-3.36-.18-6.72-.18-10.07,0-41.75,.02-83.49,.05-125.24,0-2.55,.13-5.09,.2-7.73,1.33-.56,2.47-1.05,3.67-1.56,.17-.44,.43-.86,.49-1.3,.57-4.09,1.12-8.18,1.68-12.37,1.53-.58,2.84-1.07,4.37-1.65,.3-1.24,.64-2.61,1.02-4.19,3.14-1,6.43-1.35,9.83-1.68,.53-1.22,1.04-2.36,1.54-3.5,.49-.21,.91-.55,1.35-.57,5.43-.28,10.85-.7,16.28-.72,22.07-.1,44.14-.1,66.22-.09,33.27,0,66.54,.03,99.8,.07,3.84,0,7.67,.17,11.51,.27,.64,.02,1.28,0,1.92,.07,2.81,.35,5.42,1.01,6.14,4.4,1.73,.22,3.29,.42,5.22,.67,.53,1.07,1.15,2.31,1.92,3.87,1.02,.41,2.33,.94,3.58,1.44q1.85,3.78,5.3,5.41c.34,3.13,.71,6.44,1.09,9.96,1.19,.56,2.44,1.16,3.95,1.88,.11,2.49,.31,5.03,.32,7.56,.06,18.07,.1,36.15,.1,54.22,0,24.63-.04,49.26-.08,73.89,0,2.54-.18,5.08-.27,7.7-1.31,.62-2.43,1.15-3.84,1.81-.4,3.16-.82,6.45-1.26,9.97-.68,.25-1.38,.52-2.09,.75-.59,.19-1.19,.33-2.03,.56-.55,2.81-1.1,5.6-1.69,8.59-2.85,1.25-6.11,.92-9.37,1.68-.37,1.11-.76,2.28-1.25,3.79-2.06,.27-4.22,.71-6.41,.82-6.54,.33-13.09,.76-19.64,.76-50.86,.06-101.72,.05-152.59,0-8.3,0-16.61-.23-25.03-1.49Zm177.58-160.58c-2.69-1.45-4.96-1.12-7.17-1.12-44.94,0-89.88,0-134.82,0-2.08,0-4.16-.07-6.23,.07-1.05,.07-2.08,.54-2.99,.79-.63,3.89-.99,105.94-.45,120.64,.03,.92,.24,1.84,.37,2.76,2.04,.94,3.98,.6,5.85,.6,46.38,.02,92.76,.02,139.13,.02,1.12,0,2.25,.08,3.36-.04,.89-.09,1.76-.41,2.95-.71,0-41.1,0-82,0-123.02Z"/>
  <path d="M201.36,376.8c-.11-3.37-.28-6.08-.28-8.79,0-31.52,.03-63.04,.05-94.56,0-1.26-.11-2.53-.18-3.96-2.47-.88-4.65-2.1-5.51-4.98-3.17-.1-6.19-.28-9.21-.29-27.52-.02-55.04,0-82.56,0-3.18,0-6.35,.04-9.68-.37-.97-3.61-.25-7.12-.36-10.58-.12-3.49-.03-7-.03-10.67,1.32-.24,2.38-.54,3.46-.6,2.55-.15,5.11-.25,7.67-.25,28.64,0,57.28,0,85.92,0,1.43,0,2.85-.1,4.49-.17,.85-2.94,3.02-4.34,5.99-4.89,0-1.46,0-2.73,0-4-.02-26.08-.05-52.16-.05-78.24,0-2.69,.22-5.39,.34-8.32,1.14-.18,2.04-.43,2.94-.46,2.08-.07,4.16-.03,6.24-.03,76,0,151.99-.01,227.99,0,1.57,0,3.14,.11,4.6,.17,1.26,4.38,1.58,15.38,.67,20.67-1.07,1.17-2.54,1.2-3.97,1.21-2.56,.02-5.12-.06-7.68-.06-57.76,0-115.52-.01-173.27-.02-3.2,0-6.4-.01-9.6,.04-1.26,.02-2.52,.19-3.88,.29-.54,1.28-1.03,2.43-1.6,3.78-1.22,.35-2.57,.73-4.06,1.16-.15,.8-.42,1.57-.42,2.33,.03,20.3,.08,40.59,.13,61.14,1.46,.44,2.78,.83,4.32,1.29,.38,1.07,.79,2.24,1.2,3.42,.49,.21,.92,.51,1.36,.55,1.11,.11,2.23,.13,3.35,.13,89.6,0,179.19,0,268.79-.02,3.66,0,7.32-.05,11.23,.77,.83,3.52,.15,7.02,.21,10.47,.06,3.48,.42,6.99-.12,10.61-.96,.2-1.71,.47-2.47,.5-2.24,.1-4.48,.14-6.72,.14-87.52,0-175.03,0-262.55,0-4.3,0-8.62-.21-13.09,.53-.44,1.19-.87,2.36-1.39,3.78-1.13,.4-2.45,.86-3.91,1.37-.13,.77-.37,1.55-.37,2.32,.03,23.98,.09,47.96,.14,72.08,1.28,.55,2.43,1.04,3.87,1.65,.4,1.08,.87,2.38,1.44,3.93,5.63,.24,11.21,.12,16.79,.14,5.76,.02,11.52,0,17.28,0,5.6,0,11.2,0,16.8,0h118.56c5.76,0,11.52,0,17.28,0,5.58,.01,11.16,.04,16.84,.07,1.41,2.97,.58,5.87,.7,8.66,.13,3.03,.07,6.08,.07,9.12,0,2.85-.08,5.7-.58,8.75-1.13,.11-2.05,.25-2.98,.27-3.2,.05-6.4,.07-9.6,.07-76.32,0-152.63,.01-228.95,0-1.72,0-3.45-.1-5.69-.17Z"/>
  <path d="M1882.77,333.75c-2.72-.03-4.94-.08-7.16-.09-39.52,0-79.03,0-118.55,0-4.31,0-8.61-.16-13.01-.24-.77-1.38-1.45-2.59-2.17-3.88-5.03-.38-9.95-.75-14.96-1.12-.28-.68-.53-1.24-.74-1.82-.22-.59-.42-1.19-.72-2.07-2.82-.73-5.72-1.47-8.84-2.27-.42-2.93-.84-5.89-1.3-9.12-1.27-.38-2.6-.77-4.12-1.21-.15-.49-.48-1.07-.5-1.67-.19-6.39-.48-12.79-.47-19.19,.03-16.96,.18-33.91,.3-50.87,0-.94,.15-1.89,.25-2.97,1.25-.46,2.41-.88,3.84-1.41,.55-2.89,1.11-5.84,1.73-9.1,1.31-.26,2.81-.57,4.46-.9,.32-1.4,.64-2.76,1-4.33,3.21-.45,6.35-.9,9.73-1.37,.49-1.16,1.03-2.44,1.6-3.77,6.14-.95,12.21-.82,18.26-.84,20.64-.08,41.28-.06,61.91-.06,22.08,0,44.16-.02,66.23,.06,5.9,.02,11.83-.1,17.93,.87,.61,1.17,1.25,2.41,1.95,3.77,3.23,.44,6.51,.89,9.91,1.36,.3,1.55,.56,2.92,.86,4.48,1.5,.2,2.88,.39,4.46,.6,.57,3.02,1.13,5.95,1.73,9.12,1.2,.49,2.47,1.01,3.98,1.63,.33,8.56,.74,17.16,.27,26.01-1.02,.22-1.9,.52-2.8,.57-3.82,.21-7.67,.16-11.62,1.68-.59,.94-1.34,2.13-2.16,3.43-4.37,.19-8.67,.37-12.97,.55-1.26,.05-2.53-.11-3.58,.95-.33,.33-1.2,.33-1.75,.2-2.84-.68-3.81-1.84-3.75-4.71,.05-2.23,.39-4.46,.51-6.69,.09-1.73,.02-3.48,.02-5.5-1.49-.44-2.95-.87-4.51-1.32-.41-1.22-.8-2.4-1.18-3.53-.6-.19-1.04-.46-1.5-.47-2.24-.05-4.48-.05-6.72-.05-36.64-.02-73.27-.03-109.91-.03-1.41,0-2.83,.14-4.35,.22-.55,1.31-1.03,2.45-1.54,3.67-1.28,.31-2.51,.61-3.75,.91-.18,.49-.48,.93-.48,1.38-.03,2.08,.06,4.15,.05,6.23-.03,8.48-.09,16.96-.12,25.43,0,1.41,.12,2.82,.18,4.27,3.39,.86,6.5,1.36,9.72,1.35,39.2-.05,78.39-.07,117.59-.08,1.91,0,3.82,.11,5.75,.17,.89,1.09,1.68,2.06,2.45,2.99,5.77,1.21,11.55,.92,17.28,1.43,1.73,.15,3.48,.47,5.13,.99,.81,.25,1.79,1,2.05,1.75,.7,2.02,2.01,2.72,4,2.67,.61-.02,1.23,.19,2.07,.33,.29,1.57,.57,3.1,.87,4.75,1.45,.35,2.8,.68,4.24,1.02,1.13,4.85,.76,9.67,1.3,14.68,1.16,.59,2.39,1.22,3.87,1.97,.17,2,.5,4.05,.5,6.1,.04,16,.02,31.99,0,47.99,0,.95-.18,1.9-.3,3.01-1.04,.63-2.11,1.28-3.11,1.89-2.08,4.91-.79,10.19-1.88,15.25-1.32,.3-2.53,.58-3.79,.87-.76,2.82-1.49,5.55-2.29,8.51-2.91,1.07-5.96,1.79-9.24,1.62-.46,1.48-.84,2.66-1.27,4.04-4.12,.98-8.42,1.16-12.69,1.36-6.07,.29-12.15,.41-18.23,.42-39.84,.03-79.67,.06-119.51-.02-7.83-.01-15.66-.42-23.49-.76-2.36-.1-4.71-.6-7.13-.93-.54-1.31-1.02-2.46-1.57-3.79-3.1-.41-6.22-.83-9.55-1.27-.41-1.61-.79-3.11-1.21-4.81-1.18-.57-2.45-1.17-3.58-1.71-2.33-4.47-1.47-9.25-2.25-14.02-1.2-.5-2.48-1.04-3.69-1.54-.17-.37-.41-.65-.42-.94-.19-5.75-.37-11.51-.51-17.26-.05-2.12,.56-4.09,1.55-5.98,2.54-1.15,5.14-1.61,7.9-1.68,5.26-.13,10.52-.5,15.89-.78,.76-1.32,1.45-2.52,2.22-3.85,4.87-.46,9.77-.97,14.97-.24,.15,1.09,.42,2.16,.43,3.22,.04,4.16-.02,8.32-.01,12.48,0,1.58,.09,3.15,.15,4.96,1.07,.21,1.96,.45,2.87,.54,.95,.09,1.92,.03,2.88,.03,42.24,0,84.47,0,126.71-.02,2.37,0,4.78,.29,7.34-.43,.15-.91,.43-1.82,.43-2.73,.03-12.32,.03-24.64,.02-36.96,0-.93-.18-1.85-.34-3.44Z"/>
  <path d="M1602.86,366.29c1.48,.19,2.88,.37,4.49,.58,.3,1.44,.59,2.8,.93,4.42,1.5,.29,3.03,.59,4.78,.93,.25,1.29,.52,2.67,.78,4.01,.28,.2,.51,.51,.78,.55,1.25,.19,2.51,.31,4.02,.49,.36,1.35,.71,2.69,1.06,4.01,.26,.19,.49,.48,.76,.55q3.97,.92,5.49,4.95c2.49,.66,5.09,1.34,7.95,2.1,.34,1.18,.72,2.52,1.09,3.82,.29,.22,.53,.52,.8,.56,1.24,.2,2.5,.33,4.05,.52,.27,1.53,.53,3.04,.81,4.69,1.67,.27,3.2,.53,4.9,.81,.25,1.5,.48,2.86,.72,4.33,1.63,.2,3.03,.37,4.59,.57,.52,1.32,1.03,2.62,1.7,4.32,2.52,.59,5.28,1.24,8.32,1.95,1.26,2.59,.34,5.42-.06,8.19-.16,1.08-2.37,1.42-3.3,.48-.76-.77-1.28-1.79-2.05-2.91-.93-.12-2.01-.36-3.1-.37-6.56-.08-13.11-.12-19.67-.14-8-.02-15.99,0-23.99,0-5.24,0-10.54,.5-15.86-2.21-.17-.75-.44-1.96-.8-3.52-1.49-.34-3.14-.72-4.96-1.13-.23-1.43-.45-2.82-.7-4.4-1.53-.33-3.04-.66-4.65-1-.3-1.45-.59-2.83-.91-4.37-1.46-.25-2.85-.49-4.53-.78-.27-1.48-.54-2.97-.85-4.64-1.53-.22-2.92-.42-4.63-.67-.28-1.41-.57-2.92-.92-4.68-.63-.17-1.36-.39-2.11-.54-.61-.13-1.24-.18-2.11-.3-.29-1.37-.57-2.73-.85-4.02-.33-.23-.56-.52-.83-.57-1.24-.21-2.49-.34-4.04-.54-.26-1.55-.52-3.05-.8-4.73-1.62-.26-3.14-.5-4.83-.76-.25-1.54-.47-2.91-.71-4.44-1.54-.26-2.91-.49-4.47-.75-.36-1.59-.69-3.09-1.06-4.72-1.48-.2-2.87-.39-4.51-.61-.29-1.57-.57-3.07-.88-4.73-1.48-.27-2.87-.52-4.44-.81-.34-1.4-.68-2.75-1.07-4.35-1.27-.24-2.64-.51-3.97-.76-.24-.27-.56-.47-.63-.74-.32-1.21-.58-2.43-.89-3.77-1.52-.34-2.9-.64-4.51-1-.36-1.28-.73-2.61-1.07-3.83-2.69-.96-5.2-1.86-7.89-2.83-.62-1.14-1.3-2.38-1.93-3.52-5.3-.55-38.65-.43-42.55,.18-.12,.82-.33,1.73-.38,2.64-.11,1.91-.18,3.83-.18,5.75,0,20.47,.04,40.94,.05,61.42,0,1.57-.1,3.14-.16,4.87-1.16,.26-2.05,.59-2.96,.63-2.87,.13-5.75,.21-8.63,.22-8.48,.03-16.95,.02-25.43,.01-1.44,0-2.91,.13-4.31-.12-2.01-.36-3.96-1.02-5.89-1.53-.18-.66-.42-1.11-.42-1.56,0-64.61,.03-129.23,.06-193.84,0-.62,.21-1.23,.34-1.99,2.94-.97,5.91-1.21,8.94-1.2,35.19,.02,70.37,.02,105.56,.02,21.27,0,42.54,0,63.81,.04,4.16,0,8.31,.18,12.47,.3,.8,.02,1.6,.1,2.38,.23,2.49,.41,4.74,1.14,4.97,4.29,1.91,.24,3.63,.46,5.56,.7,.8,2.66,2.27,4.83,5.37,5.25,.35,1.56,.66,2.92,.99,4.4,1.3,.3,2.51,.58,3.74,.86,.22,.5,.54,.92,.57,1.36,.17,2.55,.06,5.14,.45,7.65,.47,3.06,.12,6.67,4.31,7.77,.05,19.38,.03,38.39,.01,57.39-1.17,.92-2.16,1.69-3.49,2.74-.5,4.62-1.03,9.5-1.59,14.63-.75,.12-1.5,.24-2.25,.37-.61,.11-1.22,.24-1.7,.33-.24,.46-.47,.72-.52,1.01q-.69,3.9-4.26,5.33c-.43,1.1-.89,2.27-1.41,3.61-1.72,.24-3.42,.48-5.33,.75-.47,1.11-.96,2.25-1.49,3.5-2.56,.83-5.16,1.37-7.92,1.37-9.75,.02-19.51,.15-29.26,.2-3.17,.02-6.34-.02-9.72,.17v4.75c1.33,.44,2.65,.88,4.16,1.37,.25,1.14,.52,2.36,.86,3.89,1.57,.26,3.25,.53,5.19,.84,.25,1.35,.51,2.71,.78,4.17,.37,.19,.76,.5,1.2,.59,1.23,.24,2.47,.39,3.84,.59,.34,1.35,.65,2.55,.95,3.76,2.82,.83,5.53,1.63,8.33,2.45,.52,1.39,1.01,2.71,1.54,4.12Zm-128.77-117.52c-.27,1.61-.69,3.01-.7,4.41-.1,15.82-.16,31.64-.17,47.45,0,1.88,.36,3.76,.56,5.72,2.07,.66,3.99,.44,5.86,.44,32.76,.02,65.53,.02,98.29,.01,2.08,0,4.16,.02,6.23-.09,1.42-.08,2.84-.36,4.25-.61,1.15-.21,2.19-.72,2.46-1.98,.41-1.96,1.73-2.49,3.51-2.53,.77-.02,1.54-.25,2.25-.37,1.29-7.46,1.15-41.08-.2-47.53-3.03-.46-6.14-.94-9-1.38-.76-1.44-1.34-2.54-2-3.78-3.3-.07-6.48-.2-9.66-.21-29.25-.01-58.5,0-87.74,0-3.36,0-6.71-.03-10.07,.03-1.24,.02-2.47,.25-3.87,.41Z"/>
  <path d="M1057.97,216.12c.51,1.28,.97,2.43,1.48,3.74,3.05,.44,6.03,.88,9.26,1.35,.31,1.31,.62,2.66,.96,4.1,.36,.18,.75,.49,1.19,.59,1.07,.22,2.15,.34,3.39,.53,.25,1.54,.47,2.93,.75,4.63,1.24,.34,2.57,.7,3.91,1.06,.17,.26,.46,.51,.48,.77,.39,7.66,.99,15.32,1.08,22.98,.18,13.92,.2,27.84,0,41.76-.11,7.5-.82,14.99-1.28,22.48-.03,.46-.25,.91-.43,1.54-1.24,.51-2.54,1.04-4.08,1.67-.25,1.44-.52,2.97-.82,4.72-1.61,.31-3.14,.6-4.71,.9-.44,1.44-.84,2.77-1.31,4.31-6.28,.63-12.45,1.24-18.63,1.85-.5,.87-.96,1.51-1.27,2.22-.5,1.19-1.41,1.71-2.62,1.74-2.56,.07-5.12,.12-7.68,.12-39.52,0-79.04,0-118.56,.02-2.03,0-4.12-.3-6.3,.58-.72,5-.21,9.94-.3,14.85-.09,4.96-.02,9.92-.02,14.88s0,9.92,0,14.88c0,4.96,0,9.92,0,14.88s0,9.9,0,14.95c-2.45,1.37-5.04,1.38-7.51,1.4-11.04,.11-22.08,.09-33.12,.01-2.21-.02-4.41-.48-6.44-.71-1.2-1.52-.82-3.01-.83-4.4-.01-10.72,.04-21.44,.04-32.16,0-51.68-.03-103.36-.04-155.03,0-2.23,0-4.46,0-6.89,1.11-.28,1.99-.62,2.88-.69,2.23-.17,4.47-.3,6.7-.3,52.8-.01,105.6-.02,158.39,.02,7.52,0,15.03,.23,22.55,.38,.94,.02,1.88,.18,2.87,.28Zm-144.31,32.69c-.26,.7-.53,1.14-.57,1.59-.25,2.85-.62,5.71-.63,8.57-.07,12.46-.04,24.93-.01,37.39,0,1.7-.33,3.49,.54,4.98,1.85,1.02,3.64,.68,5.36,.68,32.6,.02,65.19,.03,97.79-.02,4.63,0,9.25-.33,13.88-.55,.42-.02,.83-.4,1.32-.65,.23-1.23,.46-2.45,.72-3.86,1.44-.26,2.79-.5,4.27-.77,.12-.99,.3-1.76,.3-2.54,.04-10.86,.09-21.73,.06-32.59,0-2.36-.41-4.69-.92-7.08-3.19-.54-6.14-1.04-9.12-1.54-.64-1.29-1.26-2.53-1.8-3.63-6.13-.65-106.96-.65-111.19,.01Z"/>
  <path d="M2584.2,372.02c-.39,1.99-.66,3.38-.94,4.81-1.52,.3-2.89,.58-4.47,.89-.35,3.27-.68,6.4-1.03,9.66-1.47,.33-2.83,.64-4.27,.97-.49,3.1-.97,6.07-1.48,9.29-1.27,.44-2.58,.89-4.09,1.42-.32,3.13-.64,6.26-.98,9.61-1.42,.38-2.76,.75-4.2,1.14-.16,.35-.46,.75-.53,1.19-.2,1.24-.3,2.5-.44,3.75-2.43,1.07-4.87,.89-7.22,.91-10.56,.1-21.12,.02-31.68,.06-3.93,.01-5.13-.74-4.53-5.2,.27-2.03,.7-4.04,1.09-6.22,1.42-.3,2.79-.59,4.37-.93,.36-3.14,.71-6.27,1.09-9.58,1.46-.32,2.8-.61,4.12-.89,.56-3.19,1.07-6.16,1.63-9.36,1.16-.29,2.37-.6,3.74-.95,.66-2.97,1.33-6.02,2.01-9.1,1.32-.58,2.46-1.09,3.8-1.68,.22-1.66,.45-3.36,.71-5.3,1.33-.34,2.67-.69,4.1-1.06,.47-3.09,.91-6.07,1.39-9.22,1.35-.32,2.71-.65,4.38-1.05,.33-3.08,.67-6.21,1.03-9.5,1.44-.33,2.81-.64,4.47-1.02,.43-3.07,.87-6.17,1.31-9.31,1.48-.52,2.79-.98,4.2-1.47,.16-1.7,.31-3.26,.47-4.97,1.32-.61,2.59-1.2,4.14-1.92,.55-2.8,1.12-5.73,1.75-8.9,1.29-.23,2.66-.47,4.2-.74,.38-3.29,.73-6.43,1.11-9.74,1.41-.33,2.76-.65,4.33-1.01,.36-3.1,.73-6.23,1.11-9.52,1.52-.32,2.87-.61,4.4-.93,.26-1.76,.51-3.46,.78-5.3,1.27-.37,2.45-.72,3.92-1.15,.5-3.1,1.01-6.2,1.53-9.41,1.32-.28,2.54-.54,3.89-.83,1.2-3,.8-6.26,1.39-9.66,1.36-.26,2.7-.52,4.27-.81,.46-3.19,.92-6.3,1.4-9.66,1.35-.29,2.7-.58,4.24-.92,.19-1.69,.37-3.24,.57-5.03,1.33-.4,2.66-.8,4.25-1.27,.49-3.13,.98-6.25,1.51-9.57,1.22-.41,2.55-.86,4.06-1.38,.4-3,.8-5.97,1.23-9.2,1.45-.42,2.92-.84,4.44-1.28,.41-2.96,.8-5.79,1.22-8.77,1.37-.43,2.71-.85,4.29-1.34,.26-1.47,.53-3,.8-4.55,.52-.16,.97-.43,1.42-.43,13.44-.05,26.87-.1,40.31-.08,1.88,0,3.76,.37,5.79,.59,.44,3.14,.86,6.1,1.32,9.29,1.4,.37,2.74,.72,4.33,1.14,.25,1.62,.51,3.31,.81,5.23,1.12,.4,2.28,.81,3.55,1.26,1.31,2.91,1.34,6.12,1.69,9.24,1.71,.35,3.08,.64,4.58,.95,.32,3.16,.63,6.15,.97,9.45,1.44,.36,2.92,.73,4.48,1.12,.42,3.13,.83,6.12,1.27,9.37,1.28,.31,2.62,.64,4.19,1.03,.18,1.57,.37,3.12,.55,4.68,.18,.25,.31,.65,.55,.74,3.48,1.3,4.61,4.09,4.82,7.48,.06,.93,.16,1.86,.26,2.87,1.54,.36,2.89,.68,4.33,1.01,.39,3.15,.76,6.15,1.17,9.44,1.37,.38,2.85,.78,4.47,1.23,.26,3.08,.51,6.07,.78,9.33,1.52,.36,3,.71,4.7,1.11,.34,3.07,.68,6.05,1.04,9.31,1.32,.4,2.65,.81,4.08,1.25,.15,.35,.44,.76,.49,1.19,.14,1.1,.17,2.22,.26,3.57,1.47,.5,2.93,.99,4.66,1.58,.34,2.9,.68,5.89,1.06,9.18,1.23,.32,2.58,.66,4.27,1.09,.45,2.94,.92,6.05,1.44,9.44,1.26,.32,2.59,.66,3.96,1.01,.62,3.07,1.24,6.16,1.87,9.26,1.4,.49,2.58,.91,3.92,1.38,.23,1.69,.46,3.39,.72,5.25,1.28,.32,2.48,.61,4.02,1,.46,2.98,.93,6.09,1.44,9.38,1.41,.3,2.77,.59,4.35,.93,.38,3.1,.76,6.23,1.16,9.51,1.49,.31,2.86,.59,4.27,.88,.54,3.08,1.06,6.03,1.6,9.11,1.28,.46,2.45,.88,3.88,1.39,.21,1.57,.44,3.28,.7,5.29,1.26,.36,2.58,.74,4.07,1.17,1.31,2.89,.91,6.15,1.41,9.52,1.36,.31,2.7,.62,3.92,.89,.23,.44,.46,.7,.51,.99,.28,1.56,.57,3.13,.74,4.71,.12,1.1,.16,2.23,.03,3.33-.12,1.01-.79,1.76-1.86,1.9-.95,.12-1.91,.15-2.87,.15-11.84,0-23.68,0-35.51-.07-2.68-.02-5.42,.32-8.22-.68-.32-1.55-.64-3.07-.99-4.78-.8-.14-1.55-.27-2.3-.42-.62-.12-1.23-.27-2.01-.45-.38-3.18-.76-6.31-1.16-9.59-1.33-.32-2.53-.6-3.78-.9-.22-.43-.56-.83-.61-1.27-.16-1.26-.21-2.54-.31-3.94-1.25-.69-2.49-1.36-3.66-2-1.68-2.76-1.68-5.83-1.92-8.95-1.21-.54-2.35-1.05-3.77-1.68-.67-2.56-1.38-5.31-2.16-8.32-1.84-.93-4.12-.67-6.3-.81-2.23-.15-4.48,0-6.72,0-35.2,0-70.39-.01-105.59,0-3.02,0-6.03,.09-9.31,.15Zm21.06-37.78c1.63,.2,2.87,.49,4.11,.49,9.27-.04,18.55-.18,27.82-.19,15.2-.02,30.39,.04,45.59,.02,2.68,0,5.43,.27,8.23-.87v-4.31c-1.62-.37-3.1-.7-4.79-1.08-.21-3.2-.41-6.22-1.55-8.89-1.34-.55-2.5-1.02-3.7-1.51-.19-1.86-.37-3.56-.56-5.32-1.42-.66-2.69-1.25-3.63-1.68-2.28-4.45-1.18-9.16-2.53-13.5-.7-.22-1.29-.42-1.88-.59-.73-.21-1.48-.39-2.27-.59-.26-1.74-.5-3.29-.76-5.01-1.41-.36-2.75-.7-4.27-1.08-.34-3.22-.67-6.36-1.02-9.63-1.52-.31-2.89-.59-4.53-.92-.31-3.36-.62-6.66-.92-9.87-1.56-.44-2.9-.82-4.11-1.17-.77-3.33-.31-6.58-1.33-9.82-3.31-.24-6.44-.63-9.76,.21-.38,3.33-.75,6.61-1.12,9.95-1.62,.32-2.96,.58-4.39,.87-.33,3.4-.29,6.62-1.63,9.51-1.35,.4-2.53,.75-3.78,1.12-.53,3.26-.37,6.49-1.53,9.42-1.36,.4-2.54,.74-3.75,1.09-.28,1.91-.52,3.61-.77,5.3-1.34,.49-2.5,.92-3.67,1.34-.43,1.51-.93,2.87-1.2,4.27-.24,1.25-.2,2.54-.35,3.81-.05,.44-.32,.86-.48,1.29-1.29,.28-2.52,.55-3.96,.86-.48,3.2-.95,6.32-1.46,9.68-1.34,.31-2.69,.61-4.11,.94-.41,3.27-.8,6.39-1.19,9.5-1.75,.46-3.23,.85-4.76,1.25v5.1Z"/>
  <path d="M794.4,215.73v4.77c-1.7,.42-3.22,.79-4.92,1.21-.15,.76-.32,1.51-.45,2.27-.11,.62-.16,1.25-.27,2.15-1.29,.41-2.61,.82-4.01,1.26-.46,1.33-.64,2.87-1.46,3.9-.7,.89-2.14,1.19-3.62,1.95-.97,2.26-2.1,4.87-3.25,7.53-1.25,.58-2.54,1.17-3.9,1.8-.24,1.3-.48,2.54-.75,4-.47,.16-1.04,.52-1.62,.54-1.95,.07-3.46,.66-3.88,2.78-.25,1.25-1.08,1.85-2.23,2.24-.73,.25-1.39,.72-2.17,1.13-.21,1.45-.4,2.85-.61,4.33-1.65,.43-3.15,.83-4.77,1.25-.26,1.51-.49,2.89-.76,4.48-1.41,.22-2.79,.44-4.37,.69-.3,1.62-.58,3.13-.9,4.84-1.49,.25-2.87,.48-4.49,.75-.29,1.45-.58,2.96-.91,4.61-1.45,.24-2.83,.48-4.44,.75-.36,1.53-.72,3.03-1.11,4.72-1.38,.22-2.75,.45-4.26,.69-.23,1.73-.43,3.26-.65,4.96-1.59,.22-2.98,.41-4.57,.63-.26,1.46-.5,2.83-.77,4.33-.33,.17-.71,.5-1.14,.58-1.08,.22-2.18,.33-3.4,.5-.24,1.52-.46,2.9-.72,4.56-1.5,.29-3.01,.59-4.76,.93-.11,.73-.24,1.49-.35,2.25-.09,.62-.15,1.24-.2,1.72-.41,.33-.62,.64-.89,.69-1.23,.24-2.48,.41-4.01,.65-.58,3.33-.71,6.57-.05,10.04,1.56,.21,2.95,.39,4.6,.61,.3,1.42,.61,2.92,.94,4.53,1.5,.22,2.89,.43,4.53,.68,.31,1.56,.61,3.07,.95,4.81,1.34,.22,2.72,.44,4.41,.72,.26,1.46,.52,2.97,.82,4.68,.87,.16,1.62,.31,2.38,.43,.63,.1,1.26,.16,1.95,.25,.22,.44,.53,.83,.6,1.26,.19,1.08,.28,2.17,.42,3.42,1.53,.23,2.91,.44,4.46,.68,.33,1.58,.65,3.11,1,4.8,1.41,.24,2.79,.48,4.45,.76,.26,1.46,.53,2.98,.82,4.57,1.54,.26,2.93,.49,4.64,.78,.26,1.52,.51,3.02,.81,4.74,1.47,.18,2.85,.35,4.46,.54,.29,1.63,.56,3.15,.86,4.86,1.49,.24,2.88,.47,4.37,.71,.17,.36,.46,.76,.54,1.19,.19,1.07,.28,2.16,.43,3.34,1.61,.22,3,.41,4.6,.62,.32,1.59,.62,3.11,.96,4.83,1.36,.23,2.74,.46,4.44,.74,.22,1.45,.45,2.96,.7,4.63,1.63,.32,3.16,.62,4.81,.95,.2,1.51,.38,2.9,.59,4.52,1.51,.21,2.89,.39,4.18,.57,.28,.33,.6,.53,.65,.8,.26,1.23,.44,2.48,.69,4.02,1.54,.24,3.04,.48,4.74,.75,.18,1.54,.35,2.92,.54,4.47,1.67,.3,3.19,.57,4.85,.87,.14,.95,.26,1.71,.37,2.47,.09,.63,.16,1.26,.27,2.1,1.52,.3,3.03,.6,4.64,.92,.23,1.5,.44,2.89,.68,4.51,1.57,.33,3.08,.64,4.75,.99,.19,1.47,.37,2.86,.58,4.44,1.51,.22,2.9,.43,4.33,.64,.22,.43,.53,.82,.62,1.25,.22,1.08,.34,2.18,.52,3.46,1.61,.29,3.11,.56,4.65,.83,.96,2.86,.08,5.52-.31,8.16-.08,.59-.92,1.27-1.57,1.52-.94,.37-1.93,.05-2.47-.9-.47-.82-.81-1.71-1.34-2.83-1.73-.06-3.45-.17-5.18-.18-12.96-.01-25.92,0-38.87,0-2.4,0-4.82,.13-7.19-.14-2.18-.25-4.31-.96-6.71-1.53-.2-1.33-.41-2.7-.64-4.24-1.51-.35-2.87-.66-4.27-.98-.24-.42-.59-.8-.69-1.24-.25-1.07-.38-2.16-.6-3.45-1.44-.31-2.79-.6-3.97-.86-.91-2.8-1.74-5.34-2.64-8.07-1.19-.57-2.46-1.19-3.91-1.88-.33-1.27-.68-2.64-1.08-4.15-2.91-.61-6.15-.99-4.88-5.4-1.74-.43-3.09-.77-4.63-1.15-.42-1.45-.86-2.95-1.35-4.59-1.36-.33-2.72-.66-4.27-1.03-.23-1.43-.46-2.8-.7-4.32-1.46-.31-2.83-.6-4.36-.93-.32-1.61-.63-3.13-.97-4.86-1.36-.21-2.75-.43-4.47-.7-.27-1.43-.55-2.93-.88-4.65-1.54-.3-3.05-.59-4.72-.92-.21-1.5-.41-2.88-.63-4.45-1.54-.22-2.92-.41-4.46-.63-.3-1.67-.57-3.19-.88-4.9-.85-.13-1.61-.25-2.37-.36-.63-.09-1.26-.15-2.12-.26-.26-1.54-.52-3.07-.82-4.81-1.3-.34-2.65-.69-4.32-1.13-.31-1.2-.65-2.55-1.03-4.02-1.47-.78-3.02-.54-4.81-.22-.41,1.27-.84,2.59-1.32,4.08-1.32,.32-2.68,.65-4.2,1.01-.24,1.69-.46,3.21-.7,4.89-1.52,.25-2.88,.47-4.32,.71-.28,1.73-.53,3.26-.81,4.92-1.57,.24-2.96,.46-4.53,.7-.23,1.42-.46,2.8-.68,4.15-.27,.23-.48,.53-.75,.6-1.21,.29-2.44,.52-3.77,.79-.29,1.55-.54,2.93-.84,4.54-1.4,.31-2.75,.62-4.18,.94-.77,2.66-1.54,5.37-2.36,8.2-1.34,.61-2.62,1.2-4.12,1.89-.3,1.23-.64,2.59-.98,3.95-1.45,.48-2.78,.92-4.26,1.41-.26,1.49-.51,2.88-.77,4.38-.35,.18-.74,.48-1.17,.57-1.06,.23-2.14,.37-3.32,.56-.21,1.6-.4,3-.63,4.7-1.43,.3-2.93,.62-4.67,.98-.24,1.47-.49,3.01-.78,4.73-1.39,.3-2.75,.59-4.38,.93-.22,1.31-.45,2.69-.65,3.94-.36,.3-.58,.62-.85,.68-1.23,.27-2.47,.46-3.95,.72-.24,1.62-.47,3.14-.72,4.79-1.3,.39-2.49,.74-3.65,1.09-.26,.53-.52,.93-.65,1.37-.98,3.21-1.16,3.43-4.13,3.56-2.4,.11-4.8,.1-7.2,.1-10.4,0-20.8,0-31.19,0-1.9,0-3.81,.09-5.63,.14-1.58,1.53-1.95,4.72-5.37,3.13-.58-2.62-1.27-5.37-.4-8.49,1.28-.33,2.63-.67,4.05-1.03,.18-.4,.47-.81,.54-1.25,.17-1.09,.24-2.19,.37-3.46,1.48-.28,2.86-.53,4.54-.84,.33-1.41,.67-2.9,1.07-4.63,1.37-.2,2.74-.4,4.3-.63,.27-1.68,.51-3.19,.78-4.89,1.52-.21,2.91-.4,4.6-.64,.28-1.47,.57-2.98,.91-4.79,1.25-.26,2.61-.53,4.08-.84,.16-.35,.45-.75,.53-1.19,.2-1.08,.3-2.18,.46-3.39,1.65-.34,3.16-.65,4.76-.98,.2-1.57,.38-2.97,.59-4.58,1.44-.28,2.81-.55,4.13-.81,.23-.3,.52-.52,.58-.79,.28-1.22,.5-2.46,.76-3.84,1.52-.32,2.89-.6,4.5-.93,.23-1.31,.46-2.7,.74-4.34,1.15-.53,2.41-1.12,3.68-1.71,.17-.26,.41-.51,.5-.79,2.2-6.86,2.26-6.93,10.33-10.07,1.02-2.47,2.04-5.11,1.99-8.18,1.7-.39,3.2-.74,4.82-1.12,.28-1.57,.52-2.95,.81-4.57,1.28-.25,2.65-.52,3.99-.78,.21-.28,.51-.5,.56-.77,.23-1.24,.39-2.48,.61-3.96,1.57-.31,3.07-.61,4.75-.94,.19-1.47,.38-2.86,.6-4.55,1.39-.24,2.75-.47,4.16-.71,.24-.44,.58-.82,.66-1.25,.2-1.09,.28-2.19,.44-3.55,1.46-.25,2.83-.48,4.31-.73,.17-.33,.49-.73,.57-1.16,.18-1.09,.25-2.2,.39-3.51,1.58-.31,3.11-.61,4.81-.94,.94-3.11,.33-6.22,.08-9.61-1.64-.3-3.15-.58-4.91-.91-.26-1.35-.52-2.71-.82-4.29-1.37-.28-2.74-.55-4.11-.83-.29-.45-.67-.82-.76-1.25-.25-1.08-.36-2.19-.56-3.46-1.42-.26-2.79-.51-4.44-.81-.26-1.36-.53-2.72-.83-4.3-1.49-.38-2.99-.76-4.66-1.18-.23-1.45-.44-2.83-.69-4.47-1.32-.24-2.69-.5-4-.74-.24-.3-.55-.51-.6-.78-.23-1.24-.38-2.49-.6-4.05-1.53-.25-3.04-.49-4.83-.78-.14-.69-.31-1.43-.44-2.18-.11-.61-.17-1.23-.29-2.07-1.58-.33-3.08-.65-4.76-1-.27-1.52-.52-2.9-.81-4.53-1.28-.25-2.65-.51-4.14-.8-.19-.34-.52-.72-.6-1.15-.21-1.08-.31-2.17-.48-3.49-1.6-.34-3.1-.67-4.76-1.02-.2-1.51-.39-2.89-.59-4.39-1.58-.25-2.96-.47-4.47-.72-.36-1.62-.7-3.14-1.06-4.81-1.46-.23-2.85-.44-4.47-.7-.23-1.46-.45-2.83-.69-4.32-.34-.19-.72-.51-1.15-.6-1.08-.23-2.18-.35-3.5-.55-.29-1.42-.56-2.78-.87-4.29-.3-.15-.69-.45-1.13-.53-1.07-.21-2.16-.32-3.37-.48-.26-1.56-.49-2.95-.76-4.64-1.45-.3-2.96-.61-4.7-.97-.23-1.3-.48-2.67-.72-4.02-.26-.21-.47-.52-.73-.58-1.23-.25-2.47-.44-3.9-.68-.3-1.49-.57-2.87-.86-4.33-.41-.17-.81-.44-1.25-.51-1.07-.17-2.16-.25-3.37-.38-.23-1.62-.43-3.01-.65-4.55-1.58-.35-3.11-.69-4.63-1.02-.17-.56-.39-1-.42-1.46-.06-.94-.02-1.89-.02-3.03,1.07-.26,1.96-.66,2.85-.66,18.08,0,36.15,.05,54.23,.1,.62,0,1.24,.16,2.14,.28,.31,1.38,.61,2.72,.95,4.21,1.4,.28,2.77,.55,4.33,.87,.31,1.6,.6,3.13,.94,4.89,.69,.13,1.44,.28,2.2,.4,.62,.09,1.25,.14,2.16,.24,.32,1.35,.63,2.69,.94,4.02,.25,.21,.47,.52,.74,.57,1.23,.26,2.47,.46,3.89,.71,.22,1.53,.43,2.91,.65,4.42,.34,.18,.73,.51,1.16,.58,1.08,.2,2.19,.28,3.42,.42,.33,1.63,.65,3.17,.99,4.84,1.44,.26,2.82,.51,4.42,.79,.2,1.4,.41,2.78,.6,4.1,.3,.25,.5,.57,.76,.63,1.23,.25,2.48,.43,4,.69,.26,1.56,.52,3.07,.81,4.78,1.47,.2,2.85,.38,4.43,.59,.27,1.65,.51,3.17,.78,4.85,1.57,.28,2.95,.53,4.58,.82,.28,1.43,.57,2.93,.89,4.56,1.48,.28,2.85,.54,4.37,.83,.36,1.6,.7,3.13,1.06,4.78,1.31,.26,2.54,.5,3.85,.76,.19,.38,.51,.77,.6,1.21,.23,1.07,.36,2.15,.55,3.36,1.48,.41,2.82,.79,4.22,1.18,.46,1.4,.89,2.73,1.32,4.04,3.37,1.15,6.42-.31,9.76-.32,.35-1.66,.67-3.17,1.03-4.88,1.23-.35,2.43-.69,3.94-1.13,.73-2.53,1.52-5.23,2.42-8.33,1.11-.39,2.56-.91,4.15-1.47,.23-1.44,.46-2.83,.72-4.41,1.47-.27,2.84-.52,4.24-.78,.24-.45,.58-.84,.65-1.27,.17-1.09,.22-2.2,.34-3.57,1.54-.29,3.05-.58,4.66-.88,.25-1.51,.48-2.91,.77-4.59,1.46-.32,2.94-.65,4.64-1.03,.16-1.44,.31-2.82,.49-4.46,1.62-.29,3.12-.57,4.79-.87,.25-1.7,.47-3.23,.72-4.94,1.55-.23,2.92-.44,4.36-.66,.26-1.58,.49-2.97,.75-4.53,1.56-.42,3.05-.82,4.71-1.27,.25-1.4,.49-2.78,.74-4.18,1.25-.61,2.39-1.16,3.79-1.84,.86-2.49,1.77-5.16,2.79-8.11,2.42-.49,5.06-.97,7.77-.97,13.76,0,27.52-.03,41.27-.03,1.1,0,2.19,.17,3.77,.31Z"/>
  <path d="M2287.5,215.62h42.41c.23,1,.55,1.88,.6,2.78,.1,1.75,.05,3.52,.05,5.28-.02,49.57-.04,99.15-.05,148.72,0,1.4,.15,2.8,.25,4.41,3.07,.53,5.92,.51,8.76,.51,31.82,0,63.65,0,95.47,0,13.43,0,26.87-.01,40.3,.02,1.72,0,3.5-.26,5.09,.41,.97,4.48,1.27,31.43,.42,37.14-.78,.22-1.66,.62-2.56,.68-2.07,.13-4.16,.11-6.23,.11-59.81,0-119.61,0-179.42,.01-.96,0-1.92,.03-2.88-.04-2.25-.16-3.24-1.02-3.52-3.13-.13-.94-.09-1.91-.09-2.87,.04-59.97,.08-119.93,.12-179.9,0-3.04-.07-6.08-.03-9.11,.02-1.58-.08-3.22,1.32-5.02Z"/>
</svg>