<?xml version="1.0" encoding="UTF-8" standalone="no"?>
<!-- Created with Inkscape (http://www.inkscape.org/) -->

<svg
   xmlns:dc="http://purl.org/dc/elements/1.1/"
   xmlns:cc="http://creativecommons.org/ns#"
   xmlns:rdf="http://www.w3.org/1999/02/22-rdf-syntax-ns#"
   xmlns:svg="http://www.w3.org/2000/svg"
   xmlns="http://www.w3.org/2000/svg"
   version="1.1"
   width="1052.3622"
   height="744.09448"
   id="svg2"
   xml:space="preserve"><metadata
     id="metadata8"><rdf:RDF><cc:Work
         rdf:about=""><dc:format>image/svg+xml</dc:format><dc:type
           rdf:resource="http://purl.org/dc/dcmitype/StillImage" /><dc:title></dc:title></cc:Work></rdf:RDF></metadata><defs
     id="defs6" /><g
     transform="matrix(1.25,0,0,-1.25,0,744.09446)"
     id="g10"><g
       transform="scale(1,-1)"
       id="g12"><path
         d="m 95.60645,-498.94238 c 0,0 0.06933,6.75097 0.06933,6.75097 0,0 -58.81103,2.08741 -58.81103,22.26709 0,25.47022 -0.06104,111.06592 -0.06104,111.06592 0,0 53.44483,0 53.44483,0 0,0 0.13867,8.35059 0.13867,8.35059 0,0 -53.44483,0 -53.44483,0 0,0 -0.24609,176.07129 -0.24609,176.07129 0,0 -28.7915,0 -28.7915,0 0,0 0.00976,-295.4878 0.00976,-295.4878 0,0 -1.45264,-33.61084 87.6919,-29.01806 z"
         id="path14"
         style="fill:#4c3c24;fill-opacity:1;fill-rule:nonzero;stroke:none" /><path
         d="m 220.58301,-469.2251 c 0,0 -0.003,261.48682 -0.003,261.48682 0,0 1.88867,27.82812 -27.47754,27.82812 -29.36719,0 -28.88818,-27.82812 -28.88818,-27.82812 0,0 -0.12061,-262.04736 -0.12061,-262.04736 0,-25.31006 27.22119,-22.7295 29.14746,-22.7295 30.20215,0 27.3418,23.29004 27.3418,23.29004 z m -27.3418,-30.14355 c 0,0 -55.95019,-3.6958 -55.95019,35.73779 0,39.43213 0,264.70313 0,264.70313 0,0 -4.59278,25.3916 55.95019,25.3916 0,0 56.36817,3.13281 56.36817,-25.3916 0,-28.52637 0,-265.12305 0,-265.12305 0,0 1.25195,-35.31787 -56.36817,-35.31787 z"
         id="path16"
         style="fill:#4c3c24;fill-opacity:1;fill-rule:nonzero;stroke:none" /><path
         d="m 389.69434,-498.94238 c 0,0 0.0684,6.75097 0.0684,6.75097 0,0 -58.81153,2.08741 -58.81153,22.26709 0,25.47022 -0.16797,295.4878 -0.16797,295.4878 0,0 -28.79101,0 -28.79101,0 0,0 0.009,-295.4878 0.009,-295.4878 0,0 -1.45215,-33.61084 87.69336,-29.01806 z"
         id="path18"
         style="fill:#4c3c24;fill-opacity:1;fill-rule:nonzero;stroke:none" /><path
         d="m 442.79004,-470.71045 c 0,-22.93994 30.0625,-22.87256 30.0625,-22.87256 33.07324,0 28.39258,22.87256 28.39258,22.87256 0,0 0,112.75732 0,112.75732 0,0 -58.45508,0 -58.45508,0 0,0 0,-89.81689 0,-112.75732 z m 0.0606,261.51709 c 0,0 -0.0606,-141.78223 -0.0606,-141.78223 0,0 85.38672,0 85.38672,0 0,0 -0.20899,-118.89648 -0.20899,-118.89648 0,0 1.66993,-29.30566 -55.11523,-29.30566 -56.78516,0 -57.30566,28.46728 -57.30566,28.46728 0,0 0,261.51709 0,261.51709 0,0 -3.9336,37.68262 98.85058,34.05176 0,0 0,-5.02442 0,-5.02442 0,0 -71.95996,1.05176 -71.54687,-29.02734 z"
         id="path20"
         style="fill:#4c3c24;fill-opacity:1;fill-rule:nonzero;stroke:none" /><path
         d="m 566.38086,-498.45557 c 0,0 28.11426,0 28.11426,0 0,0 47.87793,266.6958 47.87793,266.6958 0,0 38.96972,-266.6958 38.96972,-266.6958 0,0 16.98047,0 16.98047,0 0,0 -48.71289,324.01905 -48.71289,324.01905 0,0 -21.71191,0 -21.71191,0 0,0 -61.51758,-324.01905 -61.51758,-324.01905 z"
         id="path22"
         style="fill:#4c3c24;fill-opacity:1;fill-rule:nonzero;stroke:none" /><path
         d="m 782.94531,-180.42871 c -30.06347,0 -30.89843,-22.82617 -30.89843,-22.82617 0,0 0,-140.57227 0,-161.16992 0,-20.59815 30.89843,-18.37159 30.89843,-18.37159 29.7002,0.55616 28.94824,18.92823 28.94824,18.92823 0,0 0,151.42773 0,160.61328 0,8.96093 1.11426,22.82617 -28.94824,22.82617 z M 751.48926,-499.4292 c 0,0 0,6.68066 0,6.68066 0,0 60.40429,-2.50537 60.40429,25.33057 0,27.83545 0,85.17774 0,85.17774 0,0 -1.39062,0 -1.39062,0 0,0 -0.88965,-6.68067 -27.83691,-6.68067 -26.94727,0 -55.9502,6.90625 -55.9502,33.40332 0,26.4961 0,152.2627 0,152.2627 0,0 4.95996,28.11328 56.22949,28.11328 0,0 57.34082,4.4043 57.34082,-28.11328 0,-32.51758 0,-264.16309 0,-264.16309 0,0 3.00586,-32.01123 -88.79687,-32.01123 z"
         id="path24"
         style="fill:#4c3c24;fill-opacity:1;fill-rule:nonzero;stroke:none" /></g></g></svg>