<?xml version="1.0" encoding="UTF-8"?>
<svg id="svg16" xmlns="http://www.w3.org/2000/svg" viewBox="0 0 283.52 83.47">
  <defs>
    <style>
      .cls-1 {
        fill: #fff;
      }

      .cls-2 {
        fill: #00aff0;
      }
    </style>
  </defs>
  <rect class="cls-1" x="92.48" y="21.96" width="2.74" height="40.76"/>
  <path class="cls-1" d="M31.28,25.61c-11.79,.03-21.33,9.62-21.3,21.41,.03,11.79,9.62,21.33,21.41,21.3,11.78-.03,21.31-9.59,21.3-21.37-.02-11.8-9.61-21.36-21.41-21.34Zm0,40.47h0c-10.56-.01-19.11-8.6-19.08-19.16,.02-10.26,8.13-18.67,18.38-19.07,10.56-.41,19.45,7.81,19.86,18.36,0,.25,.01,.49,.01,.74-.02,10.58-8.6,19.14-19.17,19.13Z"/>
  <path class="cls-1" d="M70.87,33.58c-5.19,0-8.38,2.63-10.28,5.98v-5.31h-2.73v28.48h2.73v-16.47c0-5.92,4.3-10.17,9.88-10.17s9.04,3.85,9.04,9.71v16.92h2.74v-17.4c0-6.81-4.19-11.73-11.39-11.73Z"/>
  <path class="cls-1" d="M102.97,34.25l13.67,28.31c-2.12,4.97-4.08,6.7-7.04,6.7-1.68,.06-3.35-.3-4.85-1.06l-.95,2.4c1.76,.83,3.7,1.25,5.65,1.23,4.08,0,6.98-2.13,9.49-8.1l12.34-29.49h-3.02l-10.27,25.46-11.84-25.46h-3.18Z"/>
  <g>
    <path class="cls-2" d="M170.49,32.01c1.33,0,2.32,.34,2.96,1.02,.65,.68,.97,1.43,.97,2.24,0,.29-.07,.42-.22,.39-.15-.03-.4-.13-.75-.29-.36-.16-.82-.33-1.39-.51-.57-.18-1.27-.27-2.11-.27-3.66,0-7.06,.24-10.21,.73-2.01,2.92-4.07,5.86-6.17,8.84-2.11,2.98-4.03,5.86-5.76,8.63s-3.16,5.35-4.28,7.75c-1.12,2.4-1.68,4.47-1.68,6.22,0,.32,0,.66-.02,1.02-.02,.36-.06,.68-.12,.97-.07,.29-.19,.53-.39,.73s-.45,.29-.78,.29c-.52,0-1.02-.16-1.51-.49-.49-.32-.92-.76-1.29-1.31-.37-.55-.67-1.2-.9-1.94-.23-.75-.34-1.54-.34-2.38,0-1.78,.49-3.72,1.46-5.81,.97-2.09,2.24-4.28,3.81-6.58,1.57-2.3,3.34-4.67,5.3-7.12,1.96-2.45,3.91-4.93,5.86-7.46-3.01,.78-5.69,1.69-8.02,2.75-2.33,1.05-4.28,2.11-5.86,3.16-1.57,1.05-2.77,2.03-3.6,2.92-.83,.89-1.24,1.58-1.24,2.06s-.15,.76-.46,.83c-.31,.07-.65-.03-1.02-.29-.37-.26-.71-.67-1.02-1.24-.31-.57-.46-1.24-.46-2.02,0-1.26,.56-2.5,1.68-3.72,1.12-1.22,2.73-2.36,4.84-3.43,2.11-1.07,4.67-2.02,7.7-2.84,3.03-.83,6.47-1.48,10.33-1.97,.88-1.17,1.76-2.41,2.65-3.74,.89-1.33,1.7-2.62,2.43-3.86,.73-1.25,1.32-2.4,1.77-3.45,.45-1.05,.68-1.9,.68-2.55,0-.45-.04-.94-.12-1.46-.08-.52-.31-1-.68-1.43-.37-.44-.95-.8-1.72-1.09-.78-.29-1.85-.44-3.21-.44-4.44,0-8.7,.53-12.78,1.6-4.08,1.07-7.88,2.45-11.4,4.13-3.51,1.69-6.71,3.56-9.57,5.61-2.87,2.06-5.31,4.07-7.34,6.05s-3.59,3.8-4.69,5.47c-1.1,1.67-1.65,2.94-1.65,3.81,0,.45-.24,.71-.73,.75-.49,.05-1.02-.09-1.6-.41-.58-.32-1.12-.8-1.6-1.43-.49-.63-.73-1.38-.73-2.26,0-.68,.5-1.79,1.51-3.33,1-1.54,2.5-3.26,4.47-5.18,1.98-1.91,4.42-3.9,7.31-5.95,2.9-2.06,6.24-3.94,10.03-5.64,3.79-1.7,8.01-3.09,12.66-4.18,4.65-1.08,9.7-1.63,15.14-1.63,1.55,0,3.06,.11,4.52,.34,1.46,.23,2.75,.61,3.89,1.14,1.13,.53,2.05,1.22,2.75,2.07,.7,.84,1.04,1.88,1.04,3.11,0,.55-.22,1.32-.66,2.31-.44,.99-1,2.1-1.68,3.33-.68,1.23-1.43,2.52-2.26,3.86-.83,1.34-1.64,2.63-2.45,3.86,2.72-.19,5.62-.29,8.7-.29Z"/>
    <path class="cls-2" d="M190.9,39.4c.16-.19,.35-.32,.56-.36,.21-.05,.39-.03,.53,.05,.15,.08,.24,.2,.27,.36,.03,.16-.02,.34-.15,.53-.58,.81-1.37,1.93-2.36,3.35-.99,1.43-2.13,2.97-3.43,4.64-1.3,1.67-2.71,3.36-4.23,5.08-1.52,1.72-3.1,3.27-4.74,4.67-1.64,1.39-3.3,2.54-5,3.43-1.7,.89-3.38,1.34-5.03,1.34-.68,0-1.43-.15-2.26-.44-.83-.29-1.6-.75-2.31-1.38-.71-.63-1.3-1.45-1.77-2.45-.47-1-.71-2.22-.71-3.64,0-1.2,.23-2.55,.71-4.06,.47-1.51,1.13-3.04,1.99-4.59,.86-1.56,1.89-3.08,3.11-4.57,1.21-1.49,2.56-2.81,4.03-3.96,1.47-1.15,3.05-2.08,4.74-2.79,1.68-.71,3.45-1.07,5.3-1.07,1.68,0,2.82,.32,3.4,.97,.58,.65,.88,1.49,.88,2.53,0,1.49-.41,2.91-1.22,4.25-.81,1.34-1.93,2.54-3.35,3.6-1.43,1.05-3.09,1.9-5.01,2.55-1.91,.65-3.95,1-6.12,1.07-.65,1.49-1.16,2.95-1.53,4.37-.37,1.43-.56,2.69-.56,3.79s.23,1.98,.68,2.65c.45,.66,1.18,1,2.19,1s2.17-.44,3.5-1.31c1.33-.87,2.71-1.98,4.15-3.33,1.44-1.34,2.88-2.83,4.33-4.47,1.44-1.64,2.79-3.23,4.03-4.79s2.35-2.96,3.3-4.23c.96-1.26,1.64-2.19,2.07-2.77Zm-10.11-3.4c-.97,0-1.95,.28-2.94,.83-.99,.55-1.95,1.29-2.89,2.22-.94,.93-1.84,2.01-2.7,3.25-.86,1.24-1.64,2.52-2.36,3.86,1.65-.03,3.16-.31,4.52-.83,1.36-.52,2.55-1.16,3.57-1.93,1.02-.77,1.85-1.58,2.5-2.44,.65-.86,1.1-1.66,1.36-2.39,.26-.73,.3-1.34,.12-1.83-.18-.49-.58-.73-1.19-.73Z"/>
    <path class="cls-2" d="M204.02,39.69c.16-.23,.35-.36,.56-.39,.21-.03,.39-.02,.53,.05,.15,.07,.24,.19,.27,.36,.03,.18-.02,.36-.15,.56-.58,.81-1.39,1.93-2.43,3.35-1.04,1.43-2.19,2.96-3.45,4.59-1.26,1.64-2.6,3.3-4.01,5.01s-2.79,3.23-4.15,4.59c-1.36,1.36-2.64,2.48-3.84,3.35-1.2,.87-2.2,1.31-3.01,1.31-1,0-1.76-.19-2.28-.56-.52-.37-.91-.78-1.17-1.24-.29-.55-.45-1.17-.49-1.85,0-.88,.3-1.95,.9-3.23,.6-1.28,1.36-2.66,2.28-4.15,.92-1.49,1.91-3.05,2.96-4.69,1.05-1.64,2.04-3.23,2.96-4.79,.92-1.56,1.68-3.04,2.28-4.45,.6-1.41,.9-2.65,.9-3.72,0-.16,.24-.26,.71-.29,.47-.03,.98,.03,1.53,.19,.55,.16,1.06,.45,1.53,.88,.47,.42,.7,1.02,.7,1.8,0,.97-.34,2.19-1.02,3.64-.68,1.46-1.5,3-2.45,4.62-.96,1.62-1.95,3.25-2.99,4.88-1.04,1.64-1.93,3.11-2.67,4.42s-1.25,2.37-1.51,3.18c-.26,.81-.08,1.22,.53,1.22,.55,0,1.29-.38,2.21-1.14,.92-.76,1.94-1.73,3.06-2.92,1.12-1.18,2.28-2.49,3.47-3.94,1.2-1.44,2.33-2.86,3.4-4.25,1.07-1.39,2.03-2.66,2.89-3.81,.86-1.15,1.5-2.02,1.92-2.6Zm-3.06-11.61c-.26,.19-.72,.36-1.38,.49-.67,.13-1.34,.12-2.02-.02-.68-.15-1.29-.48-1.82-1-.53-.52-.8-1.31-.8-2.38,0-.78,.11-1.43,.34-1.94,.23-.52,.53-.94,.9-1.26,.37-.32,.8-.55,1.29-.68,.49-.13,.99-.19,1.51-.19,.97,0,1.69,.31,2.16,.92,.47,.62,.76,1.33,.88,2.14,.11,.81,.07,1.6-.12,2.36-.19,.76-.5,1.29-.92,1.58Z"/>
    <path class="cls-2" d="M207.13,58.35c.55,0,1.29-.38,2.21-1.14,.92-.76,1.94-1.73,3.06-2.92,1.12-1.18,2.28-2.49,3.47-3.94,1.2-1.44,2.33-2.86,3.4-4.25,1.07-1.39,2.03-2.66,2.89-3.81,.86-1.15,1.51-2.02,1.97-2.6,.16-.23,.34-.36,.53-.39,.19-.03,.36-.02,.51,.05,.15,.07,.24,.19,.29,.36,.05,.18,0,.36-.12,.56-.58,.81-1.38,1.93-2.38,3.35-1,1.43-2.12,2.96-3.35,4.59-1.23,1.64-2.54,3.3-3.94,5.01-1.39,1.7-2.77,3.23-4.13,4.59-1.36,1.36-2.66,2.48-3.89,3.35-1.23,.87-2.32,1.31-3.26,1.31-1.04,0-1.82-.24-2.36-.73s-.92-1.02-1.14-1.6c-.26-.68-.39-1.47-.39-2.38,0-1.65,.27-3.13,.83-4.42,.55-1.3,1.16-2.51,1.82-3.65,.66-1.13,1.27-2.24,1.82-3.3,.55-1.07,.83-2.2,.83-3.4,0-.45-.14-.83-.41-1.12-.28-.29-.62-.58-1.04-.87-.42-.29-.87-.59-1.34-.9-.47-.31-.92-.7-1.34-1.17-.42-.47-.77-1.04-1.04-1.73-.28-.68-.41-1.54-.41-2.58s.22-2.07,.66-3.01c.44-.94,1.01-1.76,1.72-2.45,.71-.7,1.52-1.24,2.43-1.63s1.83-.58,2.77-.58c.45,0,.83,.11,1.12,.32,.29,.21,.44,.45,.44,.7,0,.39-.18,.82-.53,1.29-.36,.47-.75,1-1.19,1.58-.44,.58-.83,1.25-1.19,1.99-.36,.75-.53,1.6-.53,2.58s.14,1.77,.41,2.38c.27,.62,.62,1.12,1.04,1.51,.42,.39,.88,.7,1.38,.95,.5,.24,.96,.5,1.38,.78,.42,.28,.77,.6,1.04,.97,.28,.37,.41,.87,.41,1.48,0,.55-.22,1.3-.66,2.24-.44,.94-.96,1.96-1.55,3.06-.6,1.1-1.2,2.22-1.8,3.35-.6,1.13-1.07,2.16-1.41,3.09-.34,.92-.47,1.68-.39,2.26,.08,.58,.53,.88,1.34,.88Z"/>
    <path class="cls-2" d="M253.44,39.69c.16-.23,.35-.36,.56-.39,.21-.03,.39-.02,.54,.05,.15,.07,.23,.19,.27,.36,.03,.18-.02,.36-.15,.56-.58,.81-1.39,1.93-2.43,3.35-1.04,1.43-2.19,2.96-3.45,4.59-1.26,1.64-2.61,3.3-4.03,5.01-1.43,1.7-2.81,3.23-4.16,4.59-1.34,1.36-2.62,2.48-3.81,3.35-1.2,.87-2.22,1.31-3.06,1.31-1.1,0-1.9-.25-2.41-.75-.5-.5-.83-1.06-1-1.68-.2-.71-.24-1.54-.15-2.48-.62,.94-1.3,1.77-2.04,2.48-.65,.62-1.4,1.17-2.26,1.68-.86,.5-1.76,.75-2.7,.75-.68,0-1.41-.13-2.19-.39-.78-.26-1.5-.69-2.16-1.29-.66-.6-1.21-1.38-1.63-2.36-.42-.97-.63-2.17-.63-3.6,0-1.2,.23-2.56,.71-4.08,.47-1.52,1.13-3.07,1.99-4.64,.86-1.57,1.89-3.12,3.11-4.64,1.21-1.52,2.56-2.87,4.03-4.06,1.47-1.18,3.05-2.13,4.74-2.84,1.68-.71,3.45-1.07,5.3-1.07,.94,0,1.72,.15,2.36,.44s1.14,.7,1.53,1.21c.39,.52,.67,1.13,.85,1.85,.18,.71,.27,1.49,.27,2.33s-.18,1.7-.53,2.67c.29,.06,.6,.16,.92,.29,.32,.13,.63,.27,.92,.41s.53,.29,.73,.44c.19,.15,.29,.28,.29,.41,0,.1-.28,.53-.85,1.29-.57,.76-1.25,1.68-2.04,2.77-.79,1.09-1.6,2.26-2.43,3.52s-1.52,2.42-2.07,3.47c-.55,1.05-.86,1.94-.92,2.65-.07,.71,.28,1.07,1.02,1.07,.55,0,1.29-.38,2.21-1.14,.92-.76,1.94-1.73,3.06-2.92,1.12-1.18,2.28-2.49,3.47-3.94,1.2-1.44,2.33-2.86,3.4-4.25,1.07-1.39,2.03-2.66,2.89-3.81,.86-1.15,1.5-2.02,1.92-2.6Zm-29.84,20.36c.84,0,1.73-.34,2.67-1.02s1.9-1.56,2.87-2.62c.97-1.07,1.94-2.26,2.89-3.57,.96-1.31,1.87-2.6,2.75-3.86-.26-.29-.5-.58-.71-.88-.21-.29-.32-.47-.32-.53s.22-.33,.66-.8c.44-.47,.92-1.08,1.46-1.82,.54-.74,1.03-1.6,1.48-2.55,.45-.96,.68-1.97,.68-3.04,0-.75-.15-1.35-.46-1.82-.31-.47-.8-.7-1.48-.7-1.62,0-3.21,.58-4.76,1.73-1.56,1.15-2.97,2.58-4.25,4.3-1.28,1.72-2.38,3.58-3.3,5.59-.92,2.01-1.58,3.87-1.97,5.59-.39,1.72-.45,3.15-.19,4.3,.26,1.15,.92,1.73,1.99,1.73Z"/>
    <path class="cls-2" d="M274,39.69c.16-.23,.34-.36,.53-.39,.19-.03,.36-.02,.51,.05,.15,.07,.24,.19,.29,.36,.05,.18,0,.36-.12,.56-.58,.81-1.35,1.93-2.31,3.35-.96,1.43-2.04,2.96-3.26,4.59-1.21,1.64-2.54,3.3-3.96,5.01s-2.9,3.23-4.42,4.59c-1.52,1.36-3.08,2.48-4.67,3.35-1.59,.87-3.14,1.31-4.67,1.31h-.73c-1.07,0-1.99-.18-2.77-.53-.78-.36-1.42-.81-1.92-1.36-.5-.55-.87-1.18-1.12-1.9-.24-.71-.36-1.41-.36-2.09,0-.62,.1-1.07,.29-1.36s.41-.44,.63-.46c.23-.02,.44,.1,.63,.34,.19,.24,.29,.59,.29,1.04,0,.87,.28,1.68,.85,2.41,.57,.73,1.53,1.09,2.89,1.09s2.41-.49,3.06-1.46c.65-.97,1.05-2.23,1.21-3.77,.16-1.54,.15-3.26-.02-5.15-.18-1.9-.42-3.77-.73-5.64-.31-1.86-.6-3.6-.88-5.2-.28-1.6-.41-2.88-.41-3.81,0-1.07,.25-2.07,.75-3.01,.5-.94,1.14-1.76,1.92-2.45,.78-.7,1.65-1.24,2.62-1.63,.97-.39,1.93-.58,2.87-.58,.45,0,.83,.11,1.12,.32,.29,.21,.44,.45,.44,.7,0,.39-.19,.82-.58,1.29-.39,.47-.81,1-1.26,1.58-.45,.58-.88,1.25-1.26,1.99-.39,.75-.58,1.6-.58,2.58,0,1.46,.13,2.9,.39,4.32,.26,1.43,.54,2.84,.85,4.25,.31,1.41,.59,2.8,.85,4.18,.26,1.38,.39,2.76,.39,4.16,0,.55-.04,1.13-.12,1.73-.08,.6-.2,1.16-.36,1.68,.75-.61,1.53-1.38,2.36-2.28,.83-.91,1.68-1.88,2.55-2.92,.88-1.04,1.73-2.11,2.58-3.21,.84-1.1,1.63-2.15,2.36-3.13,.73-.99,1.38-1.87,1.94-2.65,.57-.78,1.01-1.39,1.34-1.85Z"/>
  </g>
  <g>
    <path class="cls-1" d="M37.15,56.3h-14.84c-.31,0-.61-.11-.81-.3-.21-.19-.3-.45-.27-.71l1.68-12.31c.06-.46,.53-.8,1.08-.8h11.48c.56,0,1.02,.35,1.08,.8l1.68,12.31c.04,.26-.06,.51-.27,.71-.21,.19-.5,.3-.81,.3Zm-13.62-1.81h12.4l-1.43-10.5h-9.53l-1.43,10.5Z"/>
    <path class="cls-1" d="M32.54,50.87h-5.63c-.3,0-.55-.25-.55-.55v-2.17c0-.3,.24-.55,.55-.55h5.63c.3,0,.55,.25,.55,.55v2.17c0,.3-.24,.55-.55,.55Zm-5.09-1.09h4.54v-1.08h-4.54v1.08Z"/>
    <path class="cls-1" d="M37.45,56.21c-.11,0-.22-.02-.33-.07-.24-.11-.41-.33-.45-.59l-2.05-12.33c-.04-.26,.05-.52,.24-.7l2.21-2.11c.2-.2,.49-.27,.77-.19,.27,.08,.48,.3,.55,.57l3.02,12.49c.08,.33-.06,.68-.36,.86l-3.19,1.95c-.13,.08-.27,.12-.41,.12Zm-1.2-12.84l1.79,10.75,1.69-1.03-2.56-10.59-.92,.87Z"/>
    <path class="cls-1" d="M24.01,43.67c-.26,0-.51-.13-.67-.36-.24-.37-.14-.86,.23-1.1l2.9-1.89c.13-.08,.28-.13,.43-.13h10.7c.44,0,.79,.36,.79,.79s-.36,.79-.79,.79h-10.47l-2.7,1.76c-.13,.09-.28,.13-.43,.13Z"/>
    <path class="cls-1" d="M26.48,43.67s-.1,0-.15-.01c-.43-.08-.71-.5-.63-.93l.98-5.09c.7-1.59,2.06-2.52,3.61-2.43,1.55,.02,2.88,.93,3.48,2.35,.05,.11,.07,.23,.06,.36l-.31,5c-.03,.44-.4,.75-.84,.74-.44-.03-.77-.4-.74-.84l.3-4.8c-.45-.88-1.3-1.21-1.97-1.22-.68,.03-1.63,.33-2.08,1.32l-.92,4.91c-.07,.38-.4,.64-.78,.64Z"/>
    <path class="cls-1" d="M34.65,41.78c-.36,0-.68-.24-.77-.6l-.95-3.85c-.26-.38-.7-.67-1.25-.82-.76-.2-1.61-.09-2.23,.27-.35,.2-.55,.62-.51,1.05l.25,3.09c.03,.44-.29,.82-.73,.85-.42,.02-.82-.29-.85-.73l-.25-3.09c-.08-1.03,.42-2.03,1.29-2.55,.98-.58,2.26-.74,3.43-.44,1,.26,1.81,.84,2.27,1.64,.04,.07,.07,.14,.08,.21l.98,3.97c.1,.43-.15,.86-.58,.96-.06,.02-.13,.02-.19,.02Z"/>
  </g>
</svg>