<?xml version="1.0" encoding="utf-8"?>
<!-- Generator: Adobe Illustrator 16.0.0, SVG Export Plug-In . SVG Version: 6.00 Build 0)  -->
<!DOCTYPE svg PUBLIC "-//W3C//DTD SVG 1.0//EN" "http://www.w3.org/TR/2001/REC-SVG-20010904/DTD/svg10.dtd">
<svg version="1.0" id="Layer_1" xmlns="http://www.w3.org/2000/svg" xmlns:xlink="http://www.w3.org/1999/xlink" x="0px" y="0px"
	 width="100px" height="100px" viewBox="0 0 100 100" enable-background="new 0 0 100 100" xml:space="preserve">
<path d="M76.667,9.999H23.333C21.5,9.999,20,11.503,20,13.333v73.335c0,1.829,1.5,3.333,3.333,3.333h33.333V73.334
	c0-3.665,3.001-6.666,6.666-6.666H80V13.333C80,11.503,78.499,9.999,76.667,9.999z M50,80.001H30v-6.667h20V80.001z M50,66.668H30
	v-6.667h20V66.668z M56.667,53.334H30v-6.668h26.667V53.334z M56.667,39.999H30v-6.666h26.667V39.999z M56.667,26.666H30v-6.667
	h26.667V26.666z M70,53.334h-6.667v-6.668H70V53.334z M70,39.999h-6.667v-6.666H70V39.999z M70,26.666h-6.667v-6.667H70V26.666z"/>
<polygon points="63.333,90.001 63.333,73.334 80,73.334 "/>
</svg>
