<svg xmlns="http://www.w3.org/2000/svg" viewBox="0 0 32 32"><g id="fast_delivery" data-name="fast delivery"><path d="M29,9.72a1,1,0,0,0-.64-1.17L18,5.05a1,1,0,0,0-.58,0,1.42,1.42,0,0,0-.2,0H13a1,1,0,0,0,0,2h1.87L8.65,12H3a1,1,0,0,0,0,2H8.86L19,16.87v8.82L9.26,23A.75.75,0,0,0,9,23H3a1,1,0,0,0,0,2H8.87l10.87,3A.75.75,0,0,0,20,28a1.13,1.13,0,0,0,.32-.05h0a.89.89,0,0,0,.27-.15h0l8-6.18a1,1,0,0,0,.39-.79V10A.86.86,0,0,0,29,9.72ZM11.14,12.57l6.77-5.45L26.36,10l-6.51,5ZM27,20.33,21,25V16.67L27,12Z"/><path d="M5,7h5a1,1,0,0,0,0-2H5A1,1,0,0,0,5,7Z"/><path d="M10,20a1,1,0,0,0,0-2H5a1,1,0,0,0,0,2Z"/></g></svg>