<?xml version="1.0" encoding="utf-8"?>
<!-- Generator: Adobe Illustrator 27.0.1, SVG Export Plug-In . SVG Version: 6.00 Build 0)  -->
<svg version="1.1" id="Layer_1" xmlns="http://www.w3.org/2000/svg" xmlns:xlink="http://www.w3.org/1999/xlink" x="0px" y="0px"
	 viewBox="0 0 32 32" style="enable-background:new 0 0 32 32;" xml:space="preserve">
<path d="M30,12.2c-0.1-0.2-0.3-0.3-0.5-0.3l-8.7-1.3l-3.9-8.3c-0.1-0.2-0.3-0.4-0.6-0.5c-0.2-0.1-0.5-0.1-0.7,0.1
	c-0.2,0.1-0.3,0.3-0.4,0.5l-3.9,8.3l-8.7,1.3C2,12,1.6,12.5,1.7,13c0,0.2,0.1,0.4,0.3,0.6L8.3,20l-1.5,9.1c-0.1,0.5,0.3,1,0.8,1.1
	c0.1,0,0.1,0,0.2,0c0.2,0,0.3,0,0.4-0.1l7.8-4.3l7.8,4.3c0.2,0.1,0.5,0.1,0.7,0.1c0.2-0.1,0.5-0.2,0.6-0.5c0.1-0.2,0.1-0.4,0.1-0.6
	L23.7,20l6.3-6.5C30.4,13.2,30.4,12.6,30,12.2L30,12.2z M10.3,19.9c0.1-0.3-0.1-0.6-0.3-0.9l-5.3-5.4l7.3-1.1
	c0.3-0.1,0.6-0.2,0.7-0.6L16,5l3.3,6.9c0.1,0.3,0.4,0.5,0.7,0.6l7.3,1.1L22,19c-0.2,0.2-0.3,0.5-0.3,0.9l1.2,7.6l-6.5-3.6
	c-0.1-0.1-0.3-0.1-0.4-0.1s-0.3,0-0.4,0.1L9,27.5C9,27.5,10.3,19.9,10.3,19.9z"/>
</svg>
