<?xml version="1.0" encoding="UTF-8"?>
<svg id="Layer_1" data-name="Layer 1" xmlns="http://www.w3.org/2000/svg" viewBox="0 0 32 32">
  <defs>
    <style>
      .cls-1 {
        fill: #00aff0;
      }
    </style>
  </defs>
  <path class="cls-1" d="M30.01,13.56l-6.31,6.46,1.49,9.12c.04,.21,.01,.43-.09,.62-.12,.24-.33,.41-.58,.49-.24,.07-.5,.04-.73-.08l-7.79-4.3-7.79,4.3c-.14,.08-.29,.12-.45,.12-.06,0-.11-.01-.17-.01-.52-.09-.87-.6-.78-1.14l1.49-9.12L1.98,13.56c-.14-.15-.24-.35-.27-.56-.08-.54,.29-1.04,.81-1.12l8.71-1.33L15.13,2.26c.09-.19,.24-.35,.43-.45,.23-.12,.49-.14,.73-.06,.25,.09,.45,.27,.56,.51l3.9,8.29,8.72,1.33c.21,.03,.4,.13,.55,.29h0c.36,.39,.35,1.01-.02,1.39Z"/>
</svg>