<?xml version="1.0" encoding="UTF-8"?>
<svg id="svg16" xmlns="http://www.w3.org/2000/svg" viewBox="0 0 56.35 51.4">
  <defs>
    <style>
      .cls-1 {
        fill: #00aff0;
      }
    </style>
  </defs>
  <path class="cls-1" d="M40.97,49.28H8.38c-.68,0-1.33-.24-1.79-.66-.45-.42-.67-.99-.59-1.55l3.69-27.02c.14-1.01,1.16-1.76,2.38-1.76h25.2c1.22,0,2.24,.76,2.38,1.76l3.69,27.02c.08,.56-.14,1.13-.59,1.55-.46,.42-1.1,.66-1.79,.66Zm-29.9-3.98h27.22l-3.15-23.05H14.21l-3.15,23.05Z"/>
  <path class="cls-1" d="M30.86,37.36h-12.37c-.66,0-1.2-.54-1.2-1.2v-4.77c0-.66,.54-1.2,1.2-1.2h12.37c.66,0,1.2,.54,1.2,1.2v4.77c0,.66-.54,1.2-1.2,1.2Zm-11.17-2.4h9.97v-2.37h-9.97v2.37Z"/>
  <path class="cls-1" d="M41.63,49.09c-.25,0-.49-.05-.72-.16-.53-.24-.9-.73-1-1.3l-4.5-27.06c-.09-.57,.1-1.15,.52-1.55l4.86-4.63c.45-.43,1.09-.59,1.69-.41,.6,.18,1.05,.66,1.2,1.26l6.64,27.42c.18,.73-.14,1.5-.78,1.9l-6.99,4.28c-.28,.17-.59,.25-.91,.25Zm-2.64-28.18l3.93,23.6,3.71-2.27-5.63-23.25-2.01,1.91Z"/>
  <path class="cls-1" d="M12.12,21.55c-.57,0-1.13-.28-1.46-.79-.53-.81-.3-1.89,.51-2.41l6.37-4.16c.28-.19,.61-.28,.95-.28h23.5c.96,0,1.74,.78,1.74,1.74s-.78,1.74-1.74,1.74H19.01l-5.94,3.87c-.29,.19-.62,.28-.95,.28Z"/>
  <path class="cls-1" d="M17.54,21.55c-.11,0-.22,0-.33-.03-.95-.18-1.56-1.09-1.38-2.04l2.15-11.17c1.53-3.49,4.51-5.53,7.92-5.33,3.4,.05,6.33,2.03,7.64,5.17,.1,.25,.15,.51,.13,.78l-.68,10.98c-.06,.96-.88,1.65-1.85,1.63-.96-.06-1.69-.89-1.63-1.85l.66-10.55c-.98-1.94-2.85-2.66-4.33-2.69-1.5,.06-3.59,.73-4.57,2.9l-2.03,10.77c-.16,.83-.89,1.41-1.71,1.41Z"/>
  <path class="cls-1" d="M35.49,17.4c-.78,0-1.49-.53-1.69-1.32l-2.09-8.46c-.57-.84-1.53-1.48-2.74-1.79-1.67-.43-3.54-.21-4.89,.59-.76,.45-1.2,1.36-1.12,2.31l.54,6.79c.07,.96-.64,1.8-1.6,1.87-.92,.03-1.8-.64-1.87-1.6l-.54-6.79c-.18-2.27,.92-4.46,2.82-5.59,2.15-1.27,4.97-1.63,7.54-.96,2.2,.57,3.97,1.85,4.99,3.6,.08,.14,.15,.3,.19,.46l2.15,8.72c.23,.93-.34,1.88-1.27,2.11-.14,.03-.28,.05-.42,.05Z"/>
</svg>