<?xml version="1.0" encoding="UTF-8"?>
<svg id="svg16" xmlns="http://www.w3.org/2000/svg" viewBox="0 0 265.4 83.5">
  <defs>
    <style>
      .cls-1 {
        fill: #00aff0;
      }
    </style>
  </defs>
  <rect x="82.5" y="22" width="2.7" height="40.8"/>
  <path d="M21.3,25.6C9.5,25.6,0,35.2,0,47s9.6,21.3,21.4,21.3,21.3-9.6,21.3-21.4c0-11.8-9.6-21.3-21.4-21.3Zm0,40.5h0c-10.6,0-19.1-8.6-19.1-19.2S10.3,28.2,20.6,27.8c10.6-.4,19.4,7.8,19.9,18.4v.7c0,10.6-8.6,19.2-19.2,19.2Z"/>
  <path d="M60.9,33.6c-5.2,0-8.4,2.6-10.3,6v-5.3h-2.7v28.5h2.7v-16.5c0-5.9,4.3-10.2,9.9-10.2s9,3.8,9,9.7v16.9h2.7v-17.4c.1-6.8-4.1-11.7-11.3-11.7h0Z"/>
  <path d="M93,34.2l13.7,28.3c-2.1,5-4.1,6.7-7,6.7-1.7,.1-3.3-.3-4.8-1.1l-.9,2.4c1.8,.8,3.7,1.2,5.7,1.2,4.1,0,7-2.1,9.5-8.1l12.3-29.5h-3l-10.5,25.6-11.8-25.5h-3.2Z"/>
  <g>
    <path class="cls-1" d="M160.5,32c1.3,0,2.3,.3,3,1,.6,.7,1,1.4,1,2.2,0,.3-.1,.4-.2,.4s-.4-.1-.8-.3c-.4-.2-.8-.3-1.4-.5-.6-.2-1.3-.3-2.1-.3-3.7,0-7.1,.2-10.2,.7-2,2.9-4.1,5.9-6.2,8.8-2.1,3-4,5.9-5.8,8.6s-3.2,5.3-4.3,7.8-1.7,4.5-1.7,6.2v1c0,.4-.1,.7-.1,1-.1,.3-.2,.5-.4,.7s-.4,.3-.8,.3c-.5,0-1-.2-1.5-.5s-.9-.8-1.3-1.3c-.4-.6-.7-1.2-.9-1.9-.2-.8-.3-1.5-.3-2.4,0-1.8,.5-3.7,1.5-5.8,1-2.1,2.2-4.3,3.8-6.6,1.6-2.3,3.3-4.7,5.3-7.1s3.9-4.9,5.9-7.5c-3,.8-5.7,1.7-8,2.8-2.3,1-4.3,2.1-5.9,3.2-1.6,1-2.8,2-3.6,2.9s-1.2,1.6-1.2,2.1-.1,.8-.5,.8c-.3,.1-.6,0-1-.3s-.7-.7-1-1.2c-.3-.6-.5-1.2-.5-2,0-1.3,.6-2.5,1.7-3.7s2.7-2.4,4.8-3.4c2.1-1,4.7-2,7.7-2.8s6.5-1.5,10.3-2c.9-1.2,1.8-2.4,2.6-3.7s1.7-2.6,2.4-3.9c.7-1.2,1.3-2.4,1.8-3.5,.4-1,.7-1.9,.7-2.5,0-.5,0-.9-.1-1.5s-.3-1-.7-1.4-.9-.8-1.7-1.1-1.9-.4-3.2-.4c-4.4,0-8.7,.5-12.8,1.6s-7.9,2.5-11.4,4.1c-3.5,1.7-6.7,3.6-9.6,5.6-2.9,2.1-5.3,4.1-7.3,6s-3.6,3.8-4.7,5.5-1.7,2.9-1.7,3.8c0,.5-.2,.7-.7,.8-.5,0-1-.1-1.6-.4s-1.1-.8-1.6-1.4c-.5-.6-.7-1.4-.7-2.3,0-.7,.5-1.8,1.5-3.3s2.5-3.3,4.5-5.2c2-1.9,4.4-3.9,7.3-6s6.2-3.9,10-5.6,8-3.1,12.7-4.2c4.6-1.1,9.7-1.6,15.1-1.6,1.6,0,3.1,.1,4.5,.3,1.5,.2,2.8,.6,3.9,1.1,1.1,.5,2.1,1.2,2.8,2.1,.7,.8,1,1.9,1,3.1,0,.5-.2,1.3-.7,2.3s-1,2.1-1.7,3.3-1.4,2.5-2.3,3.9-1.6,2.6-2.4,3.9c2.8-.2,5.7-.3,8.8-.3h0Z"/>
    <path class="cls-1" d="M180.9,39.4c.2-.2,.4-.3,.6-.4h.5c.1,.1,.2,.2,.3,.4s0,.3-.1,.5c-.6,.8-1.4,1.9-2.4,3.3-1,1.4-2.1,3-3.4,4.6-1.3,1.7-2.7,3.4-4.2,5.1-1.5,1.7-3.1,3.3-4.7,4.7-1.6,1.4-3.3,2.5-5,3.4s-3.4,1.3-5,1.3c-.7,0-1.4-.2-2.3-.4-.8-.3-1.6-.8-2.3-1.4-.7-.6-1.3-1.5-1.8-2.5s-.7-2.2-.7-3.6c0-1.2,.2-2.5,.7-4.1,.5-1.5,1.1-3,2-4.6s1.9-3.1,3.1-4.6c1.2-1.5,2.6-2.8,4-4,1.5-1.2,3.1-2.1,4.7-2.8,1.7-.7,3.4-1.1,5.3-1.1,1.7,0,2.8,.3,3.4,1,.6,.7,.9,1.5,.9,2.5,0,1.5-.4,2.9-1.2,4.2s-1.9,2.5-3.4,3.6c-1.4,1-3.1,1.9-5,2.5-1.9,.7-3.9,1-6.1,1.1-.6,1.5-1.2,3-1.5,4.4-.4,1.4-.6,2.7-.6,3.8s.2,2,.7,2.7c.4,.7,1.2,1,2.2,1s2.2-.4,3.5-1.3c1.3-.9,2.7-2,4.1-3.3,1.4-1.3,2.9-2.8,4.3-4.5,1.4-1.6,2.8-3.2,4-4.8s2.4-3,3.3-4.2c1-1,1.7-1.9,2.1-2.5h0Zm-10.1-3.4c-1,0-1.9,.3-2.9,.8s-1.9,1.3-2.9,2.2-1.8,2-2.7,3.2-1.6,2.5-2.4,3.9c1.6,0,3.2-.3,4.5-.8s2.6-1.2,3.6-1.9,1.9-1.6,2.5-2.4c.6-.9,1.1-1.7,1.4-2.4s.3-1.3,.1-1.8c-.2-.6-.6-.8-1.2-.8h0Z"/>
    <path class="cls-1" d="M194.1,39.7c.2-.2,.4-.4,.6-.4h.5c.1,.1,.2,.2,.3,.4,0,.2,0,.4-.1,.6-.6,.8-1.4,1.9-2.4,3.3-1,1.4-2.2,3-3.4,4.6-1.3,1.6-2.6,3.3-4,5s-2.8,3.2-4.1,4.6-2.6,2.5-3.8,3.3-2.2,1.3-3,1.3c-1,0-1.8-.2-2.3-.6-.5-.4-.9-.8-1.2-1.2-.3-.5-.4-1.2-.5-1.8,0-.9,.3-2,.9-3.2,.6-1.3,1.4-2.7,2.3-4.2s1.9-3,3-4.7,2-3.2,3-4.8c.9-1.6,1.7-3,2.3-4.5s.9-2.7,.9-3.7c0-.2,.2-.3,.7-.3s1,0,1.5,.2,1.1,.5,1.5,.9c.5,.4,.7,1,.7,1.8,0,1-.3,2.2-1,3.6-.7,1.5-1.5,3-2.4,4.6-1,1.6-1.9,3.2-3,4.9-1,1.6-1.9,3.1-2.7,4.4s-1.2,2.4-1.5,3.2-.1,1.2,.5,1.2,1.3-.4,2.2-1.1c.9-.8,1.9-1.7,3.1-2.9,1.1-1.2,2.3-2.5,3.5-3.9s2.3-2.9,3.4-4.2c1.1-1.4,2-2.7,2.9-3.8s1.1-2.1,1.6-2.6h0Zm-3.1-11.6c-.3,.2-.7,.4-1.4,.5s-1.3,.1-2,0-1.3-.5-1.8-1-.8-1.3-.8-2.4c0-.8,.1-1.4,.3-1.9s.5-.9,.9-1.3,.8-.5,1.3-.7c.5-.1,1-.2,1.5-.2,1,0,1.7,.3,2.2,.9s.8,1.3,.9,2.1c.1,.8,.1,1.6-.1,2.4s-.6,1.3-1,1.6h0Z"/>
    <path class="cls-1" d="M197.2,58.3c.6,0,1.3-.4,2.2-1.1,.9-.8,1.9-1.7,3.1-2.9,1.1-1.2,2.3-2.5,3.5-3.9s2.3-2.9,3.4-4.2c1.1-1.4,2-2.7,2.9-3.8s1.5-2,2-2.6c.2-.2,.3-.4,.5-.4h.5c.1,0,.2,.2,.3,.4s0,.4-.1,.6c-.6,.8-1.4,1.9-2.4,3.3-1,1.4-2.1,3-3.4,4.6-1.2,1.6-2.5,3.3-3.9,5s-2.8,3.2-4.1,4.6-2.7,2.5-3.9,3.3-2.3,1.3-3.3,1.3-1.8-.2-2.4-.7-.9-1-1.1-1.6c-.3-.7-.4-1.5-.4-2.4,0-1.7,.3-3.1,.8-4.4,.6-1.3,1.2-2.5,1.8-3.7,.7-1.1,1.3-2.2,1.8-3.3,.6-1.1,.8-2.2,.8-3.4,0-.5-.1-.8-.4-1.1-.3-.3-.6-.6-1-.9-.4-.3-.9-.6-1.3-.9s-.9-.7-1.3-1.2c-.4-.5-.8-1-1-1.7-.3-.7-.4-1.5-.4-2.6s.2-2.1,.7-3,1-1.8,1.7-2.5,1.5-1.2,2.4-1.6,1.8-.6,2.8-.6c.4,0,.8,.1,1.1,.3s.4,.5,.4,.7c0,.4-.2,.8-.5,1.3-.4,.5-.8,1-1.2,1.6s-.8,1.3-1.2,2c-.4,.8-.5,1.6-.5,2.6s.1,1.8,.4,2.4c.3,.6,.6,1.1,1,1.5s.9,.7,1.4,1c.5,.2,1,.5,1.4,.8s.8,.6,1,1c.3,.4,.4,.9,.4,1.5,0,.5-.2,1.3-.7,2.2-.4,.9-1,2-1.6,3.1s-1.2,2.2-1.8,3.3-1.1,2.2-1.4,3.1c-.3,.9-.5,1.7-.4,2.3,.1,.5,.5,.8,1.4,.7h0Z"/>
    <path class="cls-1" d="M243.5,39.7c.2-.2,.4-.4,.6-.4h.5c.1,0,.2,.2,.3,.4,0,.2,0,.4-.1,.6-.6,.8-1.4,1.9-2.4,3.3-1,1.4-2.2,3-3.4,4.6-1.3,1.6-2.6,3.3-4,5s-2.8,3.2-4.2,4.6c-1.3,1.4-2.6,2.5-3.8,3.3-1.2,.9-2.2,1.3-3.1,1.3-1.1,0-1.9-.2-2.4-.8-.5-.5-.8-1.1-1-1.7-.2-.7-.2-1.5-.1-2.5-.6,.9-1.3,1.8-2,2.5-.6,.6-1.4,1.2-2.3,1.7-.9,.5-1.8,.8-2.7,.8-.7,0-1.4-.1-2.2-.4s-1.5-.7-2.2-1.3-1.2-1.4-1.6-2.4c-.4-1-.6-2.2-.6-3.6,0-1.2,.2-2.6,.7-4.1s1.1-3.1,2-4.6,1.9-3.1,3.1-4.6c1.2-1.5,2.6-2.9,4-4.1,1.5-1.2,3.1-2.1,4.7-2.8,1.7-.7,3.4-1.1,5.3-1.1,.9,0,1.7,.2,2.4,.4s1.1,.7,1.5,1.2,.7,1.1,.9,1.8,.3,1.5,.3,2.3-.2,1.7-.5,2.7c.3,.1,.6,.2,.9,.3,.3,.1,.6,.3,.9,.4s.5,.3,.7,.4c.2,.2,.3,.3,.3,.4s-.3,.5-.9,1.3c-.6,.8-1.2,1.7-2,2.8s-1.6,2.3-2.4,3.5-1.5,2.4-2.1,3.5-.9,1.9-.9,2.7c-.1,.7,.3,1.1,1,1.1,.6,0,1.3-.4,2.2-1.1,.9-.8,1.9-1.7,3.1-2.9,1.1-1.2,2.3-2.5,3.5-3.9s2.3-2.9,3.4-4.2c1.1-1.4,2-2.7,2.9-3.8s1.2-2.1,1.7-2.6h0Zm-29.9,20.3c.8,0,1.7-.3,2.7-1s1.9-1.6,2.9-2.6c1-1.1,1.9-2.3,2.9-3.6s1.9-2.6,2.8-3.9c-.3-.3-.5-.6-.7-.9-.2-.3-.3-.5-.3-.5,0,0,.2-.3,.7-.8,.4-.5,.9-1.1,1.5-1.8,.5-.7,1-1.6,1.5-2.5,.4-1,.7-2,.7-3,0-.8-.1-1.3-.5-1.8-.3-.5-.8-.7-1.5-.7-1.6,0-3.2,.6-4.8,1.7-1.6,1.2-3,2.6-4.2,4.3-1.3,1.7-2.4,3.6-3.3,5.6-.9,2-1.6,3.9-2,5.6s-.4,3.2-.2,4.3c.1,1.1,.8,1.7,1.8,1.6h0Z"/>
    <path class="cls-1" d="M264,39.7c.2-.2,.3-.4,.5-.4h.5c.1,.1,.2,.2,.3,.4,0,.2,0,.4-.1,.6-.6,.8-1.4,1.9-2.3,3.3-1,1.4-2,3-3.3,4.6-1.2,1.6-2.5,3.3-4,5-1.4,1.7-2.9,3.2-4.4,4.6-1.5,1.4-3.1,2.5-4.7,3.3-1.6,.9-3.1,1.3-4.7,1.3h-.7c-1.1,0-2-.2-2.8-.5-.8-.4-1.4-.8-1.9-1.4s-.9-1.2-1.1-1.9c-.2-.7-.4-1.4-.4-2.1,0-.6,.1-1.1,.3-1.4s.4-.4,.6-.5c.2,0,.4,.1,.6,.3s.3,.6,.3,1c0,.9,.3,1.7,.9,2.4s1.5,1.1,2.9,1.1,2.4-.5,3.1-1.5c.6-1,1.1-2.2,1.2-3.8s.1-3.3,0-5.2c-.2-1.9-.4-3.8-.7-5.6-.3-1.9-.6-3.6-.9-5.2-.3-1.6-.4-2.9-.4-3.8,0-1.1,.2-2.1,.8-3s1.1-1.8,1.9-2.5c.8-.7,1.6-1.2,2.6-1.6s1.9-.6,2.9-.6c.5,0,.8,.1,1.1,.3s.4,.5,.4,.7c0,.4-.2,.8-.6,1.3-.4,.5-.8,1-1.3,1.6s-.9,1.2-1.3,2c-.4,.8-.6,1.6-.6,2.6,0,1.5,.1,2.9,.4,4.3,.3,1.4,.5,2.8,.9,4.2s.6,2.8,.9,4.2,.4,2.8,.4,4.2c0,.5,0,1.1-.1,1.7s-.2,1.2-.4,1.7c.8-.6,1.5-1.4,2.4-2.3,.8-.9,1.7-1.9,2.5-2.9,.9-1,1.7-2.1,2.6-3.2,.8-1.1,1.6-2.2,2.4-3.1,.7-1,1.4-1.9,1.9-2.7,.7-.4,1.1-1.1,1.4-1.5Z"/>
  </g>
  <g>
    <path class="cls-1" d="M27.6,57.9H11.6c-.3,0-.6-.1-.9-.3-.2-.2-.3-.5-.3-.8l1.8-13.3c.1-.5,.6-.9,1.2-.9h12.4c.6,0,1.1,.4,1.2,.9l1.8,13.3c0,.3-.1,.5-.3,.8s-.5,.3-.9,.3h0Zm-14.6-1.9h13.4l-1.5-11.3H14.5l-1.5,11.3h0Z"/>
    <path class="cls-1" d="M22.7,52h-6.1c-.3,0-.6-.3-.6-.6v-2.3c0-.3,.3-.6,.6-.6h6.1c.3,0,.6,.3,.6,.6v2.3c0,.4-.3,.6-.6,.6Zm-5.5-1.1h4.9v-1.2h-4.9v1.2Z"/>
    <path class="cls-1" d="M28,57.8c-.1,0-.2,0-.3-.1-.3-.1-.4-.4-.5-.6l-2.2-13.3c0-.3,0-.6,.2-.8l2.4-2.3c.2-.2,.5-.3,.8-.2s.5,.3,.6,.6l3.3,13.5c.1,.4-.1,.7-.4,.9l-3.4,2.1c-.2,.2-.4,.2-.5,.2Zm-1.3-13.8l1.9,11.6,1.8-1.1-2.7-11.5-1,1Z"/>
    <path class="cls-1" d="M13.5,44.3c-.3,0-.5-.1-.7-.4-.3-.4-.1-.9,.2-1.2l3.1-2c.1-.1,.3-.1,.5-.1h11.5c.5,0,.8,.4,.8,.8s-.4,.8-.8,.8h-11.2l-2.9,1.9c-.2,.1-.4,.2-.5,.2h0Z"/>
    <path class="cls-1" d="M16.1,44.3h-.2c-.5-.1-.8-.5-.7-1l1.1-5.5c.8-1.7,2.2-2.7,3.9-2.6,1.7,0,3.1,1,3.8,2.5,0,.1,.1,.2,.1,.4l-.3,5.4c0,.5-.4,.8-.9,.8s-.8-.4-.8-.9l.3-5.2c-.5-1-1.4-1.3-2.1-1.3s-1.8,.4-2.2,1.4l-1,5.3c-.2,.4-.5,.7-1,.7h0Z"/>
    <path class="cls-1" d="M24.9,42.3c-.4,0-.7-.3-.8-.7l-1-4.2c-.3-.4-.8-.7-1.3-.9-.8-.2-1.7-.1-2.4,.3-.4,.2-.6,.7-.5,1.1l.3,3.3c0,.5-.3,.9-.8,.9s-.9-.3-.9-.8l-.3-3.3c-.1-1.1,.5-2.2,1.4-2.7,1-.6,2.4-.8,3.7-.5,1.1,.3,2,.9,2.5,1.8,0,.1,.1,.2,.1,.2l1.1,4.3c.1,.5-.2,.9-.6,1-.3,.1-.4,.1-.5,.2h0Z"/>
  </g>
</svg>