<svg xmlns="http://www.w3.org/2000/svg" viewBox="0 0 256 256"><defs><style>.cls-1{fill:#1d384d;}</style></defs><title>b2c</title><g id="icons_without_caption" data-name="icons without caption"><g id="B2C"><path class="cls-1" d="M72.27,77.46A18.87,18.87,0,1,1,91.14,58.58,18.9,18.9,0,0,1,72.27,77.46Zm0-33.75A14.87,14.87,0,1,0,87.14,58.58,14.89,14.89,0,0,0,72.27,43.71Z"/><path class="cls-1" d="M72,128.54l-7.83-6.32,3.76-32.68h8.14l3.76,32.68Zm-3.6-8L72,123.4l3.6-2.91L72.5,93.55h-1Z"/><path class="cls-1" d="M112.85,104.39A23.1,23.1,0,0,0,89.78,81.32H56.36a23.1,23.1,0,0,0-23.07,23.07v44.35h0v2.18a10.46,10.46,0,0,0,16.93,8.24v2.25H95.89v-2.24a10.46,10.46,0,0,0,16.94-8.23v-2.2h0ZM77.29,85.32,73.4,89.55H70.63L67,85.32ZM43.78,157.41a6.47,6.47,0,0,1-6.47-6.48v-6.61H50.25v6.76A6.47,6.47,0,0,1,43.78,157.41Zm10.46,0v-6.33s0-.1,0-.14V140.32h0V112.45h-4v27.87h-13V104.39A19.09,19.09,0,0,1,56.36,85.32h5.41l7,8.24h6.37l7.57-8.24h7.05a19.09,19.09,0,0,1,19.07,19.07v35.93h-13V112.45h-4v38.47c0,.05,0,.1,0,.16v6.33Zm54.58-6.47a6.47,6.47,0,0,1-12.94.14v-6.76h12.93Z"/><path class="cls-1" d="M182.13,132.34A18.87,18.87,0,1,1,201,113.47,18.9,18.9,0,0,1,182.13,132.34Zm0-33.75A14.87,14.87,0,1,0,197,113.47,14.89,14.89,0,0,0,182.13,98.59Z"/><path class="cls-1" d="M193.4,71.16l-9.18,9.18V70.59a28.68,28.68,0,0,0-28.64-28.64H113.38v4h42.19a24.67,24.67,0,0,1,24.64,24.64v9.48L171,70.88l-2.83,2.83,14.15,14.15L196.22,74Z"/><path class="cls-1" d="M99.71,210.06a24.67,24.67,0,0,1-24.64-24.64v-9.48l9.18,9.18,2.83-2.83L72.93,168.14,59.06,182l2.83,2.83,9.18-9.18v9.75a28.68,28.68,0,0,0,28.64,28.64h26v-4Z"/><path class="cls-1" d="M222.71,159.27a23.1,23.1,0,0,0-23.07-23.07H166.22a23.1,23.1,0,0,0-23.07,23.07v44.35h0v2.18A10.46,10.46,0,0,0,160.11,214v2.25h45.65V214a10.46,10.46,0,0,0,16.94-8.23v-2.2h0ZM192.35,140.2a9.16,9.16,0,0,1-17.87,0Zm-38.7,72.09a6.47,6.47,0,0,1-6.47-6.48V199.2h12.92V206A6.47,6.47,0,0,1,153.64,212.29Zm10.46,0V206c0-.05,0-.1,0-.16V195.2h0V167.33h-4V195.2h-13V159.27a19.09,19.09,0,0,1,19.07-19.07h4.2a13.14,13.14,0,0,0,26,0h3.24a19.09,19.09,0,0,1,19.07,19.07V195.2h-13V167.33h-4V205.8s0,.1,0,.15v6.34Zm54.58-6.47a6.47,6.47,0,0,1-12.94.13V199.2h12.93Z"/><circle class="cls-1" cx="183.42" cy="162.69" r="2.37"/><circle class="cls-1" cx="183.42" cy="178.42" r="2.37"/><circle class="cls-1" cx="183.42" cy="194.15" r="2.37"/></g></g></svg>