<?xml version="1.0" encoding="UTF-8"?>
<svg id="Layer_1" data-name="Layer 1" xmlns="http://www.w3.org/2000/svg" viewBox="0 0 32 32">
  <defs>
    <style>
      .cls-1 {
        fill: #231f20;
      }
    </style>
  </defs>
  <g id="shopping_cart" data-name="shopping cart">
    <path class="cls-1" d="M29.74,7.82c-.19-.21-.46-.32-.74-.32H13c-.55,0-1,.45-1,1s.45,1,1,1h14.91l-.81,9.48c-.18,.95-1.04,1.6-2,1.52H12.88c-.96,.08-1.82-.57-2-1.52l-.88-10.56v-.16l-.67-2.56c-.3-1.22-1.17-2.21-2.33-2.68L3.37,1.57c-.51-.2-1.1,.05-1.3,.56-.2,.51,.05,1.1,.56,1.3h0l3.62,1.45c.57,.22,.99,.71,1.14,1.3l.61,2.48,.9,10.49c.27,1.98,2,3.44,4,3.35h.1v2.18c-1.56,.55-2.38,2.27-1.83,3.83,.55,1.56,2.27,2.38,3.83,1.83s2.38-2.27,1.83-3.83c-.3-.85-.97-1.53-1.83-1.83v-2.18h8v2.18c-1.56,.55-2.38,2.27-1.83,3.83,.55,1.56,2.27,2.38,3.83,1.83s2.38-2.27,1.83-3.83c-.3-.85-.97-1.53-1.83-1.83v-2.18h.12c2,.09,3.73-1.37,4-3.35l.88-10.57c.02-.28-.07-.55-.26-.76ZM14,28.5c-.55,0-1-.45-1-1s.45-1,1-1,1,.45,1,1-.45,1-1,1Zm10,0c-.55,0-1-.45-1-1s.45-1,1-1,1,.45,1,1-.45,1-1,1Z"/>
    <path class="cls-1" d="M15,17.5v-5c0-.55-.45-1-1-1s-1,.45-1,1v5c0,.55,.45,1,1,1s1-.45,1-1Z"/>
    <path class="cls-1" d="M20,17.5v-5c0-.55-.45-1-1-1s-1,.45-1,1v5c0,.55,.45,1,1,1s1-.45,1-1Z"/>
    <path class="cls-1" d="M25,17.5v-5c0-.55-.45-1-1-1s-1,.45-1,1v5c0,.55,.45,1,1,1s1-.45,1-1Z"/>
  </g>
</svg>