<?xml version="1.0" encoding="UTF-8"?>
<svg id="Layer_1" data-name="Layer 1" xmlns="http://www.w3.org/2000/svg" viewBox="0 0 32 32">
  <g id="Stall_02" data-name="Stall 02">
    <g id="Stall_02-2" data-name="Stall 02-2">
      <path d="M29.54,8.89l-2.49-6.37c-.24-.61-.83-1.02-1.49-1.02H6.43c-.66,0-1.25,.4-1.49,1.02l-2.48,6.37-.11,.58v1.45c0,1.29,.83,2.41,2.03,2.9,.25,.1,.43,.31,.47,.57l.79,5.82s0,.07,0,.1v7.85s0,.05,0,.07h0v1.53c0,.41,.33,.74,.74,.74h.26c.41,0,.74-.33,.74-.74h0c0-.41,.33-.74,.74-.74h15.78c.41,0,.74,.33,.74,.74h0c0,.41,.33,.74,.74,.74h.26c.41,0,.74-.33,.74-.74v-1.53h0s0-.05,0-.07v-7.85s0-.07,0-.1l.79-5.81c.04-.26,.22-.47,.47-.57,1.2-.5,2.04-1.61,2.04-2.91v-1.45l-.11-.58Zm-3.1-.42h-1.45c-.38,0-.7-.29-.73-.67l-.33-3.77c-.04-.43,.3-.8,.73-.8h.31c.3,0,.58,.19,.69,.47l1.47,3.77c.19,.48-.17,1-.69,1Zm-14.51,0h-1.72c-.43,0-.77-.37-.73-.8l.33-3.77c.03-.38,.35-.67,.73-.67h1.5c.41,0,.75,.34,.74,.76l-.11,3.77c-.01,.4-.34,.71-.74,.71Zm3.31-5.24h1.5c.4,0,.72,.32,.74,.71l.11,3.77c.01,.41-.32,.76-.74,.76h-1.73c-.41,0-.75-.34-.74-.76l.11-3.77c.01-.4,.34-.71,.74-.71Zm-5.99,6.97h3.34l-.02,.7h0s0,.02,0,.03c0,.8-.76,1.45-1.69,1.45s-1.68-.64-1.69-1.43l.07-.75Zm5.07,0h3.34l.02,.73c0,.8-.76,1.45-1.69,1.45s-1.69-.65-1.69-1.45l.02-.73Zm5.07,0h3.34l.07,.75c-.01,.79-.77,1.43-1.69,1.43s-1.69-.65-1.69-1.45c0,0,0-.02,0-.03h0l-.02-.7Zm-.07-2.44l-.11-3.77c-.01-.41,.32-.76,.74-.76h1.5c.38,0,.7,.29,.73,.67l.33,3.77c.04,.43-.3,.8-.73,.8h-1.72c-.4,0-.72-.32-.74-.71ZM7.02,3.23h.32c.43,0,.77,.37,.73,.8l-.33,3.77c-.03,.38-.35,.67-.73,.67h-1.45c-.52,0-.87-.52-.69-1l1.47-3.77c.11-.28,.38-.47,.69-.47Zm-2.94,7.69v-.73h3.45l-.06,.65h0s0,.05,0,.08c0,.8-.76,1.45-1.69,1.45-.93,0-1.69-.65-1.69-1.45Zm3.07,7.6l-.53-3.89c-.05-.33,.14-.65,.45-.78,.29-.11,.57-.27,.83-.46s.59-.2,.83-.02c1.4,1.05,3.39,.94,4.67-.32,.01-.01,.02-.02,.03-.03,1.39,1.41,3.67,1.43,5.08,.04,.01-.01,.02-.02,.04-.04,1.39,1.41,3.67,1.43,5.08,.04,.01-.01,.02-.02,.04-.04,.35,.36,.78,.64,1.24,.83,.31,.12,.5,.44,.45,.77l-.44,3.26c-.05,.36-.36,.64-.73,.64H7.15Zm19.08-6.15c-.93,0-1.69-.65-1.69-1.45,0-.03,0-.05,0-.08h0s-.06-.65-.06-.65h3.45v.73c0,.8-.76,1.45-1.69,1.45h0Z"/>
    </g>
  </g>
</svg>