<?xml version="1.0" encoding="UTF-8"?>
<!DOCTYPE svg PUBLIC "-//W3C//DTD SVG 1.1//EN" "http://www.w3.org/Graphics/SVG/1.1/DTD/svg11.dtd">
<!-- Creator: CorelDRAW -->
<svg xmlns="http://www.w3.org/2000/svg" xml:space="preserve" width="2048px" height="2048px" style="shape-rendering:geometricPrecision; text-rendering:geometricPrecision; image-rendering:optimizeQuality; fill-rule:evenodd; clip-rule:evenodd"
viewBox="0 0 2048 2048"
 xmlns:xlink="http://www.w3.org/1999/xlink">
 <defs>
  <style type="text/css">
   <![CDATA[
    .fil0 {fill:none}
    .fil2 {fill:#212121}
    .fil1 {fill:#212121;fill-rule:nonzero}
   ]]>
  </style>
 </defs>
 <g id="Layer_x0020_1">
  <metadata id="CorelCorpID_0Corel-Layer"/>
  <rect class="fil0" width="2048" height="2048"/>
  <rect class="fil0" x="255.996" y="254.33" width="1536" height="1536"/>
  <path class="fil1" d="M1572.93 238.382l-1097.84 0c-7.22363,0 -13.7008,2.85236 -18.3307,7.46339 -4.57559,4.5567 -7.40552,10.9335 -7.40552,18.0437l0 1179.34c0,7.10197 2.83229,13.4764 7.41024,18.0354 4.62874,4.60985 11.1047,7.46339 18.326,7.46339l302.821 0 0 8.34804c0,19.7055 3.93425,38.4981 11.0563,55.6536l-313.877 0c-24.6709,0 -47.0634,-10.0205 -63.326,-26.2146 -16.3181,-16.2532 -26.4118,-38.6363 -26.4118,-63.2859l0 -1179.34c0,-24.6603 10.0902,-47.0422 26.4071,-63.2941 16.2626,-16.1977 38.6575,-26.2146 63.3308,-26.2146l1097.84 0c24.6614,0 47.0563,10.0228 63.3178,26.2229 16.3169,16.252 26.4118,38.6339 26.4118,63.2859l0 1179.34c0,24.6473 -10.0961,47.028 -26.413,63.28 -15.3047,15.2445 -36.0414,25.0181 -58.9855,26.1154 7.07835,-17.1095 10.9854,-35.8441 10.9854,-55.4835l0 -13.3288c1.06772,-0.774804 2.07166,-1.62874 3,-2.55355 4.57796,-4.55906 7.41142,-10.9323 7.41142,-18.0295l0 -1179.34c0,-7.10197 -2.83229,-13.4764 -7.41024,-18.0354 -4.63229,-4.61457 -11.1071,-7.47166 -18.3177,-7.47166z"/>
  <path class="fil2" d="M992 919.52c0,4.47048 -3.6378,8.0941 -8.12717,8.0941l-47.6091 0c-4.4941,0 -8.13071,-3.62362 -8.13071,-8.0941l0 -47.426c0,-4.47638 3.63662,-8.0941 8.13071,-8.0941l47.6091 0c4.48937,0 8.12717,3.61772 8.12717,8.0941l0 47.426z"/>
  <path class="fil1" d="M512.002 370.557c0,-14.0858 5.87126,-26.811 15.3662,-35.9988 9.29174,-8.99646 21.9626,-14.5606 35.8063,-14.5606l921.647 0c13.8449,0 26.5169,5.56418 35.8134,14.5595 9.49371,9.18662 15.3673,21.9142 15.3673,36l0 355.336c0,14.0835 -5.92087,26.8547 -15.4937,36.1111 -9.22205,8.91497 -21.8492,14.4331 -35.687,14.4331l-921.647 0c-13.8437,0 -26.4638,-5.5193 -35.6811,-14.4319 -9.57048,-9.25867 -15.4914,-22.0323 -15.4914,-36.1122l0 -355.336zm959.998 13.4421l-895.997 0 0 328.436 895.997 0 0 -328.436z"/>
  <path class="fil0" d="M1429.12 1591.18l0 165.41c0,64.7221 -52.7174,117.021 -117.36,117.021l-257.371 0c-64.6441,0 -117.351,-52.3004 -117.351,-117.021l0 -165.475 -12.7701 0c-63.0296,0 -114.359,-50.9268 -114.359,-114.032l0 -135.033c0,-63.1063 51.3284,-114.033 114.359,-114.033l517.622 0c62.9894,0 114.35,50.9717 114.35,114.033l0 135.098c0,63.0945 -51.3284,114.032 -114.35,114.032l-12.7701 0z"/>
  <path class="fil1" d="M1429.12 1591.18l0 165.409c0,32.2394 -13.1941,61.5 -34.5118,82.7351 -21.2658,21.1795 -50.5678,34.2874 -82.8497,34.2874l-257.371 0c-32.2831,0 -61.5815,-13.1067 -82.8438,-34.2862 -21.3166,-21.2351 -34.5083,-50.4981 -34.5083,-82.7363l0 -165.474 -12.7689 0c-31.474,0 -60.0248,-12.7618 -80.7414,-33.3981 -20.7732,-20.6882 -33.6189,-49.2024 -33.6189,-80.6351l0 -135.033c0,-31.4339 12.8457,-59.9481 33.6189,-80.6363 20.7166,-20.6362 49.2674,-33.3981 80.7414,-33.3981l517.622 0c31.4516,0 60.0024,12.7748 80.719,33.4122 20.7768,20.6965 33.6319,49.2107 33.6319,80.6221l0 135.098c0,31.428 -12.848,59.9422 -33.6189,80.6327 -20.7154,20.6362 -49.2638,33.4004 -80.732,33.4004l-12.7689 0zm-64.0016 165.409l0 -197.41 0 -32.0008 32.0008 0 44.7697 0c14.0173,0 26.6469,-5.59843 35.7319,-14.6492 9.03072,-8.99528 14.6173,-21.502 14.6173,-35.3823l0 -135.098c0,-13.8638 -5.59252,-26.3693 -14.6303,-35.3717 -9.08977,-9.05552 -21.7181,-14.661 -35.7189,-14.661l-517.622 0c-14.0232,0 -26.6563,5.59725 -35.7414,14.6469 -9.03072,8.9941 -14.6173,21.5008 -14.6173,35.3859l0 135.033c0,13.8827 5.58544,26.3894 14.6173,35.3847 9.08505,9.04961 21.7181,14.6469 35.7414,14.6469l44.7697 0 32.0008 0 0 32.0008 0 197.475c0,14.6917 5.92796,27.9437 15.5067,37.4859 9.63308,9.59646 23.0114,15.5351 37.8437,15.5351l257.371 0c14.8335,0 28.2142,-5.93977 37.8496,-15.5362 9.57993,-9.54213 15.5102,-22.7953 15.5102,-37.4847z"/>
  <path class="fil2" d="M841.236 893.733c0,9.01772 -7.3441,16.3252 -16.4126,16.3252l-19.898 0c-9.06851,0 -16.4126,-7.30749 -16.4126,-16.3252l0 -8.66221 -232.416 0 0 8.66221c0,9.01772 -7.33701,16.3252 -16.3914,16.3252l-20.2477 0c-9.06142,0 -16.3984,-7.30749 -16.3984,-16.3252l0 -44.9634c0,-9.01772 7.33701,-16.3323 16.3984,-16.3323l305.366 0c9.06851,0 16.4126,7.31457 16.4126,16.3323l0 44.9634z"/>
  <path class="fil2" d="M1173.22 919.52c0,4.47048 -3.6378,8.0941 -8.12717,8.0941l-47.6091 0c-4.4941,0 -8.13071,-3.62362 -8.13071,-8.0941l0 -47.426c0,-4.47638 3.63662,-8.0941 8.13071,-8.0941l47.6091 0c4.48937,0 8.12717,3.61772 8.12717,8.0941l0 47.426z"/>
  <path class="fil2" d="M1354.45 919.52c0,4.47048 -3.6378,8.0941 -8.12717,8.0941l-47.6091 0c-4.4941,0 -8.13071,-3.62362 -8.13071,-8.0941l0 -47.426c0,-4.47638 3.63662,-8.0941 8.13071,-8.0941l47.6091 0c4.48937,0 8.12717,3.61772 8.12717,8.0941l0 47.426z"/>
  <path class="fil2" d="M1535.67 919.52c0,4.47048 -3.6378,8.0941 -8.12717,8.0941l-47.6091 0c-4.4941,0 -8.13071,-3.62362 -8.13071,-8.0941l0 -47.426c0,-4.47638 3.63662,-8.0941 8.13071,-8.0941l47.6091 0c4.48937,0 8.12717,3.61772 8.12717,8.0941l0 47.426z"/>
  <path class="fil2" d="M992 1079.52c0,4.47048 -3.6378,8.0941 -8.12717,8.0941l-47.6091 0c-4.4941,0 -8.13071,-3.62362 -8.13071,-8.0941l0 -47.426c0,-4.47638 3.63662,-8.0941 8.13071,-8.0941l47.6091 0c4.48937,0 8.12717,3.61772 8.12717,8.0941l0 47.426z"/>
  <path class="fil2" d="M1173.22 1079.52c0,4.47048 -3.6378,8.0941 -8.12717,8.0941l-47.6091 0c-4.4941,0 -8.13071,-3.62362 -8.13071,-8.0941l0 -47.426c0,-4.47638 3.63662,-8.0941 8.13071,-8.0941l47.6091 0c4.48937,0 8.12717,3.61772 8.12717,8.0941l0 47.426z"/>
  <path class="fil2" d="M1354.45 1079.52c0,4.47048 -3.6378,8.0941 -8.12717,8.0941l-47.6091 0c-4.4941,0 -8.13071,-3.62362 -8.13071,-8.0941l0 -47.426c0,-4.47638 3.63662,-8.0941 8.13071,-8.0941l47.6091 0c4.48937,0 8.12717,3.61772 8.12717,8.0941l0 47.426z"/>
  <path class="fil2" d="M1535.67 1079.52c0,4.47048 -3.6378,8.0941 -8.12717,8.0941l-47.6091 0c-4.4941,0 -8.13071,-3.62362 -8.13071,-8.0941l0 -47.426c0,-4.47638 3.63662,-8.0941 8.13071,-8.0941l47.6091 0c4.48937,0 8.12717,3.61772 8.12717,8.0941l0 47.426z"/>
 </g>
</svg>
