<svg xmlns="http://www.w3.org/2000/svg" viewBox="0 0 512 512"><title>Tie</title><g id="Tie"><path d="M326.9082,368.83l-39.7764-204.893,20.3428-59.5884a23.5817,23.5817,0,0,0-22.1318-31.7256H226.6577a23.5829,23.5829,0,0,0-22.1328,31.7246l20.3433,59.5894L185.0918,368.83a5.5016,5.5016,0,0,0,1.5557,4.9825l65.5092,64a5.5013,5.5013,0,0,0,7.6871,0l65.5087-64A5.5029,5.5029,0,0,0,326.9082,368.83ZM214.9126,100.7282c-.0161-.0459-.0327-.0928-.05-.1387a12.5828,12.5828,0,0,1,11.7949-16.9668h58.6851A12.5825,12.5825,0,0,1,297.1367,100.59c-.0176.0459-.0342.0928-.05.1387l-19.665,57.6045H234.5786ZM256,426.1881l-59.5444-58.1728,38.5708-198.6826h41.9472l38.5713,198.6826Z"/></g></svg>