<?xml version="1.0" encoding="utf-8"?>
<!-- Generator: Adobe Illustrator 19.0.1, SVG Export Plug-In . SVG Version: 6.00 Build 0)  -->
<svg version="1.1" id="resturant" xmlns="http://www.w3.org/2000/svg" xmlns:xlink="http://www.w3.org/1999/xlink" x="0px" y="0px"
	 viewBox="0 0 128 128" style="enable-background:new 0 0 128 128;" xml:space="preserve">
<style type="text/css">
	.st0{display:none;fill:#141414;}
	.st1{fill:#141414;}
	.st2{display:none;}
	.st3{display:inline;fill:#141414;}
</style>
<g id="row4">
	<path id="notepad_1_" class="st0" d="M101.1,12.7H74.7C74.6,6.5,69.1,0.9,62.5,0.9c-6.6,0-11.7,5.4-11.8,11.9H26.9
		c-5.4,0-9.9,4.4-9.9,9.7v94.9c0,5.4,4.4,9.7,9.9,9.7h74.2c5.5,0,9.9-4.4,9.9-9.7V22.5C111,17.1,106.6,12.7,101.1,12.7z M61.4,12.7
		c0.3-0.1,0.7-0.2,1.1-0.2c0.4,0,0.8,0,1.1,0.2c1.6,0.5,2.8,1.9,2.8,3.7c0,0.4,0,0.8-0.2,1.1c-0.5,1.6-2,2.7-3.8,2.7
		c-1.8,0-3.3-1.1-3.7-2.7c-0.1-0.4-0.2-0.8-0.2-1.1C58.6,14.7,59.8,13.2,61.4,12.7z M106.1,117.4c0,2.7-2.2,4.9-4.9,4.9H26.9
		c-2.7,0-4.9-2.2-4.9-4.9V22.5c0-2.7,2.2-4.9,4.9-4.9h23.8c0,3.9,0,6.6,0,6.6H38.9c-2.2,0-4,1.8-4,3.9s0,5.3,0,5.3h55.5
		c0,0,0-3.2,0-5.3s-1.8-3.9-4-3.9H74.6c0,0,0.1-2.5,0.1-6.6h26.4c2.7,0,4.9,2.2,4.9,4.9V117.4z M94.3,65.9H33.7V61h60.7V65.9z
		 M94.3,80.5H33.7v-4.9h60.7V80.5z M94.3,95.1H33.7v-4.9h60.7V95.1z M94.3,109.7H33.7v-4.9h60.7V109.7z M94.3,51.3H33.7v-4.9h60.7
		V51.3z"/>
	<path class="st0" d="M35.6,102.5H22.3C10,102.5,0,92.7,0,80.5l0-0.3l6.6-32.9h44.6l6.7,33.2C57.9,92.7,47.9,102.5,35.6,102.5z
		 M3.2,80.7C3.3,91,11.8,99.4,22.3,99.4h13.3c10.5,0,19-8.4,19.1-18.7l-6.1-30.2H9.3L3.2,80.7z M8.1,28.8v15.7h41.8V28.8H8.1z
		 M18.1,40.1h-4v-8.4h4V40.1z M26.1,40.1h-4v-8.4h4V40.1z M34.1,40.1h-4v-8.4h4V40.1z M42,40.1h-4v-8.4h4V40.1z M38.4,74.8
		c-1.4,1.2-3.4,1.7-6,1.7h-5V85h-5V61.3h10.3c2.4,0,4.3,0.6,5.7,1.8c1.4,1.2,2.1,3.1,2.1,5.7C40.6,71.6,39.8,73.6,38.4,74.8z
		 M34.6,66.2c-0.6-0.5-1.5-0.8-2.7-0.8h-4.5v7h4.5c1.1,0,2-0.3,2.7-0.9c0.6-0.6,1-1.5,1-2.7S35.2,66.7,34.6,66.2z M105.7,102.5H92.4
		c-12.3,0-22.3-9.9-22.3-22l0-0.3l6.6-32.9h44.6l6.7,33.2C128,92.7,118,102.5,105.7,102.5z M73.3,80.7c0.1,10.3,8.6,18.7,19.1,18.7
		h13.3c10.5,0,19-8.4,19.1-18.7l-6.1-30.2H79.4L73.3,80.7z M78.2,28.8v15.7h41.8V28.8H78.2z M88.3,40.1h-4v-8.4h4V40.1z M96.2,40.1
		h-4v-8.4h4V40.1z M104.2,40.1h-4v-8.4h4V40.1z M112.2,40.1h-4v-8.4h4V40.1z M94.4,77.7c0.2,1.1,0.5,1.9,0.9,2.4
		c0.8,1,2.3,1.5,4.3,1.5c1.2,0,2.2-0.1,3-0.4c1.4-0.5,2.2-1.4,2.2-2.8c0-0.8-0.4-1.4-1.1-1.8c-0.7-0.4-1.8-0.8-3.3-1.1L97.7,75
		c-2.6-0.6-4.3-1.2-5.3-1.8C90.8,72.1,90,70.4,90,68c0-2.1,0.8-3.9,2.4-5.3c1.6-1.4,3.9-2.1,7-2.1c2.6,0,4.8,0.7,6.6,2
		c1.8,1.3,2.8,3.3,2.9,5.8H104c-0.1-1.4-0.7-2.4-1.9-3c-0.8-0.4-1.8-0.6-3-0.6c-1.3,0-2.4,0.3-3.2,0.8c-0.8,0.5-1.2,1.2-1.2,2.2
		c0,0.8,0.4,1.5,1.2,1.9c0.5,0.3,1.6,0.6,3.2,1l4.2,1c1.9,0.4,3.2,1,4.2,1.7c1.4,1.1,2.2,2.7,2.2,4.8c0,2.2-0.9,4-2.6,5.4
		c-1.7,1.4-4.1,2.2-7.2,2.2c-3.2,0-5.7-0.7-7.5-2.1c-1.8-1.4-2.7-3.4-2.7-5.8H94.4z"/>
	<path id="pizza" class="st0" d="M82.6,67c-5.2,0-9.4,4.2-9.4,9.3c0,5.1,4.2,9.3,9.4,9.3c5.2,0,9.4-4.1,9.4-9.3
		C92,71.2,87.8,67,82.6,67z M54.1,50.2c-5.2,0-9.4,4.2-9.4,9.3c0,5.1,4.2,9.3,9.4,9.3c5.2,0,9.4-4.2,9.4-9.3
		C63.5,54.4,59.3,50.2,54.1,50.2z M88.3,33.3c-5.2,0-9.4,4.1-9.4,9.3c0,5.1,4.2,9.3,9.4,9.3c5.2,0,9.4-4.2,9.4-9.3
		C97.7,37.5,93.5,33.3,88.3,33.3z M1.2,49l0.9,3.3c11.4,40.5,47.5,70.5,90,74.5l3.3,0.3L126.8,0.9L1.2,49z M115.9,13.2l-22.3,89.7
		c-31.3-3.9-58-25.6-67.8-55.2L115.9,13.2z M89.5,118.9c-36.7-4.8-67.9-30.5-79.1-65.4l10.5-4c10.4,31.1,38.4,53.9,71.4,58.3
		L89.5,118.9z"/>
	<path id="bbq_x5F_stick_1_" class="st0" d="M115.7,51.9c-6.2,0-11.4,4.6-12.2,10.5H90c-0.8-4-4.3-7.1-8.7-7.1s-7.9,3.1-8.7,7.1
		h-1.3V56c0-0.9-0.7-1.6-1.6-1.6h-5.6c-0.9,0-1.6,0.7-1.6,1.6v6.5h-1.3c-0.8-4-4.3-7.1-8.7-7.1s-7.9,3.1-8.7,7.1h-1.3V56
		c0-0.9-0.7-1.6-1.6-1.6h-5.6c-0.9,0-1.6,0.7-1.6,1.6v6.5h-1.3c-0.8-4-4.3-7.1-8.7-7.1s-7.9,3.1-8.7,7.1H1.6C0.7,62.4,0,63.1,0,64
		c0,0.9,0.7,1.6,1.6,1.6h13.3c0.8,4,4.3,7.1,8.7,7.1s7.9-3.1,8.7-7.1h1.3V72c0,0.9,0.7,1.6,1.6,1.6h5.6c0.9,0,1.6-0.7,1.6-1.6v-6.5
		h1.3c0.8,4,4.3,7.1,8.7,7.1s7.9-3.1,8.7-7.1h1.3V72c0,0.9,0.7,1.6,1.6,1.6h5.6c0.9,0,1.6-0.7,1.6-1.6v-6.5h1.3
		c0.8,4,4.3,7.1,8.7,7.1s7.9-3.1,8.7-7.1h13.5c0.8,5.9,5.9,10.5,12.2,10.5c6.8,0,12.3-5.4,12.3-12.1C128,57.3,122.5,51.9,115.7,51.9
		z M115.7,72.9c-5,0-9.1-4-9.1-8.9s4.1-8.9,9.1-8.9c5,0,9.1,4,9.1,8.9S120.7,72.9,115.7,72.9z"/>
</g>
<g id="row3">
	<path id="dress" class="st0" d="M62.9,59.6c-2.8,0-5.1,2.3-5.1,5c0,2.8,2.3,5,5.1,5c2.8,0,5.1-2.3,5.1-5
		C68,61.8,65.7,59.6,62.9,59.6z M62.9,40.5c-2.8,0-5.1,2.3-5.1,5c0,2.8,2.3,5,5.1,5c2.8,0,5.1-2.2,5.1-5
		C68,42.8,65.7,40.5,62.9,40.5z M84.8,63.5v7.3h30.8v-7.3H84.8z M84.8,63.5v7.3h30.8v-7.3H84.8z M104.1,15L64,86.1L23.9,15H0v104.9
		h128V15H104.1z M123.7,115.7H4.3V19.2h17.2L64,94.7l42.6-75.5h17.2V115.7z M84.8,70.7h30.8v-7.3H84.8V70.7z M84.8,9.7v22.7
		c0,0.9-0.7,1.6-1.7,1.6l-14.3-6.7c-0.8,2.2-3,3.8-5.5,3.8h-0.9c-2.6,0-4.9-1.7-5.6-4.1L42,34.1c-0.9,0-1.7-0.7-1.7-1.6V9.7
		c0-0.9,0.7-1.6,1.7-1.6L56.8,15c0.8-2.4,3-4.1,5.6-4.1h0.9c2.5,0,4.7,1.6,5.5,3.8l14.3-6.7C84.1,8.1,84.8,8.8,84.8,9.7z"/>
	<path id="credit_x5F_cart_1_" class="st1" d="M76.4,59.3c-0.8,0-1.7,0.2-2.4,0.4c2.7,1,4.6,3.5,4.6,6.5c0,3-1.9,5.5-4.6,6.5
		c0.8,0.3,1.6,0.4,2.4,0.4c3.9,0,7-3.1,7-6.9C83.4,62.4,80.2,59.3,76.4,59.3z M68.3,59.3c-3.9,0-7,3.1-7,6.9c0,3.8,3.1,6.9,7,6.9
		s7-3.1,7-6.9C75.3,62.4,72.1,59.3,68.3,59.3z M67.4,94.2v5h14.2v-5H67.4z M49.6,94.2v5h14.2v-5H49.6z M31.8,94.2v5H46v-5H31.8z
		 M14,94.2v5h14.2v-5H14z M32.2,70.6H14.3c-1,0-1.8,0.8-1.8,1.8v10.4c0,1,0.8,1.8,1.8,1.8h17.8c1,0,1.8-0.8,1.8-1.8V72.4
		C34,71.4,33.2,70.6,32.2,70.6z M67.4,94.2v5h14.2v-5H67.4z M49.6,94.2v5h14.2v-5H49.6z M31.8,94.2v5H46v-5H31.8z M32.2,70.6H14.3
		c-1,0-1.8,0.8-1.8,1.8v10.4c0,1,0.8,1.8,1.8,1.8h17.8c1,0,1.8-0.8,1.8-1.8V72.4C34,71.4,33.2,70.6,32.2,70.6z M14,94.2v5h14.2v-5
		H14z M14,94.2v5h14.2v-5H14z M32.2,70.6H14.3c-1,0-1.8,0.8-1.8,1.8v10.4c0,1,0.8,1.8,1.8,1.8h17.8c1,0,1.8-0.8,1.8-1.8V72.4
		C34,71.4,33.2,70.6,32.2,70.6z M31.8,94.2v5H46v-5H31.8z M49.6,94.2v5h14.2v-5H49.6z M67.4,94.2v5h14.2v-5H67.4z M67.4,99.2h14.2
		v-5H67.4V99.2z M49.6,99.2h14.2v-5H49.6V99.2z M31.8,99.2H46v-5H31.8V99.2z M32.2,84.5c1,0,1.8-0.8,1.8-1.8V72.4
		c0-1-0.8-1.8-1.8-1.8H14.3c-1,0-1.8,0.8-1.8,1.8v10.4c0,1,0.8,1.8,1.8,1.8H32.2z M14,99.2h14.2v-5H14V99.2z M67.4,99.2h14.2v-5
		H67.4V99.2z M49.6,99.2h14.2v-5H49.6V99.2z M31.8,99.2H46v-5H31.8V99.2z M32.2,84.5c1,0,1.8-0.8,1.8-1.8V72.4c0-1-0.8-1.8-1.8-1.8
		H14.3c-1,0-1.8,0.8-1.8,1.8v10.4c0,1,0.8,1.8,1.8,1.8H32.2z M14,99.2h14.2v-5H14V99.2z M14,94.2v5h14.2v-5H14z M32.2,70.6H14.3
		c-1,0-1.8,0.8-1.8,1.8v10.4c0,1,0.8,1.8,1.8,1.8h17.8c1,0,1.8-0.8,1.8-1.8V72.4C34,71.4,33.2,70.6,32.2,70.6z M31.8,94.2v5H46v-5
		H31.8z M49.6,94.2v5h14.2v-5H49.6z M67.4,94.2v5h14.2v-5H67.4z M67.4,94.2v5h14.2v-5H67.4z M49.6,94.2v5h14.2v-5H49.6z M31.8,94.2
		v5H46v-5H31.8z M32.2,70.6H14.3c-1,0-1.8,0.8-1.8,1.8v10.4c0,1,0.8,1.8,1.8,1.8h17.8c1,0,1.8-0.8,1.8-1.8V72.4
		C34,71.4,33.2,70.6,32.2,70.6z M14,94.2v5h14.2v-5H14z M123,18.4H37.4c-2.8,0-5.1,2.2-5.1,5v25.4H5.4c-3,0-5.4,2.4-5.4,5.3v50.2
		c0,2.9,2.4,5.3,5.4,5.3h84.8c3,0,5.4-2.4,5.4-5.3v-25H123c2.8,0,5-2.2,5-5v-51C128,20.6,125.7,18.4,123,18.4z M92,104.3
		c0,1-0.8,1.8-1.8,1.8H5.4c-1,0-1.8-0.8-1.8-1.8V54.1c0-1,0.8-1.8,1.8-1.8h84.8c1,0,1.8,0.8,1.8,1.8V104.3z M124.4,74.3
		c0,0.8-0.7,1.4-1.4,1.4H95.6V54.1c0-3-2.4-5.3-5.4-5.3H36v-6.2h88.4V74.3z M124.4,30.3H36v-7c0-0.8,0.7-1.4,1.4-1.4H123
		c0.8,0,1.4,0.6,1.4,1.4V30.3z"/>
	<g id="drink" class="st2">
		<path id="bg_1_" class="st3" d="M106.9,44.5c0,41.8-26.9,48-42.9,48s-42.9-6.2-42.9-48c0-1.6,0.1-3.5,0.3-5.5h85.2
			C106.8,41.1,106.9,42.9,106.9,44.5z"/>
		<path id="border_1_" class="st3" d="M64,84.9v-2.4c12.3,0,32.9-4.8,32.9-36.8h2.5C99.4,70.6,86.5,84.9,64,84.9z M65.7,97.4v24.9
			h25.6v4.8H35.9v-4.8h24.9v-25C32.4,96,16.2,76.9,16.2,44.5c0-13.1,6.8-40.6,7.1-41.8l0.4-1.8h81l0.4,1.9c0.3,1.2,6.7,29,6.7,41.8
			C111.8,77.5,95,96.6,65.7,97.4z M22,34.2H106c-1.4-10.7-4.2-23.7-5.3-28.5H27.6C26.5,10.4,23.5,23.4,22,34.2z M106.9,44.5
			c0-1.6-0.1-3.4-0.3-5.5H21.4c-0.2,2-0.3,3.9-0.3,5.5c0,41.8,26.9,48,42.9,48S106.9,86.3,106.9,44.5z"/>
	</g>
	<path id="fish" class="st0" d="M28.7,53c-4.7,0-8.5,3.7-8.5,8.3c0,4.6,3.8,8.3,8.5,8.3c4.7,0,8.5-3.7,8.5-8.3
		C37.2,56.7,33.4,53,28.7,53z M28.7,66.2c-2.8,0-5-2.2-5-5c0-2.7,2.2-5,5-5s5,2.2,5,5C33.7,64,31.5,66.2,28.7,66.2z M105.7,66
		c-3.2-3.6-16.2-17.4-33.7-23.9c-1.3-3.1-4.9-12.8-5.8-23.1l-0.3-3l-2.5,1.7C52.3,25.8,48.6,35.1,47.6,39
		c-26,3.3-45.8,26.8-46.7,27.8L0,67.9L0.9,69C1.7,70,19.3,90.8,43,96.1c0.3,0.6,2.9,4.6,16.1,14.1l2.4,1.7l0.3-3
		c0.8-8.5,3.4-12.1,4.7-13.4c20.2-5.4,35.5-21.6,39.1-25.6L128,96.3V39.6L105.7,66z M63.1,22.4c1,7.4,3.2,14.2,4.7,18.3
		c-4.5-1.3-9.2-2.1-14.1-2.1c-0.8,0-1.6,0-2.4,0.1C52.5,35.1,55.6,28.5,63.1,22.4z M4.5,67.9c3-3.3,13-13.6,26.4-20.1
		c8,1.4,14.2,9.8,14.2,19.9c0,10.5-6.7,19.1-15.2,20C17.1,81.1,7.4,71.2,4.5,67.9z M58.8,105.7c-5.6-4.1-8.8-7-10.6-8.8
		c1.8,0.2,3.6,0.3,5.4,0.3c2.7,0,5.4-0.2,8-0.7C60.5,98.7,59.5,101.6,58.8,105.7z M66,92.1c-0.3,0.1-0.7,0.2-1,0.3
		c-3.7,0.9-7.5,1.5-11.3,1.5c-7.5,0-14.7-2-21.1-5c8.2-2.2,14.3-10.9,14.3-21.2c0-10-5.7-18.5-13.5-21c6.2-2.8,13.1-4.6,20.3-4.6
		c24.1,0,44.6,20.9,49.2,25.9C99.1,72.1,84.5,87,66,92.1z M124.6,87l-16.1-19l16.1-19V87z"/>
</g>
<g id="row2">
	<g id="beef" class="st2">
		<path id="bg" class="st3" d="M95.1,19.3c-19.1,0-17.7,23-25.5,33.8c-8.3,11.4-21.1,16-44.3,19.8c-16.4,2.7-23.1,40.4,45.9,36.7
			c34.9-1.9,45.2-35.2,45.3-52.2C116.6,40.4,112.4,19.3,95.1,19.3z M40.2,99.3c-6,0-10.9-4.8-10.9-10.7s4.9-10.7,10.9-10.7
			S51,82.6,51,88.5S46.2,99.3,40.2,99.3z"/>
		<path id="border" class="st3" d="M94.7,7C75.5,6.7,70.4,19.7,66,31.2c-1.5,3.8-3,7.8-5,11.2c-7.5,13.1-15.2,14.9-36.8,17.1
			C10.2,60.9-1.1,74.7,0.1,89c0.6,7.8,7,32,61.9,32c3.5,0,7.1-0.1,11-0.3c40.3-2.1,54.8-36,55-64.4C128.2,32.8,119.5,7.5,94.7,7z
			 M72.7,116.3C11.6,119.5,5.1,96,4.5,88.7C3.6,76.8,13.1,65,24.6,63.9c20.9-2.1,31.4-3.8,40.3-19.3c2.1-3.7,3.7-7.8,5.3-11.8
			c4.5-11.7,8.3-21.7,24.5-21.4c21.6,0.4,29.1,23.5,29,44.9c0,6.4-1.1,22.7-10,37C104.7,107.6,91,115.3,72.7,116.3z M108,23.4
			c-3.5-3.4-7.8-5.2-12.9-5.2c-13.7,0-17.5,11.5-20.9,21.5c-1.6,4.8-3.1,9.4-5.5,12.7c-8.5,11.7-21.9,15.8-43.6,19.3
			c-7.3,1.2-12.6,8.6-11.7,16.4c1.9,16.8,25.5,22.7,49.6,22.7c2.7,0,5.5-0.1,8.3-0.2c33.8-1.8,46.3-32.9,46.3-53.3
			C117.6,48.3,116.4,31.8,108,23.4z M15.6,88c-0.8-6.7,3.7-13,9.9-14.1c22.3-3.7,36-8,45-20.2c2.6-3.6,4.2-8.3,5.8-13.3
			c3.4-10.3,6.6-20,18.8-20c4.5,0,8.3,1.5,11.3,4.5c7.9,7.8,9,23.7,9,32.4c0,13.6-8.1,49.2-44.3,51.1C32.1,110.6,16.8,99.3,15.6,88z
			 M40.2,77.8c-6,0-10.9,4.8-10.9,10.7s4.9,10.7,10.9,10.7S51,94.5,51,88.5S46.2,77.8,40.2,77.8z M40.2,94.9c-3.5,0-6.4-2.8-6.4-6.3
			s2.9-6.3,6.4-6.3c3.5,0,6.4,2.8,6.4,6.3S43.7,94.9,40.2,94.9z"/>
	</g>
	<path id="chicken" class="st0" d="M56.3,47.1c-7.8-2.1-15.2-3.2-21.9-3.2c-7.8,0-14.2,2.3-18.4,6.8c-3.8,3.9-5.8,9.3-5.5,15.1
		c0,0.5,0.4,0.9,0.9,0.9c0,0,0,0,0,0c0.5,0,0.9-0.5,0.9-1c-0.3-5.3,1.5-10.2,4.9-13.8c3.9-4.1,9.8-6.2,17.1-6.2
		c6.5,0,13.7,1,21.4,3.1c0.5,0.1,1-0.2,1.2-0.7C57.1,47.7,56.8,47.2,56.3,47.1z M124.6,66.6c-1.2-1-1.8-1.5-1.8-2.3
		c0.2-0.1,0.4-0.3,0.6-0.4c1.5-0.9,4.4-2.5,4.4-7.7c0-2.4-1-4.5-2.9-5.9c-2.3-1.8-5.6-2.3-8.7-1.5c-2.4,0.6-15.3,3.4-18.5,4
		c-4.8-2.6-34.2-17.7-64-17.7c-13.9,0-25,5.7-30.4,15.5C-1.6,59.6-1,70.9,4.8,79.5c5.8,8.7,15.9,13.4,28.1,13.4
		c1.5,0,3.1-0.1,4.7-0.2C52.8,91.2,91,74.6,96.7,72.1c3,0.9,15.2,4.8,19.2,6.1c4.1,1.3,7.4,1.2,9.7-0.4c1.2-0.8,2.5-2.4,2.5-5.3
		C128,69.4,126.1,67.8,124.6,66.6z M37.2,89C24.4,90.2,13.8,86,8,77.4c-5-7.5-5.6-17.3-1.4-25c4.7-8.7,14.3-13.6,27-13.6
		c27.8,0,56.3,14.1,61.8,17v12.7C91.6,70.2,52,87.6,37.2,89z M123.3,74.7c-1.2,0.8-3.5,0.8-6.2-0.1c-3.5-1.2-13.4-4.3-17.8-5.7V56.2
		c4.1-0.9,15.5-3.3,17.8-3.9c2-0.5,4.1-0.2,5.5,0.9c0.7,0.5,1.5,1.5,1.5,3c0,3-1.2,3.7-2.5,4.5c-1,0.6-2.5,1.4-2.5,3.4
		c0,2.7,1.8,4.3,3.2,5.4c1.3,1.1,2,1.8,2,3C124.2,73.5,123.9,74.3,123.3,74.7z"/>
	<path id="hat" class="st0" d="M121.4,46.3c0-12.6-10.4-22.9-23.2-22.9c-0.1,0-0.2,0-0.2,0c-4.7-13-18.1-22.5-33.8-22.5
		S35,10.3,30.3,23.4c-0.2,0-0.3,0-0.5,0C17,23.3,6.6,33.6,6.6,46.3C6.6,58,15.7,67.8,27.3,69v58.1h73.4l0-58.1
		C112.3,67.8,121.4,58.1,121.4,46.3z M96.1,122.5H31.9v-8.3h64.1V122.5z M98.2,64.6h-2.5l0.4,4v41H84.2V76.4c0-1.3-1-2.3-2.3-2.3
		c-1.3,0-2.3,1-2.3,2.3v33.3H66.3V90.1c0-1.3-1-2.3-2.3-2.3s-2.3,1-2.3,2.3v19.5H48.4V76.4c0-1.3-1-2.3-2.3-2.3
		c-1.3,0-2.3,1-2.3,2.3v33.3H31.9V68.9l0.4-4.3h-2.5c-10.3,0-18.6-8.3-18.6-18.4c0-9.9,7.9-18,17.9-18.3c-0.3,1.8-0.5,3.7-0.5,5.5
		c0,1.3,1,2.3,2.3,2.3c1.3,0,2.3-1,2.3-2.3c0-15.4,13.9-28,30.9-28s30.9,12.6,30.9,28c0,1.3,1,2.3,2.3,2.3c1.3,0,2.3-1,2.3-2.3
		c0-1.9-0.2-3.7-0.5-5.5c9.8,0.5,17.6,8.5,17.6,18.3C116.8,56.4,108.5,64.6,98.2,64.6z M38.8,35c-0.6,0-1.2-0.5-1.2-1.1
		c0-12.9,11-23.4,24.5-23.4c0.6,0,1.2,0.5,1.2,1.1c0,0.6-0.5,1.1-1.2,1.1C49.9,12.7,40,22.2,40,33.9C40,34.5,39.5,35,38.8,35z"/>
	<path id="plate-knife-fork" class="st0" d="M67,109c-24.3,0-44.1-19.5-44.1-43.5S42.7,22,67,22s44.1,19.5,44.1,43.5
		S91.4,109,67,109z M67,26.9c-21.6,0-39.2,17.3-39.2,38.6c0,21.3,17.6,38.6,39.2,38.6c21.6,0,39.2-17.3,39.2-38.6
		C106.2,44.2,88.6,26.9,67,26.9z M67,95.3c-16.7,0-30.2-13.4-30.2-29.8S50.4,35.8,67,35.8s30.2,13.4,30.2,29.8S83.7,95.3,67,95.3z
		 M67,39c-14.8,0-26.9,11.9-26.9,26.5C40.1,80.2,52.2,92,67,92c14.8,0,26.9-11.9,26.9-26.5C93.9,50.9,81.8,39,67,39z M47.6,65.5
		c0-10.6,8.7-19.2,19.4-19.2c0.5,0,0.8-0.4,0.8-0.8c0-0.5-0.4-0.8-0.8-0.8c-11.6,0-21.1,9.3-21.1,20.8c0,0.5,0.4,0.8,0.8,0.8
		C47.2,66.3,47.6,66,47.6,65.5z M123,73.2v32.2c0,0.9,0.7,1.6,1.7,1.6h1.6c0.9,0,1.7-0.7,1.7-1.6V21.5c0-0.9-0.7-1.6-1.7-1.6h-0.9
		c-3.2,0-7.2,11.9-7.2,26.6c0,13.1,0.7,24,3.4,26.2L123,73.2z M16.9,19c-0.9,0-1.7,0.7-1.7,1.6v14.2h-2V21c0-0.9-0.7-1.6-1.7-1.6
		c-0.9,0-1.7,0.7-1.7,1.6v13.8H8.3V21c0-0.9-0.7-1.6-1.7-1.6C5.7,19.4,5,20.1,5,21v13.8H3.3V20.6c0-0.9-0.7-1.6-1.7-1.6
		S0,19.7,0,20.6v28.8h6.4v55.9c0,0.9,0.7,1.6,1.7,1.6H10c0.9,0,1.7-0.7,1.7-1.6V49.4h6.9V20.6C18.5,19.7,17.8,19,16.9,19z"/>
</g>
<g id="row1">
	<path id="icon" class="st0" d="M48.9,51.8c-9,2.5-16.8,8.1-21.9,15.9l1.4,0.9c4.9-7.4,12.4-12.8,21-15.2L48.9,51.8z M48.9,51.8
		c-9,2.5-16.8,8.1-21.9,15.9l1.4,0.9c4.9-7.4,12.4-12.8,21-15.2L48.9,51.8z M48.9,51.8c-9,2.5-16.8,8.1-21.9,15.9l1.4,0.9
		c4.9-7.4,12.4-12.8,21-15.2L48.9,51.8z M48.9,51.8c-9,2.5-16.8,8.1-21.9,15.9l1.4,0.9c4.9-7.4,12.4-12.8,21-15.2L48.9,51.8z
		 M119.8,93c-0.9-25.5-19.5-46.7-44.1-51.9c-1.1-5.3-5.9-9.4-11.7-9.4s-10.6,4-11.7,9.4C27.7,46.2,9.1,67.4,8.3,93H0v3.4h128V93
		H119.8z M64,35c3.6,0,6.7,2.2,7.9,5.3c-2.6-0.4-5.2-0.6-7.9-0.6s-5.3,0.2-7.9,0.6C57.3,37.3,60.4,35,64,35z M11.7,93
		c1-27.6,24.1-49.7,52.3-49.7s51.3,22.1,52.3,49.7H11.7z"/>
	<g id="cofee" class="st2">
		<path id="Path" class="st3" d="M108.8,57.4c0,25.5-12.1,42.1-29.7,52.6c0,3.9,0,9.6,0,9.6l-47.8,0.1c0,0,0-6.4,0-10.8
			C14.8,98,3.5,82,3.5,57.4C54.7,57.4,73.7,57.4,108.8,57.4z"/>
		<path id="Path_1_" class="st3" d="M121.6,53.3c-3-1.6-6.6-1.8-10.4-0.5v-0.7c0-2.9-0.4-8.4-0.4-8.6l-0.2-2.1l-108.8,0l-0.2,2.1
			c0,0.2-0.4,5.7-0.4,8.7c0,1.5,0,3.1,0.1,4.6c0,0.6,0.1,1.2,0.1,1.7C3.1,79.9,13.3,99.3,29,110.1v9.9l52.5,0v-8.7
			c6.1-3.8,11.5-8.9,15.9-14.9c1.7,0.9,3.5,1.4,5.5,1.4c7.1,0,15.3-5.8,20.6-15.3C130.2,70.3,129.4,57.5,121.6,53.3z M5.9,52.1
			c0-1.6,0.1-4.3,0.3-6.1l100,0c0.1,1.8,0.3,4.5,0.3,6.1c0,1,0,2,0,3H6C5.9,54.1,5.9,53.1,5.9,52.1z M77.9,108l-1.2,0.7v6.6l-43,0
			v-7.7l-1.1-0.7C18,97.3,8.3,79.6,6.3,59.7H106C103.9,80.4,93.3,98.8,77.9,108z M119.3,80.2c-5.2,9.2-13.9,14.7-19.2,12.3
			c6.1-9.7,9.9-21.4,10.9-34c0-0.2,0-0.3,0-0.5c0,0,0.1-0.1,0.2-0.1c3.1-1.5,6-1.7,8.2-0.5C124.6,60.2,124.6,70.7,119.3,80.2z
			 M108.8,128H3.5c-2,0-3.5-1.6-3.5-3.5s1.6-3.5,3.5-3.5h105.3c2,0,3.5,1.6,3.5,3.5S110.8,128,108.8,128z M28.3,38.3
			c-0.9,0-1.8-0.5-2.2-1.4c-0.5-1.2,0.1-2.6,1.3-3.1c1.7-0.7,6.2-3.3,6.9-6.8c0.4-2.1-0.6-4.4-3-7c-4.2-4.4-5.9-8.5-5.2-12.4
			c0.9-5,5.7-7.4,5.9-7.5c1.2-0.6,2.6-0.1,3.2,1.1c0.6,1.2,0.1,2.5-1.1,3.1c-0.1,0-2.9,1.5-3.3,4.2c-0.4,2.3,1,5.2,4,8.3
			c3.6,3.7,5,7.5,4.2,11.1c-1.4,6.5-9.4,10-9.7,10.1C28.9,38.3,28.6,38.3,28.3,38.3z M51.9,38.3c-0.9,0-1.8-0.5-2.2-1.4
			c-0.5-1.2,0.1-2.6,1.3-3.1c1.7-0.7,6.2-3.3,6.9-6.8c0.4-2.1-0.6-4.4-3-7c-4.2-4.4-5.9-8.5-5.2-12.4c0.9-5,5.7-7.4,5.9-7.5
			c1.2-0.6,2.6-0.1,3.2,1.1c0.6,1.2,0.1,2.5-1.1,3.1c-0.1,0-2.9,1.5-3.3,4.2c-0.4,2.3,1,5.2,4,8.3c3.6,3.7,5,7.5,4.2,11.1
			c-1.4,6.5-9.4,10-9.7,10.1C52.6,38.3,52.2,38.3,51.9,38.3z M75.6,38.3c-0.9,0-1.8-0.5-2.2-1.4c-0.5-1.2,0.1-2.6,1.3-3.1
			c1.7-0.7,6.2-3.3,6.9-6.8c0.4-2.1-0.6-4.4-3-7c-4.2-4.4-5.9-8.5-5.2-12.4c0.9-5,5.7-7.4,5.9-7.5c1.2-0.6,2.6-0.1,3.2,1.1
			c0.6,1.2,0.1,2.5-1.1,3.1c-0.1,0-2.9,1.5-3.3,4.2c-0.4,2.3,1,5.2,4,8.3c3.6,3.7,5,7.5,4.2,11.1c-1.4,6.5-9.4,10-9.7,10.1
			C76.2,38.3,75.9,38.3,75.6,38.3z"/>
	</g>
	<path id="menu" class="st0" d="M121.5,4.8H6.5C2.9,4.8,0,7.7,0,11.2v105.6c0,3.6,2.9,6.4,6.5,6.4h115c3.6,0,6.5-2.9,6.5-6.4V11.2
		C128,7.7,125.1,4.8,121.5,4.8z M4.3,116.8V11.2c0-1.2,1-2.1,2.2-2.1h55.3v109.8H6.5C5.3,118.9,4.3,118,4.3,116.8z M123.7,116.8
		c0,1.2-1,2.1-2.2,2.1H66.2V9.1h55.3c1.2,0,2.2,1,2.2,2.1V116.8z M54.7,96.4H11.5c-1.2,0-2.2,0.9-2.2,2.1c0,1.2,1,2.1,2.2,2.1h43.2
		c1.2,0,2.2-1,2.2-2.1C56.8,97.4,55.9,96.4,54.7,96.4z M54.7,80.5H11.5c-1.2,0-2.2,1-2.2,2.1c0,1.2,1,2.1,2.2,2.1h43.2
		c1.2,0,2.2-1,2.2-2.1C56.8,81.4,55.9,80.5,54.7,80.5z M54.7,64.5H11.5c-1.2,0-2.2,1-2.2,2.1c0,1.2,1,2.1,2.2,2.1h43.2
		c1.2,0,2.2-0.9,2.2-2.1C56.8,65.5,55.9,64.5,54.7,64.5z M54.7,48.5H11.5c-1.2,0-2.2,0.9-2.2,2.1c0,1.2,1,2.1,2.2,2.1h43.2
		c1.2,0,2.2-1,2.2-2.1C56.8,49.5,55.9,48.5,54.7,48.5z M54.7,33.5H11.5c-1.2,0-2.2,0.9-2.2,2.1c0,1.2,1,2.1,2.2,2.1h43.2
		c1.2,0,2.2-1,2.2-2.1C56.8,34.5,55.9,33.5,54.7,33.5z M116.5,96.4H73.3c-1.2,0-2.2,0.9-2.2,2.1c0,1.2,1,2.1,2.2,2.1h43.2
		c1.2,0,2.2-1,2.2-2.1C118.7,97.4,117.7,96.4,116.5,96.4z M116.5,80.5H73.3c-1.2,0-2.2,1-2.2,2.1c0,1.2,1,2.1,2.2,2.1h43.2
		c1.2,0,2.2-1,2.2-2.1C118.7,81.4,117.7,80.5,116.5,80.5z M116.5,64.5H73.3c-1.2,0-2.2,1-2.2,2.1c0,1.2,1,2.1,2.2,2.1h43.2
		c1.2,0,2.2-0.9,2.2-2.1C118.7,65.5,117.7,64.5,116.5,64.5z M116.5,48.5H73.3c-1.2,0-2.2,0.9-2.2,2.1c0,1.2,1,2.1,2.2,2.1h43.2
		c1.2,0,2.2-1,2.2-2.1C118.7,49.5,117.7,48.5,116.5,48.5z M116.5,33.5H73.3c-1.2,0-2.2,0.9-2.2,2.1c0,1.2,1,2.1,2.2,2.1h43.2
		c1.2,0,2.2-1,2.2-2.1C118.7,34.5,117.7,33.5,116.5,33.5z M54.7,96.4H11.5c-1.2,0-2.2,0.9-2.2,2.1c0,1.2,1,2.1,2.2,2.1h43.2
		c1.2,0,2.2-1,2.2-2.1C56.8,97.4,55.9,96.4,54.7,96.4z M54.7,80.5H11.5c-1.2,0-2.2,1-2.2,2.1c0,1.2,1,2.1,2.2,2.1h43.2
		c1.2,0,2.2-1,2.2-2.1C56.8,81.4,55.9,80.5,54.7,80.5z M54.7,64.5H11.5c-1.2,0-2.2,1-2.2,2.1c0,1.2,1,2.1,2.2,2.1h43.2
		c1.2,0,2.2-0.9,2.2-2.1C56.8,65.5,55.9,64.5,54.7,64.5z M54.7,48.5H11.5c-1.2,0-2.2,0.9-2.2,2.1c0,1.2,1,2.1,2.2,2.1h43.2
		c1.2,0,2.2-1,2.2-2.1C56.8,49.5,55.9,48.5,54.7,48.5z M54.7,33.5H11.5c-1.2,0-2.2,0.9-2.2,2.1c0,1.2,1,2.1,2.2,2.1h43.2
		c1.2,0,2.2-1,2.2-2.1C56.8,34.5,55.9,33.5,54.7,33.5z M116.5,96.4H73.3c-1.2,0-2.2,0.9-2.2,2.1c0,1.2,1,2.1,2.2,2.1h43.2
		c1.2,0,2.2-1,2.2-2.1C118.7,97.4,117.7,96.4,116.5,96.4z M116.5,80.5H73.3c-1.2,0-2.2,1-2.2,2.1c0,1.2,1,2.1,2.2,2.1h43.2
		c1.2,0,2.2-1,2.2-2.1C118.7,81.4,117.7,80.5,116.5,80.5z M116.5,64.5H73.3c-1.2,0-2.2,1-2.2,2.1c0,1.2,1,2.1,2.2,2.1h43.2
		c1.2,0,2.2-0.9,2.2-2.1C118.7,65.5,117.7,64.5,116.5,64.5z M116.5,48.5H73.3c-1.2,0-2.2,0.9-2.2,2.1c0,1.2,1,2.1,2.2,2.1h43.2
		c1.2,0,2.2-1,2.2-2.1C118.7,49.5,117.7,48.5,116.5,48.5z M116.5,33.5H73.3c-1.2,0-2.2,0.9-2.2,2.1c0,1.2,1,2.1,2.2,2.1h43.2
		c1.2,0,2.2-1,2.2-2.1C118.7,34.5,117.7,33.5,116.5,33.5z M54.7,96.4H11.5c-1.2,0-2.2,0.9-2.2,2.1c0,1.2,1,2.1,2.2,2.1h43.2
		c1.2,0,2.2-1,2.2-2.1C56.8,97.4,55.9,96.4,54.7,96.4z M54.7,80.5H11.5c-1.2,0-2.2,1-2.2,2.1c0,1.2,1,2.1,2.2,2.1h43.2
		c1.2,0,2.2-1,2.2-2.1C56.8,81.4,55.9,80.5,54.7,80.5z M54.7,64.5H11.5c-1.2,0-2.2,1-2.2,2.1c0,1.2,1,2.1,2.2,2.1h43.2
		c1.2,0,2.2-0.9,2.2-2.1C56.8,65.5,55.9,64.5,54.7,64.5z M54.7,48.5H11.5c-1.2,0-2.2,0.9-2.2,2.1c0,1.2,1,2.1,2.2,2.1h43.2
		c1.2,0,2.2-1,2.2-2.1C56.8,49.5,55.9,48.5,54.7,48.5z M116.5,96.4H73.3c-1.2,0-2.2,0.9-2.2,2.1c0,1.2,1,2.1,2.2,2.1h43.2
		c1.2,0,2.2-1,2.2-2.1C118.7,97.4,117.7,96.4,116.5,96.4z M116.5,80.5H73.3c-1.2,0-2.2,1-2.2,2.1c0,1.2,1,2.1,2.2,2.1h43.2
		c1.2,0,2.2-1,2.2-2.1C118.7,81.4,117.7,80.5,116.5,80.5z M116.5,64.5H73.3c-1.2,0-2.2,1-2.2,2.1c0,1.2,1,2.1,2.2,2.1h43.2
		c1.2,0,2.2-0.9,2.2-2.1C118.7,65.5,117.7,64.5,116.5,64.5z M116.5,48.5H73.3c-1.2,0-2.2,0.9-2.2,2.1c0,1.2,1,2.1,2.2,2.1h43.2
		c1.2,0,2.2-1,2.2-2.1C118.7,49.5,117.7,48.5,116.5,48.5z M54.7,33.5H11.5c-1.2,0-2.2,0.9-2.2,2.1c0,1.2,1,2.1,2.2,2.1h43.2
		c1.2,0,2.2-1,2.2-2.1C56.8,34.5,55.9,33.5,54.7,33.5z M116.5,33.5H73.3c-1.2,0-2.2,0.9-2.2,2.1c0,1.2,1,2.1,2.2,2.1h43.2
		c1.2,0,2.2-1,2.2-2.1C118.7,34.5,117.7,33.5,116.5,33.5z"/>
	<path id="table_1_" class="st0" d="M26.2,99.1c-1.1,0-2-0.9-2-2V70.1H4v27.1c0,1.1-0.9,2-2,2s-2-0.9-2-2V30.8c0-1.1,0.9-2,2-2
		s2,0.9,2,2v35.4h28.2c1.1,0,2,0.9,2,2s-0.9,2-2,2h-4v27.1C28.2,98.3,27.3,99.1,26.2,99.1z M87.6,97.2V61.4h7.6c1.1,0,2-0.9,2-2
		c0-1.1-0.9-2-2-2H33.5c-1.1,0-2,0.9-2,2c0,1.1,0.9,2,2,2h7.1v35.8c0,1.1,0.9,2,2,2c1.1,0,2-0.9,2-2V61.4h39.1v35.8c0,1.1,0.9,2,2,2
		S87.6,98.3,87.6,97.2z M128,97.2V30.8c0-1.1-0.9-2-2-2s-2,0.9-2,2v35.4H95.8c-1.1,0-2,0.9-2,2s0.9,2,2,2h4v27.1c0,1.1,0.9,2,2,2
		c1.1,0,2-0.9,2-2V70.1H124v27.1c0,1.1,0.9,2,2,2S128,98.3,128,97.2z"/>
</g>
</svg>
