<svg xmlns="http://www.w3.org/2000/svg" viewBox="0 0 256 256"><defs><style>.cls-1{fill:#1d384d;}</style></defs><title>credit card</title><g id="icons_without_caption" data-name="icons without caption"><g id="CREDIT_CARD" data-name="CREDIT CARD"><path class="cls-1" d="M198.6,66.71H85.49A18.4,18.4,0,0,0,67.11,85.09v9.18h4V85.09A14.4,14.4,0,0,1,85.49,70.71H198.6A14.4,14.4,0,0,1,213,85.09v60.25a14.4,14.4,0,0,1-14.38,14.38H186.89v4H198.6A18.4,18.4,0,0,0,217,145.34V85.09A18.4,18.4,0,0,0,198.6,66.71Z"/><rect class="cls-1" x="60.23" y="170.75" width="10.2" height="4"/><rect class="cls-1" x="74.72" y="170.75" width="10.2" height="4"/><path class="cls-1" d="M168.72,174.75H155a7.26,7.26,0,0,1-7.26-7.25v-6.27A7.26,7.26,0,0,1,155,154h13.73a7.26,7.26,0,0,1,7.26,7.26v6.27A7.26,7.26,0,0,1,168.72,174.75ZM155,158a3.26,3.26,0,0,0-3.26,3.26v6.27a3.26,3.26,0,0,0,3.26,3.25h13.73a3.26,3.26,0,0,0,3.26-3.25v-6.27a3.26,3.26,0,0,0-3.26-3.26Z"/><path class="cls-1" d="M169.36,92.27H58.55A19.55,19.55,0,0,0,39,111.8v58a19.55,19.55,0,0,0,19.53,19.53H169.36a19.55,19.55,0,0,0,19.53-19.53v-58A19.55,19.55,0,0,0,169.36,92.27Zm-110.81,4H169.36A15.54,15.54,0,0,1,184.7,109.5H43.21A15.54,15.54,0,0,1,58.55,96.27Zm126.34,73.49a15.55,15.55,0,0,1-15.53,15.53H58.55A15.55,15.55,0,0,1,43,169.76V138.37H184.89Zm0-35.39H43V113.5H184.89Z"/></g></g></svg>