<svg xmlns="http://www.w3.org/2000/svg" viewBox="0 0 32 32"><g id="product"><path d="M27.52,2h-21A2.48,2.48,0,0,0,4,4.48V15a1,1,0,0,0,2,0V4.48A.47.47,0,0,1,6.48,4H12v7.84A2.16,2.16,0,0,0,14.16,14h5.68A2.16,2.16,0,0,0,22,11.84V4h5.52a.47.47,0,0,1,.48.48v19a.47.47,0,0,1-.48.48H25a1,1,0,0,0-.17,0c-.11,0-.22,0-.33,0H21a2.73,2.73,0,0,0,.05-.5A2.5,2.5,0,0,0,18.5,21H16.8a5,5,0,0,1-2.75-.83A6.84,6.84,0,0,0,10.2,19H8a1,1,0,0,0-1-1H3a1,1,0,0,0-1,1V29a1,1,0,0,0,1,1H7a1,1,0,0,0,1-1V21h2.2a5,5,0,0,1,2.75.83A6.84,6.84,0,0,0,16.8,23h1.7a.5.5,0,0,1,0,1H17a1,1,0,0,0,0,2h7.5a.5.5,0,0,1,0,1H11a1,1,0,0,0,0,2H24.5A2.5,2.5,0,0,0,27,26.5,2.73,2.73,0,0,0,27,26h.57A2.48,2.48,0,0,0,30,23.52v-19A2.48,2.48,0,0,0,27.52,2ZM20,11.84a.16.16,0,0,1-.16.16H14.16a.16.16,0,0,1-.16-.16V4h6ZM6,28H4V20H6Z"/><path d="M25,22a1,1,0,0,0,0-2H23a1,1,0,0,0,0,2Z"/></g></svg>