<svg id="Layer_1" data-name="Layer 1" xmlns="http://www.w3.org/2000/svg" viewBox="0 0 128 128"><title>FAVOURITE</title><path d="M42.216,75.075l-4.543,26.488a1.75,1.75,0,0,0,2.539,1.845L64,90.9l23.788,12.506a1.75,1.75,0,0,0,2.539-1.845L85.784,75.075l19.245-18.76a1.749,1.749,0,0,0-.97-2.984l-26.6-3.865-11.894-24.1a1.75,1.75,0,0,0-3.139,0l-11.894,24.1-26.6,3.865a1.749,1.749,0,0,0-.97,2.984ZM51.95,52.8a1.747,1.747,0,0,0,1.318-.957L64,30.095,74.732,51.84a1.747,1.747,0,0,0,1.318.957l24,3.487L82.682,73.211a1.749,1.749,0,0,0-.5,1.549l4.1,23.9L64.814,87.376a1.749,1.749,0,0,0-1.629,0L41.722,98.66l4.1-23.9a1.749,1.749,0,0,0-.5-1.549L27.953,56.284Z"/></svg>