<svg xmlns="http://www.w3.org/2000/svg" viewBox="0 0 256 256"><defs><style>.cls-1{fill:#1d384d;}</style></defs><title>handshake</title><g id="icons_without_caption" data-name="icons without caption"><g id="HANDSHAKE"><path class="cls-1" d="M197.14,84.88h-17a12.11,12.11,0,0,1-9.57-4.73,16.13,16.13,0,0,0-12.76-6.31H98.21a16.13,16.13,0,0,0-12.76,6.31,12.11,12.11,0,0,1-9.57,4.74h-21v52.86H72.45a14.62,14.62,0,0,1,3.43.4,10.9,10.9,0,0,0-1.25,3.94,10.77,10.77,0,0,0,16.31,10.45,10.76,10.76,0,0,0,10.75,10,10.79,10.79,0,0,0,4.48-1A10.8,10.8,0,0,0,117,172.76a10.84,10.84,0,0,0,5.6-1.58,10.79,10.79,0,0,0,10.78,11,10.81,10.81,0,0,0,6.68-2.33l8.7-6.89a11.08,11.08,0,0,0,2.2-2.34,10.88,10.88,0,0,0,2.48.79,11,11,0,0,0,2.06.2,10.8,10.8,0,0,0,10.68-9.5,10.49,10.49,0,0,0,2.81,1,11,11,0,0,0,2.06.19,10.78,10.78,0,0,0,9.62-15.6l0-.08-.44-.66a.61.61,0,0,0-.07-.1c-.07-.13-.15-.25-.23-.37L175.57,140a14.24,14.24,0,0,1,2-1q.3-.13.6-.24c.3-.12.6-.22.9-.31a3.79,3.79,0,0,1,.55-.16c.3-.08.6-.16.91-.22s.62-.12.94-.16.69-.09,1.05-.11.7,0,1.05,0h17.59V84.88ZM80,147.53a6.75,6.75,0,0,1-1.42-5,6.67,6.67,0,0,1,1.09-3A6.49,6.49,0,0,1,81.13,138l1.61-1.27.2-.16a6.78,6.78,0,0,1,8.42,10.63l-.88.69-.94.74a6.74,6.74,0,0,1-8.5-.08A6.62,6.62,0,0,1,80,147.53Zm25.87,9.58A6.78,6.78,0,0,1,96.37,156a6.78,6.78,0,0,1-1.47-4.1c0-.29,0-.59,0-.89a6.71,6.71,0,0,1,1.18-3.11,7,7,0,0,1,1.35-1.42l8.7-6.89a6.78,6.78,0,0,1,10.94,6.1,6.44,6.44,0,0,1-.66,2.21,5.78,5.78,0,0,1-1,1.51l-3.14,2.49-2.06,1.63a9.75,9.75,0,0,0-1.11,1Zm15.26,10.18a6.78,6.78,0,0,1-9.29-9.8l5.22-4.13a10.84,10.84,0,0,0,1.17-1.07h0l.48-.38,5.06-4h0a6.78,6.78,0,0,1,8.42,0,7.16,7.16,0,0,1,1.1,1.1,6.78,6.78,0,0,1-.75,9.22l-5.4,4.27-.55.44c-.12.1-.25.2-.36.31l0,0L124,165Zm12.18,10.88a6.79,6.79,0,0,1-6.74-7.57,6.92,6.92,0,0,1,.31-1.38,6.65,6.65,0,0,1,1.89-2.88l.65-.51,5.27-4.17.5-.42,2.6-2.06a6.69,6.69,0,0,1,2.63-1.27h0a6.78,6.78,0,0,1,5.6,1.16,0,0,0,0,1,0,0,6.42,6.42,0,0,1,1.22,1.17l.05,0a6.78,6.78,0,0,1,1.24,2.49h0a5.93,5.93,0,0,1,.16.84,6.5,6.5,0,0,1,0,1.65,6.73,6.73,0,0,1-1.11,3,6.63,6.63,0,0,1-1.42,1.53l-8.7,6.89a7.38,7.38,0,0,1-1.38.86A6.78,6.78,0,0,1,133.33,178.17Zm41.45-20.08a6.78,6.78,0,0,1-9.41-1.81l-.83-1.23c0-.09-.11-.18-.17-.27l-2-2.88-.91-1.34-1.79-2.66-7-10.36-1.81-2.68-3.32,2.24,1.81,2.68,5.49,8.12,2.7,4,3.46,5.12a6.78,6.78,0,0,1-6.91,10.45,6.44,6.44,0,0,1-1.62-.54,11.86,11.86,0,0,0,.21-1.19,10.71,10.71,0,0,0-2.22-7.88l0-.06a10.76,10.76,0,0,0-8-4.07l-1.23-1.83h0l-2.7-4-2.16-3.2h0l-1-1.45-1.41,1a10.8,10.8,0,0,0-12.63.54l-.16.12a10.79,10.79,0,0,0-17.47-8.42L97.89,141a10.8,10.8,0,0,0-10.75-9.93,10.81,10.81,0,0,0-6.68,2.33l-1.73,1.36a19.13,19.13,0,0,0-6.28-1.06H58.86V88.88h17a16.15,16.15,0,0,0,12.76-6.32,12.08,12.08,0,0,1,9.57-4.73h19.88a19,19,0,0,0-5.78,7.52l-12,29.51h6.61a27.64,27.64,0,0,0,25.43-16.79l.18-.46h9.65L164,129.94h0l4.89,7.24,2.11,3.12,4,5.93v0l1.11,1.64.54.78a6.83,6.83,0,0,1,.78,1.55,4.58,4.58,0,0,1,.15.49v0c0,.11.06.21.08.32a6.07,6.07,0,0,1,.12.84A6.79,6.79,0,0,1,174.78,158.09Zm22.36-24.35H183.55l-.8,0c-.55,0-1.11.07-1.66.14l-.71.11a3.06,3.06,0,0,0-.42.08l-.43.08c-.28.06-.56.12-.83.2-.47.12-.94.26-1.39.42-.25.08-.5.18-.74.27l-.63.25-.24.11c-.44.2-.87.41-1.29.64a7.69,7.69,0,0,0-.69.39l-.39.23-29-43.07H129.85l-1.18,2.92a23.59,23.59,0,0,1-21.73,14.33h-.67l9.58-23.63.09-.19a14.94,14.94,0,0,1,13.84-9.21h28a12.15,12.15,0,0,1,9.58,4.73,16.1,16.1,0,0,0,12.75,6.31h17Z"/><path class="cls-1" d="M32.66,76.89V145h26.2V76.89ZM54.86,141H36.66V80.89h18.2Z"/><path class="cls-1" d="M197.14,76.89V145h26.2V76.89ZM219.34,141h-18.2V80.89h18.2Z"/></g></g></svg>