<svg xmlns="http://www.w3.org/2000/svg" viewBox="0 0 64 64"><title>Approve Stamp document</title><g id="Approve_Stamp_document" data-name="Approve Stamp document"><path d="M44,54H10a6,6,0,0,1-6-6V46a1,1,0,0,1,1-1H39a1,1,0,0,1,1,1v2a4,4,0,0,0,4,4,1,1,0,0,1,0,2ZM6,47v1a4,4,0,0,0,4,4H39.53A6,6,0,0,1,38,48V47Z"/><path d="M59,19H49a1,1,0,0,1-1-1V16a6,6,0,0,1,12,0v2A1,1,0,0,1,59,19Zm-9-2h8V16a4,4,0,0,0-8,0Z"/><path d="M44,54a6,6,0,0,1-6-6V47H15a1,1,0,0,1-1-1V16a6,6,0,0,1,6-6H54a1,1,0,0,1,0,2,4,4,0,0,0-4,4v5.13a1,1,0,0,1-.75,1,3,3,0,0,0-2.06,4A23.83,23.83,0,0,1,49,34.58v1.19A3.23,3.23,0,0,1,45.77,39a2.8,2.8,0,0,0-2,.81,2.74,2.74,0,0,0-.69,1.2A1,1,0,0,1,44,42v2h5a1,1,0,0,1,1,1v3A6,6,0,0,1,44,54ZM16,45H39a1,1,0,0,1,1,1v2a4,4,0,0,0,8,0V46H43a1,1,0,0,1-1-1V43a1,1,0,0,1-1-1v-.23A4.76,4.76,0,0,1,45.77,37,1.23,1.23,0,0,0,47,35.77V34.58a22.1,22.1,0,0,0-1.68-7.82A4.93,4.93,0,0,1,45,25a5,5,0,0,1,3-4.58V16a6,6,0,0,1,1.53-4H20a4,4,0,0,0-4,4Z"/><path d="M57,46H43a1,1,0,0,1-1-1V42a1,1,0,0,1,1-1H57a1,1,0,0,1,1,1v3A1,1,0,0,1,57,46ZM44,44H56V43H44Z"/><path d="M58,43H42a1,1,0,0,1-1-1v-.23A4.76,4.76,0,0,1,45.77,37,1.23,1.23,0,0,0,47,35.77V34.58a22.1,22.1,0,0,0-1.68-7.82A4.93,4.93,0,0,1,45,25a5,5,0,0,1,3.75-4.84,5,5,0,0,1,6.1,3.6,5,5,0,0,1-.12,2.84A27.88,27.88,0,0,0,53,35.33v.44A1.23,1.23,0,0,0,54.23,37,4.78,4.78,0,0,1,59,41.77V42A1,1,0,0,1,58,43ZM43.11,41H56.89a2.77,2.77,0,0,0-2.66-2A3.23,3.23,0,0,1,51,35.77v-.44A29.52,29.52,0,0,1,52.84,26a3,3,0,0,0,.07-1.72,3,3,0,0,0-2.18-2.15,3.08,3.08,0,0,0-1.48,0,3,3,0,0,0-2.06,4A23.83,23.83,0,0,1,49,34.58v1.19A3.23,3.23,0,0,1,45.77,39a2.8,2.8,0,0,0-2,.81A2.76,2.76,0,0,0,43.11,41Z"/><path d="M30,43a8,8,0,0,1,0-16,7.83,7.83,0,0,1,5,1.73,1,1,0,1,1-1.26,1.56A5.82,5.82,0,0,0,30,29a6,6,0,1,0,6,6,1,1,0,0,1,.83-1.16,1,1,0,0,1,1.15.82A1.94,1.94,0,0,1,38,35,8,8,0,0,1,30,43Z"/><path d="M30,39a1,1,0,0,1-.71-.29l-3-3a1,1,0,0,1,1.42-1.42L30,36.59l8.29-8.3a1,1,0,0,1,1.42,1.42l-9,9A1,1,0,0,1,30,39Z"/><path d="M43,18H21a1,1,0,0,1,0-2H43a1,1,0,0,1,0,2Z"/><path d="M43,23H21a1,1,0,0,1,0-2H43a1,1,0,0,1,0,2Z"/></g></svg>