<svg xmlns="http://www.w3.org/2000/svg" viewBox="0 0 48 48"><title>package</title><g id="package"><path d="M42,17a1,1,0,0,0,0-.29L39.6,8.85A4,4,0,0,0,35.77,6H12.23A4,4,0,0,0,8.4,8.85L6,16.71A1,1,0,0,0,6,17V38a4,4,0,0,0,4,4H38a4,4,0,0,0,4-4ZM29,8h6.77a2,2,0,0,1,1.91,1.42l2,6.58H29ZM21,8h6v8H21Zm0,10h6v5l-2.4-1.8a1,1,0,0,0-1.2,0L21,23ZM10.32,9.42A2,2,0,0,1,12.23,8H19v8H8.35ZM40,38a2,2,0,0,1-2,2H10a2,2,0,0,1-2-2V18H19v7a1,1,0,0,0,1.6.8L24,23.25l3.4,2.55a1,1,0,0,0,1.05.09A1,1,0,0,0,29,25V18H40Z"/><path d="M17,32H11a1,1,0,0,0-1,1v4a1,1,0,0,0,1,1h6a1,1,0,0,0,1-1V33A1,1,0,0,0,17,32Zm-1,4H12V34h4Z"/><path d="M17,28H11a1,1,0,0,0,0,2h6a1,1,0,0,0,0-2Z"/><path d="M32,22h5a1,1,0,0,0,0-2H32a1,1,0,0,0,0,2Z"/><path d="M32,26h5a1,1,0,0,0,0-2H32a1,1,0,0,0,0,2Z"/></g></svg>