<svg xmlns="http://www.w3.org/2000/svg" viewBox="0 0 512 512"><title>Stall02</title><g id="Stall_02" data-name="Stall 02"><g id="Stall_02-2" data-name="Stall 02"><path d="M418.7,179.6233l-29.7513-76.1985a9.4574,9.4574,0,0,0-8.8047-6.0129H159.8767a9.4449,9.4449,0,0,0-8.8038,6.0192L121.3963,179.63a9.4711,9.4711,0,0,0-.6453,3.4308v17.4033c0,15.71,11.2707,29.0025,26.6868,33.3054l9.33,68.859v86.4171c0,.261.0567.504.0756.7587h-.0729v24.7842h18.9V398.4952H364.35v16.0929h18.9V389.8039h-.0756c.0225-.2547.0756-.4977.0756-.7587V302.6281l9.3276-68.8374c15.4566-4.2741,26.7687-17.586,26.7687-33.3234V183.0631A9.4579,9.4579,0,0,0,418.7,179.6233Zm-22.6386-6.01h-35l-5.0868-57.2985H373.69Zm-162.6408,0h-35.406l5.0805-57.2985h32.0166Zm20.601-57.3012H286.072L287.77,173.61H252.3265Zm-57.6864,76.2012h36.5274l-.2268,7.677h.0225c-.0036.0945-.0288.1827-.0288.2772,0,8.757-8.31,15.8787-18.522,15.8787-10.1115,0-18.342-6.9894-18.5-15.6267Zm55.4337,0H288.331l.2358,8.0136c-.0378,8.7291-8.3313,15.8193-18.5157,15.8193-10.1961,0-18.4932-7.1-18.5184-15.8382Zm55.4715,0h36.5247l.7272,8.2062c-.16,8.64-8.3916,15.6267-18.5031,15.6267-10.2087,0-18.5184-7.1217-18.5184-15.8787,0-.0945-.0252-.1863-.0288-.2808h.0252Zm-.5607-18.9-1.6974-57.2985h32.0166l5.0868,57.2985ZM166.3405,116.3119h17.7822L179.0413,173.61H144.0232Zm-26.6868,84.1554v-7.9542h37.7091l-.6336,7.119.0477.0036c-.0252.2772-.0855.5445-.0855.8316,0,8.757-8.3061,15.8787-18.5157,15.8787C147.9634,216.346,139.6537,209.2243,139.6537,200.4673Zm33.6141,83.1537-6.678-49.2759a38.0829,38.0829,0,0,0,19.5552-10.7946,39.2861,39.2861,0,0,0,55.9377-.0036,39.2851,39.2851,0,0,0,55.94,0,39.2819,39.2819,0,0,0,55.9377,0,38.0882,38.0882,0,0,0,19.4769,10.7766l-6.678,49.2939H173.2678Zm208.6587-67.275c-10.2087,0-18.5184-7.1217-18.5184-15.8787,0-.2835-.06-.5517-.0819-.8316l.0468-.0036-.63-7.119h37.7055v7.9542C400.4458,209.2243,392.1361,216.346,381.9265,216.346Z"/></g></g></svg>