<svg xmlns="http://www.w3.org/2000/svg" viewBox="0 0 512 512"><title>Euro_Coins</title><g id="Euro_Coins" data-name="Euro Coins"><g id="Euro_Coins-2" data-name="Euro Coins"><path d="M228.1982,302.758a201.0933,201.0933,0,0,0,20.3424-1.0373,71.868,71.868,0,0,1,10.6533-21.6031,170.6853,170.6853,0,0,1-30.9957,2.6905c-42.9229,0-66.0781-13.57-66.0781-19.116V247.107c16.6021,8.702,41.42,13.1775,66.0781,13.1775s49.4694-4.4755,66.0773-13.1775v6.9493a71.5567,71.5567,0,0,1,19.95-3.8266V176.637c0-25.6491-43.2782-39.0687-86.0273-39.0687S142.17,150.9879,142.17,176.637v133h.0731c1.5894,24.7152,44.0069,37.639,85.955,37.639a200.282,200.282,0,0,0,21.4225-1.1466,71.729,71.729,0,0,1-3.9463-19.6309c-5.4131.5083-11.209.8275-17.48.8275-42.9219,0-66.0772-13.5689-66.0772-19.1188V289.5844C178.7222,298.2854,203.54,302.758,228.1982,302.758Zm0-145.24c42.9191,0,66.0773,13.57,66.0773,19.1188s-23.1582,19.1188-66.0773,19.1188c-42.9229,0-66.0781-13.5689-66.0781-19.1188S185.2725,157.5182,228.1982,157.5182ZM162.12,202.5292c16.6021,8.7011,41.42,13.1765,66.0781,13.1765s49.4694-4.4754,66.0773-13.1765v18.6865c0,5.549-23.1582,19.1188-66.0773,19.1188-42.9229,0-66.0781-13.57-66.0781-19.1188Z"/><path d="M317.6636,270.0894A52.1712,52.1712,0,1,0,369.83,322.2587,52.2311,52.2311,0,0,0,317.6636,270.0894Zm4.4488,90.2272a38.1242,38.1242,0,0,1-36.7242-28.1427h-8.3258v-19.95h8.3392a38.06,38.06,0,0,1,62.0311-18.45l-13.26,14.9026a18.1342,18.1342,0,0,0-27.1785,3.5445h13.0672v19.95H306.9637a18.12,18.12,0,0,0,27.4445,3.3915l13.5195,14.67A37.9779,37.9779,0,0,1,322.1124,360.3166Z"/></g></g></svg>