<?xml version="1.0" encoding="utf-8"?>
<!-- Generator: Adobe Illustrator 16.0.0, SVG Export Plug-In . SVG Version: 6.00 Build 0)  -->
<!DOCTYPE svg PUBLIC "-//W3C//DTD SVG 1.0//EN" "http://www.w3.org/TR/2001/REC-SVG-20010904/DTD/svg10.dtd">
<svg version="1.0" id="Layer_1" xmlns="http://www.w3.org/2000/svg" xmlns:xlink="http://www.w3.org/1999/xlink" x="0px" y="0px"
	 width="100px" height="100px" viewBox="0 0 100 100" enable-background="new 0 0 100 100" xml:space="preserve">
<path d="M89.026,81.962L70.152,63.076c4.079-5.531,6.514-12.345,6.514-19.744C76.666,24.925,61.748,10,43.333,10
	C24.925,10,10,24.925,10,43.333c0,18.412,14.925,33.333,33.333,33.333c7.405,0,14.216-2.438,19.747-6.52l18.883,18.88
	c1.296,1.299,3.418,1.299,4.714,0l2.351-2.354C90.325,85.38,90.325,83.255,89.026,81.962z M43.333,23.333
	c4.604,0,8.333,3.733,8.333,8.336c0,4.603-3.729,8.33-8.333,8.33C38.73,40,35,36.272,35,31.669
	C35,27.066,38.73,23.333,43.333,23.333z M63.333,60.934c-4.883,5.551-12.023,9.069-20,9.069c-7.974,0-15.114-3.519-19.998-9.072
	v-4.265c0-5.501,4.499-9.997,9.998-9.997h20c5.505,0,10,4.496,10,9.997V60.934z"/>
</svg>
