<svg xmlns="http://www.w3.org/2000/svg" viewBox="0 0 256 256"><defs><style>.cls-1{fill:#1d384d;}</style></defs><title>wallet</title><g id="icons_without_caption" data-name="icons without caption"><g id="WALLET"><path class="cls-1" d="M115.58,42.41h0l-12,12L105,55.79a13.46,13.46,0,0,0,1.52,1.32,14.91,14.91,0,0,0,18.1,0,13.83,13.83,0,0,0,1.54-1.34l1.39-1.39Zm0,13.77a10.86,10.86,0,0,1-6.2-1.93l6.18-6.18,0,0,6.21,6.21,0,0A10.88,10.88,0,0,1,115.6,56.18Z"/><path class="cls-1" d="M143.91,70.74l0,0-1.4,1.39a15.82,15.82,0,0,0-1.33,1.53A15,15,0,0,0,141.37,92a13,13,0,0,0,1.16,1.32l1.42,1.41,12-12Zm.17,5.78,6.2,6.21,0,0-6.18,6.18a11,11,0,0,1,0-12.38Z"/><path class="cls-1" d="M155.79,138.34a17.14,17.14,0,1,0,0,34.27h35.37V138.34Zm31.37,30.27H155.79a13.14,13.14,0,1,1,0-26.27h31.37Z"/><circle class="cls-1" cx="157.16" cy="155.47" r="5.03"/><polygon class="cls-1" points="115.58 48.07 121.78 54.27 124.64 57.13 141.2 73.68 144.06 76.55 150.26 82.75 150.44 82.92 129.61 103.75 135.26 103.75 139.26 99.75 156.09 82.92 143.93 70.76 127.57 54.4 115.58 42.41 103.61 54.38 54.24 103.75 59.9 103.75 115.58 48.07"/><path class="cls-1" d="M181.79,140.34V123.07a23.34,23.34,0,0,0-23.32-23.32H38.21V213.59H158.47a23.34,23.34,0,0,0,23.32-23.31V170.61h-4v19.67a19.34,19.34,0,0,1-19.32,19.31H42.21V125.44h0v-9.66h0v-12H158.47a19.35,19.35,0,0,1,19.32,19.32v17.27Z"/><path class="cls-1" d="M114.1,103.75a16.71,16.71,0,0,0,0-4,17.48,17.48,0,0,0-34.74,0,17.85,17.85,0,0,0,0,4h4a13.75,13.75,0,0,1,0-4,13.49,13.49,0,0,1,26.68,0,13.08,13.08,0,0,1,0,4Z"/><polygon class="cls-1" points="119.51 113.85 109.39 113.85 102.74 113.85 90.73 113.85 84.08 113.85 57.9 113.85 57.9 117.85 89.84 117.85 103.64 117.85 115.51 117.85 121.16 117.85 152.13 117.85 152.13 113.85 125.16 113.85 119.51 113.85"/><rect class="cls-1" x="57.9" y="194.45" width="94.23" height="4"/><path class="cls-1" d="M190.76,63.57H167.22l8.63-8.63L173,52.12,159.69,65.44,173.28,79l2.83-2.83-8.63-8.63h23.28a23,23,0,0,1,0,46.06h-2.29v4h2.29a27,27,0,0,0,0-54.06Z"/></g></g></svg>